RedRose-Light.ufo
<glyph name="exclam" format="2">
  <advance width="260"/>
  <unicode hex="0021"/>
  <outline>
    <contour>
      <point x="123" y="200" type="curve" smooth="yes"/>
      <point x="147" y="200"/>
      <point x="163" y="493"/>
      <point x="163" y="557" type="curve" smooth="yes"/>
      <point x="163" y="597"/>
      <point x="154" y="608"/>
      <point x="125" y="608" type="curve" smooth="yes"/>
      <point x="97" y="608"/>
      <point x="86" y="597"/>
      <point x="86" y="558" type="curve" smooth="yes"/>
      <point x="86" y="491"/>
      <point x="99" y="200"/>
    </contour>
    <component base="period" xOffset="30"/>
  </outline>
</glyph>
<glyph name="numbersign" format="2">
  <advance width="686"/>
  <unicode hex="0023"/>
  <outline>
    <contour>
      <point x="256" y="0" type="curve" smooth="yes"/>
      <point x="357" y="0" type="line" smooth="yes"/>
      <point x="349" y="0"/>
      <point x="346" y="17"/>
      <point x="366" y="60" type="curve" smooth="yes"/>
      <point x="393" y="119"/>
      <point x="539" y="483"/>
      <point x="566" y="539" type="curve" smooth="yes"/>
      <point x="587" y="583"/>
      <point x="614" y="600"/>
      <point x="628" y="600" type="curve" smooth="yes"/>
      <point x="526" y="600" type="line" smooth="yes"/>
      <point x="533" y="600"/>
      <point x="536" y="583"/>
      <point x="517" y="540" type="curve" smooth="yes"/>
      <point x="491" y="481"/>
      <point x="346" y="121"/>
      <point x="317" y="60" type="curve" smooth="yes"/>
      <point x="296" y="15"/>
      <point x="270" y="0"/>
    </contour>
    <contour>
      <point x="50" y="178" type="curve"/>
      <point x="59" y="182"/>
      <point x="97" y="188"/>
      <point x="170" y="188" type="curve" smooth="yes"/>
      <point x="556" y="188" type="line"/>
      <point x="556" y="216"/>
      <point x="567" y="233"/>
      <point x="576" y="238" type="curve"/>
      <point x="573" y="234"/>
      <point x="544" y="228"/>
      <point x="476" y="228" type="curve" smooth="yes"/>
      <point x="199" y="228" type="line"/>
      <point x="70" y="228" type="line"/>
      <point x="70" y="202"/>
      <point x="59" y="184"/>
    </contour>
    <contour>
      <point x="58" y="0" type="curve" smooth="yes"/>
      <point x="159" y="0" type="line" smooth="yes"/>
      <point x="151" y="0"/>
      <point x="148" y="17"/>
      <point x="168" y="60" type="curve" smooth="yes"/>
      <point x="195" y="119"/>
      <point x="341" y="483"/>
      <point x="368" y="539" type="curve" smooth="yes"/>
      <point x="389" y="583"/>
      <point x="416" y="600"/>
      <point x="430" y="600" type="curve" smooth="yes"/>
      <point x="328" y="600" type="line" smooth="yes"/>
      <point x="335" y="600"/>
      <point x="338" y="583"/>
      <point x="319" y="540" type="curve" smooth="yes"/>
      <point x="293" y="481"/>
      <point x="148" y="121"/>
      <point x="119" y="60" type="curve" smooth="yes"/>
      <point x="98" y="15"/>
      <point x="72" y="0"/>
    </contour>
    <contour>
      <point x="110" y="358" type="curve"/>
      <point x="119" y="362"/>
      <point x="157" y="368"/>
      <point x="230" y="368" type="curve" smooth="yes"/>
      <point x="616" y="368" type="line"/>
      <point x="616" y="396"/>
      <point x="627" y="413"/>
      <point x="636" y="418" type="curve"/>
      <point x="633" y="414"/>
      <point x="604" y="408"/>
      <point x="536" y="408" type="curve" smooth="yes"/>
      <point x="295" y="408" type="line"/>
      <point x="130" y="408" type="line"/>
      <point x="130" y="382"/>
      <point x="119" y="364"/>
    </contour>
  </outline>
</glyph>
<glyph name="dollar" format="2">
  <advance width="565"/>
  <unicode hex="0024"/>
  <outline>
    <contour>
      <point x="287" y="-10" type="curve" smooth="yes"/>
      <point x="439" y="-10"/>
      <point x="525" y="47"/>
      <point x="525" y="177" type="curve" smooth="yes"/>
      <point x="525" y="285"/>
      <point x="463" y="332"/>
      <point x="322" y="332" type="curve" smooth="yes"/>
      <point x="252" y="332" type="line" smooth="yes"/>
      <point x="139" y="332"/>
      <point x="103" y="375"/>
      <point x="103" y="438" type="curve" smooth="yes"/>
      <point x="103" y="509"/>
      <point x="148" y="570"/>
      <point x="287" y="570" type="curve" smooth="yes"/>
      <point x="402" y="570"/>
      <point x="474" y="518"/>
      <point x="496" y="478" type="curve"/>
      <point x="496" y="507" type="line"/>
      <point x="506" y="547" type="line"/>
      <point x="483" y="574"/>
      <point x="408" y="610"/>
      <point x="287" y="610" type="curve" smooth="yes"/>
      <point x="129" y="610"/>
      <point x="50" y="536"/>
      <point x="50" y="438" type="curve" smooth="yes"/>
      <point x="50" y="324"/>
      <point x="125" y="287"/>
      <point x="252" y="287" type="curve" smooth="yes"/>
      <point x="322" y="287" type="line" smooth="yes"/>
      <point x="441" y="287"/>
      <point x="472" y="249"/>
      <point x="472" y="177" type="curve" smooth="yes"/>
      <point x="472" y="86"/>
      <point x="418" y="30"/>
      <point x="287" y="30" type="curve" smooth="yes"/>
      <point x="152" y="30"/>
      <point x="72" y="86"/>
      <point x="50" y="129" type="curve"/>
      <point x="50" y="98" type="line"/>
      <point x="40" y="63" type="line"/>
      <point x="65" y="32"/>
      <point x="149" y="-10"/>
    </contour>
    <contour>
      <point x="242" y="-60" type="curve"/>
      <point x="321" y="-60" type="line"/>
      <point x="316" y="-55"/>
      <point x="310" y="-36"/>
      <point x="310" y="0" type="curve" smooth="yes"/>
      <point x="310" y="599" type="line" smooth="yes"/>
      <point x="310" y="636"/>
      <point x="322" y="656"/>
      <point x="331" y="660" type="curve"/>
      <point x="252" y="660" type="line"/>
      <point x="256" y="655"/>
      <point x="262" y="636"/>
      <point x="262" y="600" type="curve" smooth="yes"/>
      <point x="262" y="0" type="line" smooth="yes"/>
      <point x="262" y="-37"/>
      <point x="251" y="-56"/>
    </contour>
  </outline>
</glyph>
<glyph name="percent" format="2">
  <advance width="680"/>
  <unicode hex="0025"/>
  <outline>
    <contour>
      <point x="74" y="1" type="curve"/>
      <point x="185" y="1" type="line"/>
      <point x="173" y="4"/>
      <point x="167" y="22"/>
      <point x="194" y="61" type="curve" smooth="yes"/>
      <point x="234" y="118"/>
      <point x="496" y="476"/>
      <point x="541" y="540" type="curve" smooth="yes"/>
      <point x="571" y="584"/>
      <point x="593" y="601"/>
      <point x="602" y="601" type="curve" smooth="yes"/>
      <point x="490" y="601" type="line" smooth="yes"/>
      <point x="501" y="601"/>
      <point x="506" y="584"/>
      <point x="481" y="541" type="curve" smooth="yes"/>
      <point x="449" y="485"/>
      <point x="175" y="115"/>
      <point x="135" y="61" type="curve" smooth="yes"/>
      <point x="104" y="19"/>
      <point x="82" y="2"/>
    </contour>
    <contour>
      <point x="490" y="-10" type="curve" smooth="yes"/>
      <point x="586" y="-10"/>
      <point x="630" y="44"/>
      <point x="630" y="110" type="curve" smooth="yes"/>
      <point x="630" y="176"/>
      <point x="586" y="230"/>
      <point x="490" y="230" type="curve" smooth="yes"/>
      <point x="392" y="230"/>
      <point x="350" y="176"/>
      <point x="350" y="110" type="curve" smooth="yes"/>
      <point x="350" y="44"/>
      <point x="392" y="-10"/>
    </contour>
    <contour>
      <point x="490" y="30" type="curve" smooth="yes"/>
      <point x="418" y="30"/>
      <point x="410" y="81"/>
      <point x="410" y="110" type="curve" smooth="yes"/>
      <point x="410" y="139"/>
      <point x="418" y="190"/>
      <point x="490" y="190" type="curve" smooth="yes"/>
      <point x="559" y="190"/>
      <point x="570" y="139"/>
      <point x="570" y="110" type="curve" smooth="yes"/>
      <point x="570" y="81"/>
      <point x="559" y="30"/>
    </contour>
    <contour>
      <point x="190" y="369" type="curve" smooth="yes"/>
      <point x="286" y="369"/>
      <point x="330" y="423"/>
      <point x="330" y="489" type="curve" smooth="yes"/>
      <point x="330" y="555"/>
      <point x="286" y="609"/>
      <point x="190" y="609" type="curve" smooth="yes"/>
      <point x="92" y="609"/>
      <point x="50" y="555"/>
      <point x="50" y="489" type="curve" smooth="yes"/>
      <point x="50" y="423"/>
      <point x="92" y="369"/>
    </contour>
    <contour>
      <point x="190" y="409" type="curve" smooth="yes"/>
      <point x="118" y="409"/>
      <point x="110" y="460"/>
      <point x="110" y="489" type="curve" smooth="yes"/>
      <point x="110" y="518"/>
      <point x="118" y="569"/>
      <point x="190" y="569" type="curve" smooth="yes"/>
      <point x="259" y="569"/>
      <point x="270" y="518"/>
      <point x="270" y="489" type="curve" smooth="yes"/>
      <point x="270" y="460"/>
      <point x="259" y="409"/>
    </contour>
  </outline>
</glyph>
<glyph name="ampersand" format="2">
  <advance width="755"/>
  <unicode hex="0026"/>
  <outline>
    <contour>
      <point x="249" y="-10" type="curve" smooth="yes"/>
      <point x="415" y="-10"/>
      <point x="502" y="75"/>
      <point x="533" y="105" type="curve"/>
      <point x="580" y="63"/>
      <point x="610" y="20"/>
      <point x="620" y="0" type="curve"/>
      <point x="745" y="0" type="line" smooth="yes"/>
      <point x="735" y="0"/>
      <point x="702" y="17"/>
      <point x="649" y="62" type="curve" smooth="yes"/>
      <point x="609" y="95"/>
      <point x="593" y="109"/>
      <point x="561" y="136" type="curve"/>
      <point x="603" y="184"/>
      <point x="624" y="223"/>
      <point x="652" y="287" type="curve" smooth="yes"/>
      <point x="670" y="328"/>
      <point x="685" y="345"/>
      <point x="692" y="347" type="curve"/>
      <point x="589" y="347" type="line"/>
      <point x="599" y="346"/>
      <point x="610" y="332"/>
      <point x="603" y="296" type="curve" smooth="yes"/>
      <point x="591" y="236"/>
      <point x="551" y="181"/>
      <point x="532" y="158" type="curve"/>
      <point x="485" y="197"/>
      <point x="373" y="287"/>
      <point x="327" y="322" type="curve"/>
      <point x="387" y="340"/>
      <point x="466" y="391"/>
      <point x="466" y="482" type="curve" smooth="yes"/>
      <point x="466" y="555"/>
      <point x="426" y="610"/>
      <point x="332" y="610" type="curve" smooth="yes"/>
      <point x="229" y="610"/>
      <point x="180" y="551"/>
      <point x="180" y="474" type="curve" smooth="yes"/>
      <point x="180" y="418"/>
      <point x="217" y="369"/>
      <point x="252" y="337" type="curve"/>
      <point x="251" y="335" type="line"/>
      <point x="208" y="325"/>
      <point x="40" y="284"/>
      <point x="40" y="150" type="curve" smooth="yes"/>
      <point x="40" y="23"/>
      <point x="144" y="-10"/>
    </contour>
    <contour>
      <point x="261" y="30" type="curve" smooth="yes"/>
      <point x="151" y="30"/>
      <point x="89" y="73"/>
      <point x="89" y="145" type="curve" smooth="yes"/>
      <point x="89" y="234"/>
      <point x="189" y="286"/>
      <point x="286" y="307" type="curve"/>
      <point x="341" y="261"/>
      <point x="455" y="171"/>
      <point x="505" y="130" type="curve"/>
      <point x="472" y="98"/>
      <point x="389" y="30"/>
    </contour>
    <contour>
      <point x="295" y="346" type="curve"/>
      <point x="276" y="359"/>
      <point x="232" y="403"/>
      <point x="232" y="468" type="curve" smooth="yes"/>
      <point x="232" y="534"/>
      <point x="272" y="570"/>
      <point x="332" y="570" type="curve" smooth="yes"/>
      <point x="385" y="570"/>
      <point x="421" y="539"/>
      <point x="421" y="482" type="curve" smooth="yes"/>
      <point x="421" y="399"/>
      <point x="327" y="356"/>
    </contour>
  </outline>
</glyph>
<glyph name="quotesingle" format="2">
  <advance width="110"/>
  <unicode hex="0027"/>
  <outline>
    <contour>
      <point x="55" y="400" type="curve" smooth="yes"/>
      <point x="68" y="400"/>
      <point x="80" y="525"/>
      <point x="80" y="562" type="curve" smooth="yes"/>
      <point x="80" y="576"/>
      <point x="81" y="590"/>
      <point x="60" y="590" type="curve" smooth="yes"/>
      <point x="51" y="590" type="line" smooth="yes"/>
      <point x="29" y="590"/>
      <point x="30" y="580"/>
      <point x="30" y="561" type="curve" smooth="yes"/>
      <point x="30" y="513"/>
      <point x="42" y="400"/>
    </contour>
  </outline>
</glyph>
<glyph name="parenright" format="2">
  <advance width="253"/>
  <unicode hex="0029"/>
  <outline>
    <contour>
      <point x="50" y="-80" type="curve"/>
      <point x="99" y="-80"/>
      <point x="243" y="19"/>
      <point x="243" y="309" type="curve" smooth="yes"/>
      <point x="243" y="599"/>
      <point x="99" y="689"/>
      <point x="50" y="689" type="curve"/>
      <point x="50" y="672"/>
      <point x="39" y="662"/>
      <point x="31" y="659" type="curve"/>
      <point x="41" y="659" type="line" smooth="yes"/>
      <point x="94" y="659"/>
      <point x="194" y="561"/>
      <point x="194" y="309" type="curve" smooth="yes"/>
      <point x="194" y="57"/>
      <point x="94" y="-50"/>
      <point x="41" y="-50" type="curve" smooth="yes"/>
      <point x="31" y="-50" type="line"/>
      <point x="39" y="-54"/>
      <point x="50" y="-65"/>
    </contour>
  </outline>
</glyph>
<glyph name="asterisk" format="2">
  <advance width="345"/>
  <unicode hex="002A"/>
  <outline>
    <contour>
      <point x="123" y="427" type="line"/>
      <point x="120" y="430"/>
      <point x="121" y="441"/>
      <point x="137" y="463" type="curve" smooth="yes"/>
      <point x="149" y="480"/>
      <point x="167" y="538"/>
      <point x="173" y="550" type="curve"/>
      <point x="179" y="538"/>
      <point x="198" y="481"/>
      <point x="210" y="465" type="curve" smooth="yes"/>
      <point x="226" y="444"/>
      <point x="227" y="432"/>
      <point x="224" y="429" type="curve"/>
      <point x="285" y="473" type="line"/>
      <point x="282" y="470"/>
      <point x="271" y="475"/>
      <point x="255" y="497" type="curve" smooth="yes"/>
      <point x="244" y="513"/>
      <point x="190" y="548"/>
      <point x="181" y="557" type="curve"/>
      <point x="194" y="559"/>
      <point x="258" y="558"/>
      <point x="277" y="564" type="curve" smooth="yes"/>
      <point x="302" y="572"/>
      <point x="313" y="570"/>
      <point x="315" y="566" type="curve"/>
      <point x="291" y="639" type="line" smooth="yes"/>
      <point x="292" y="635"/>
      <point x="285" y="626"/>
      <point x="259" y="618" type="curve" smooth="yes"/>
      <point x="239" y="611"/>
      <point x="190" y="572"/>
      <point x="178" y="566" type="curve"/>
      <point x="180" y="579"/>
      <point x="201" y="640"/>
      <point x="201" y="661" type="curve" smooth="yes"/>
      <point x="201" y="687"/>
      <point x="207" y="698"/>
      <point x="211" y="698" type="curve" smooth="yes"/>
      <point x="131" y="698" type="line" smooth="yes"/>
      <point x="135" y="698"/>
      <point x="141" y="688"/>
      <point x="141" y="661" type="curve" smooth="yes"/>
      <point x="141" y="641"/>
      <point x="167" y="579"/>
      <point x="169" y="566" type="curve"/>
      <point x="157" y="572"/>
      <point x="104" y="612"/>
      <point x="85" y="618" type="curve" smooth="yes"/>
      <point x="60" y="626"/>
      <point x="52" y="635"/>
      <point x="53" y="639" type="curve" smooth="yes"/>
      <point x="30" y="567" type="line" smooth="yes"/>
      <point x="31" y="571"/>
      <point x="42" y="574"/>
      <point x="68" y="565" type="curve" smooth="yes"/>
      <point x="88" y="559"/>
      <point x="152" y="559"/>
      <point x="165" y="557" type="curve"/>
      <point x="156" y="548"/>
      <point x="102" y="513"/>
      <point x="91" y="497" type="curve" smooth="yes"/>
      <point x="76" y="476"/>
      <point x="65" y="471"/>
      <point x="61" y="473" type="curve"/>
    </contour>
  </outline>
</glyph>
<glyph name="plus" format="2">
  <advance width="400"/>
  <unicode hex="002B"/>
  <outline>
    <contour>
      <point x="180" y="130" type="line"/>
      <point x="220" y="130" type="line"/>
      <point x="220" y="470" type="line"/>
      <point x="180" y="470" type="line"/>
    </contour>
    <contour>
      <point x="30" y="280" type="line"/>
      <point x="370" y="280" type="line"/>
      <point x="370" y="320" type="line"/>
      <point x="30" y="320" type="line"/>
    </contour>
  </outline>
</glyph>
<glyph name="comma" format="2">
  <advance width="231"/>
  <unicode hex="002C"/>
  <outline>
    <contour>
      <point x="81" y="-120" type="line"/>
      <point x="131" y="-114"/>
      <point x="181" y="-68"/>
      <point x="181" y="10" type="curve" smooth="yes"/>
      <point x="181" y="48"/>
      <point x="154" y="90"/>
      <point x="101" y="90" type="curve" smooth="yes"/>
      <point x="74" y="90"/>
      <point x="50" y="73"/>
      <point x="50" y="45" type="curve" smooth="yes"/>
      <point x="50" y="15"/>
      <point x="72" y="0"/>
      <point x="111" y="0" type="curve" smooth="yes"/>
      <point x="117" y="0"/>
      <point x="126" y="1"/>
      <point x="131" y="2" type="curve"/>
      <point x="137" y="-31"/>
      <point x="117" y="-76"/>
      <point x="61" y="-85" type="curve"/>
    </contour>
  </outline>
</glyph>
<glyph name="hyphen" format="2">
  <advance width="376"/>
  <unicode hex="002D"/>
  <outline>
    <contour>
      <point x="30" y="210" type="curve"/>
      <point x="39" y="214"/>
      <point x="77" y="220"/>
      <point x="150" y="220" type="curve" smooth="yes"/>
      <point x="326" y="220" type="line"/>
      <point x="326" y="248"/>
      <point x="337" y="265"/>
      <point x="346" y="270" type="curve"/>
      <point x="343" y="266"/>
      <point x="314" y="260"/>
      <point x="246" y="260" type="curve" smooth="yes"/>
      <point x="50" y="260" type="line"/>
      <point x="50" y="234"/>
      <point x="39" y="216"/>
    </contour>
  </outline>
</glyph>
<glyph name="period" format="2">
  <advance width="200"/>
  <unicode hex="002E"/>
  <outline>
    <contour>
      <point x="100" y="0" type="curve" smooth="yes"/>
      <point x="132" y="0"/>
      <point x="150" y="20"/>
      <point x="150" y="45" type="curve" smooth="yes"/>
      <point x="150" y="70"/>
      <point x="133" y="90"/>
      <point x="100" y="90" type="curve" smooth="yes"/>
      <point x="67" y="90"/>
      <point x="50" y="70"/>
      <point x="50" y="45" type="curve" smooth="yes"/>
      <point x="50" y="20"/>
      <point x="68" y="0"/>
    </contour>
  </outline>
</glyph>
<glyph name="slash" format="2">
  <advance width="405"/>
  <unicode hex="002F"/>
  <outline>
    <contour>
      <point x="50" y="-60" type="line"/>
      <point x="90" y="-60" type="line"/>
      <point x="355" y="688" type="line"/>
      <point x="314" y="688" type="line"/>
    </contour>
  </outline>
</glyph>
<glyph name="zero" format="2">
  <advance width="616"/>
  <unicode hex="0030"/>
  <anchor x="308" y="307" name="center"/>
  <outline>
    <contour>
      <point x="305" y="-10" type="curve" smooth="yes"/>
      <point x="316" y="-10" type="line" smooth="yes"/>
      <point x="488" y="-10"/>
      <point x="576" y="97"/>
      <point x="576" y="303" type="curve" smooth="yes"/>
      <point x="576" y="504"/>
      <point x="488" y="610"/>
      <point x="316" y="610" type="curve" smooth="yes"/>
      <point x="305" y="610" type="line" smooth="yes"/>
      <point x="130" y="610"/>
      <point x="40" y="503"/>
      <point x="40" y="303" type="curve" smooth="yes"/>
      <point x="40" y="98"/>
      <point x="128" y="-10"/>
    </contour>
    <contour>
      <point x="305" y="31" type="line" smooth="yes"/>
      <point x="173" y="31"/>
      <point x="94" y="111"/>
      <point x="94" y="303" type="curve" smooth="yes"/>
      <point x="94" y="490"/>
      <point x="172" y="570"/>
      <point x="305" y="570" type="curve" smooth="yes"/>
      <point x="316" y="570" type="line" smooth="yes"/>
      <point x="447" y="570"/>
      <point x="522" y="488"/>
      <point x="522" y="303" type="curve" smooth="yes"/>
      <point x="522" y="113"/>
      <point x="447" y="31"/>
      <point x="316" y="31" type="curve" smooth="yes"/>
    </contour>
  </outline>
</glyph>
<glyph name="one" format="2">
  <advance width="303"/>
  <unicode hex="0031"/>
  <outline>
    <contour>
      <point x="150" y="0" type="curve" smooth="yes"/>
      <point x="243" y="0" type="line" smooth="yes"/>
      <point x="234" y="0"/>
      <point x="222" y="17"/>
      <point x="222" y="60" type="curve" smooth="yes"/>
      <point x="222" y="610" type="line"/>
      <point x="186" y="589"/>
      <point x="112" y="560"/>
      <point x="40" y="560" type="curve"/>
      <point x="40" y="512" type="line"/>
      <point x="170" y="542" type="line"/>
      <point x="170" y="60" type="line" smooth="yes"/>
      <point x="170" y="17"/>
      <point x="159" y="0"/>
    </contour>
  </outline>
</glyph>
<glyph name="two" format="2">
  <advance width="566"/>
  <unicode hex="0032"/>
  <outline>
    <contour>
      <point x="30" y="0" type="line"/>
      <point x="516" y="0" type="line"/>
      <point x="516" y="11" type="line"/>
      <point x="526" y="61" type="line"/>
      <point x="513" y="52"/>
      <point x="466" y="41"/>
      <point x="386" y="41" type="curve" smooth="yes"/>
      <point x="98" y="41" type="line"/>
      <point x="98" y="44" type="line"/>
      <point x="126" y="70"/>
      <point x="193" y="125"/>
      <point x="273" y="179" type="curve" smooth="yes"/>
      <point x="390" y="259"/>
      <point x="496" y="343"/>
      <point x="496" y="454" type="curve" smooth="yes"/>
      <point x="496" y="541"/>
      <point x="444" y="610"/>
      <point x="283" y="610" type="curve" smooth="yes"/>
      <point x="162" y="610"/>
      <point x="79" y="570"/>
      <point x="50" y="540" type="curve"/>
      <point x="60" y="487" type="line"/>
      <point x="60" y="477" type="line"/>
      <point x="95" y="517"/>
      <point x="180" y="570"/>
      <point x="285" y="570" type="curve" smooth="yes"/>
      <point x="400" y="570"/>
      <point x="442" y="525"/>
      <point x="442" y="459" type="curve" smooth="yes"/>
      <point x="442" y="330"/>
      <point x="264" y="244"/>
      <point x="155" y="145" type="curve" smooth="yes"/>
      <point x="79" y="76"/>
      <point x="39" y="28"/>
      <point x="30" y="11" type="curve"/>
    </contour>
  </outline>
</glyph>
<glyph name="three" format="2">
  <advance width="576"/>
  <unicode hex="0033"/>
  <outline>
    <contour>
      <point x="294" y="-10" type="curve" smooth="yes"/>
      <point x="468" y="-10"/>
      <point x="536" y="64"/>
      <point x="536" y="165" type="curve" smooth="yes"/>
      <point x="536" y="246"/>
      <point x="484" y="291"/>
      <point x="388" y="312" type="curve"/>
      <point x="388" y="314" type="line"/>
      <point x="451" y="339"/>
      <point x="496" y="390"/>
      <point x="496" y="459" type="curve" smooth="yes"/>
      <point x="496" y="549"/>
      <point x="451" y="610"/>
      <point x="283" y="610" type="curve" smooth="yes"/>
      <point x="160" y="610"/>
      <point x="78" y="576"/>
      <point x="50" y="550" type="curve"/>
      <point x="60" y="497" type="line"/>
      <point x="60" y="487" type="line"/>
      <point x="91" y="523"/>
      <point x="174" y="570"/>
      <point x="285" y="570" type="curve" smooth="yes"/>
      <point x="407" y="570"/>
      <point x="442" y="523"/>
      <point x="442" y="451" type="curve" smooth="yes"/>
      <point x="442" y="369"/>
      <point x="377" y="330"/>
      <point x="275" y="330" type="curve" smooth="yes"/>
      <point x="200" y="330" type="line"/>
      <point x="200" y="285" type="line"/>
      <point x="275" y="285" type="line" smooth="yes"/>
      <point x="396" y="285"/>
      <point x="482" y="252"/>
      <point x="482" y="172" type="curve" smooth="yes"/>
      <point x="482" y="86"/>
      <point x="435" y="30"/>
      <point x="276" y="30" type="curve" smooth="yes"/>
      <point x="155" y="30"/>
      <point x="76" y="74"/>
      <point x="51" y="107" type="curve"/>
      <point x="51" y="97" type="line"/>
      <point x="40" y="40" type="line"/>
      <point x="69" y="19"/>
      <point x="158" y="-10"/>
    </contour>
  </outline>
</glyph>
<glyph name="four" format="2">
  <advance width="607"/>
  <unicode hex="0034"/>
  <outline>
    <contour>
      <point x="383" y="0" type="curve" smooth="yes"/>
      <point x="477" y="0" type="line" smooth="yes"/>
      <point x="468" y="0"/>
      <point x="456" y="17"/>
      <point x="456" y="60" type="curve" smooth="yes"/>
      <point x="456" y="115" type="line"/>
      <point x="587" y="115" type="line"/>
      <point x="587" y="125" type="line"/>
      <point x="597" y="176" type="line"/>
      <point x="587" y="167"/>
      <point x="545" y="155"/>
      <point x="467" y="155" type="curve" smooth="yes"/>
      <point x="456" y="155" type="line"/>
      <point x="457" y="539" type="line" smooth="yes"/>
      <point x="457" y="583"/>
      <point x="468" y="600"/>
      <point x="477" y="600" type="curve" smooth="yes"/>
      <point x="377" y="600" type="line" smooth="yes"/>
      <point x="380" y="600"/>
      <point x="365" y="574"/>
      <point x="315" y="507" type="curve" smooth="yes"/>
      <point x="236" y="401"/>
      <point x="101" y="230"/>
      <point x="51" y="170" type="curve" smooth="yes"/>
      <point x="31" y="145"/>
      <point x="16" y="124"/>
      <point x="10" y="115" type="curve"/>
      <point x="403" y="115" type="line"/>
      <point x="403" y="60" type="line" smooth="yes"/>
      <point x="403" y="17"/>
      <point x="392" y="0"/>
    </contour>
    <contour>
      <point x="87" y="155" type="line"/>
      <point x="87" y="158" type="line"/>
      <point x="164" y="230"/>
      <point x="345" y="473"/>
      <point x="401" y="549" type="curve"/>
      <point x="403" y="549" type="line"/>
      <point x="403" y="155" type="line"/>
    </contour>
  </outline>
</glyph>
<glyph name="five" format="2">
  <advance width="606"/>
  <unicode hex="0035"/>
  <outline>
    <contour>
      <point x="304" y="-10" type="curve" smooth="yes"/>
      <point x="479" y="-10"/>
      <point x="566" y="60"/>
      <point x="566" y="179" type="curve" smooth="yes"/>
      <point x="566" y="307"/>
      <point x="473" y="364"/>
      <point x="294" y="364" type="curve" smooth="yes"/>
      <point x="164" y="364" type="line" smooth="yes"/>
      <point x="124" y="364"/>
      <point x="124" y="364"/>
      <point x="124" y="394" type="curve" smooth="yes"/>
      <point x="124" y="560" type="line"/>
      <point x="334" y="560" type="line" smooth="yes"/>
      <point x="452" y="560"/>
      <point x="517" y="549"/>
      <point x="532" y="540" type="curve"/>
      <point x="522" y="590" type="line"/>
      <point x="522" y="600" type="line"/>
      <point x="70" y="600" type="line"/>
      <point x="70" y="308" type="line"/>
      <point x="101" y="317"/>
      <point x="180" y="328"/>
      <point x="285" y="328" type="curve" smooth="yes"/>
      <point x="450" y="328"/>
      <point x="512" y="274"/>
      <point x="512" y="182" type="curve" smooth="yes"/>
      <point x="512" y="81"/>
      <point x="451" y="30"/>
      <point x="296" y="30" type="curve" smooth="yes"/>
      <point x="157" y="30"/>
      <point x="74" y="74"/>
      <point x="50" y="107" type="curve"/>
      <point x="50" y="97" type="line"/>
      <point x="40" y="40" type="line"/>
      <point x="71" y="19"/>
      <point x="163" y="-10"/>
    </contour>
  </outline>
</glyph>
<glyph name="six" format="2">
  <advance width="616"/>
  <unicode hex="0036"/>
  <outline>
    <contour>
      <point x="323" y="-10" type="curve" smooth="yes"/>
      <point x="344" y="-10" type="line" smooth="yes"/>
      <point x="519" y="-10"/>
      <point x="576" y="93"/>
      <point x="576" y="193" type="curve" smooth="yes"/>
      <point x="576" y="330"/>
      <point x="496" y="395"/>
      <point x="334" y="395" type="curve" smooth="yes"/>
      <point x="179" y="395"/>
      <point x="113" y="307"/>
      <point x="94" y="260" type="curve"/>
      <point x="92" y="261" type="line"/>
      <point x="77" y="419"/>
      <point x="152" y="568"/>
      <point x="342" y="568" type="curve" smooth="yes"/>
      <point x="454" y="568"/>
      <point x="528" y="528"/>
      <point x="553" y="498" type="curve"/>
      <point x="553" y="508" type="line"/>
      <point x="563" y="558" type="line"/>
      <point x="535" y="580"/>
      <point x="456" y="610"/>
      <point x="343" y="610" type="curve" smooth="yes"/>
      <point x="152" y="610"/>
      <point x="40" y="503"/>
      <point x="40" y="314" type="curve" smooth="yes"/>
      <point x="40" y="92"/>
      <point x="152" y="-10"/>
    </contour>
    <contour>
      <point x="316" y="31" type="curve" smooth="yes"/>
      <point x="195" y="31"/>
      <point x="114" y="104"/>
      <point x="114" y="191" type="curve" smooth="yes"/>
      <point x="114" y="295"/>
      <point x="205" y="355"/>
      <point x="325" y="355" type="curve" smooth="yes"/>
      <point x="455" y="355"/>
      <point x="522" y="307"/>
      <point x="522" y="198" type="curve" smooth="yes"/>
      <point x="522" y="91"/>
      <point x="460" y="31"/>
    </contour>
  </outline>
</glyph>
<glyph name="seven" format="2">
  <advance width="575"/>
  <unicode hex="0037"/>
  <outline>
    <contour>
      <point x="188" y="0" type="curve"/>
      <point x="287" y="0" type="line" smooth="yes"/>
      <point x="282" y="0"/>
      <point x="278" y="18"/>
      <point x="287" y="63" type="curve" smooth="yes"/>
      <point x="299" y="125"/>
      <point x="447" y="462"/>
      <point x="488" y="524" type="curve" smooth="yes"/>
      <point x="510" y="558"/>
      <point x="533" y="587"/>
      <point x="545" y="600" type="curve"/>
      <point x="30" y="600" type="line"/>
      <point x="30" y="528" type="line"/>
      <point x="33" y="541"/>
      <point x="67" y="558"/>
      <point x="150" y="558" type="curve" smooth="yes"/>
      <point x="476" y="558" type="line"/>
      <point x="476" y="556" type="line"/>
      <point x="449" y="530"/>
      <point x="405" y="479"/>
      <point x="327" y="319" type="curve" smooth="yes"/>
      <point x="289" y="241"/>
      <point x="260" y="163"/>
      <point x="236" y="96" type="curve" smooth="yes"/>
      <point x="212" y="29"/>
      <point x="194" y="2"/>
    </contour>
  </outline>
</glyph>
<glyph name="nine" format="2">
  <advance width="616"/>
  <unicode hex="0039"/>
  <outline>
    <contour>
      <point x="282" y="-10" type="curve" smooth="yes"/>
      <point x="464" y="-10"/>
      <point x="576" y="78"/>
      <point x="576" y="304" type="curve" smooth="yes"/>
      <point x="576" y="513"/>
      <point x="487" y="608"/>
      <point x="303" y="608" type="curve" smooth="yes"/>
      <point x="282" y="608" type="line" smooth="yes"/>
      <point x="91" y="608"/>
      <point x="40" y="498"/>
      <point x="40" y="405" type="curve" smooth="yes"/>
      <point x="40" y="290"/>
      <point x="125" y="203"/>
      <point x="292" y="203" type="curve" smooth="yes"/>
      <point x="458" y="203"/>
      <point x="512" y="293"/>
      <point x="525" y="331" type="curve"/>
      <point x="527" y="330" type="line"/>
      <point x="539" y="179"/>
      <point x="487" y="31"/>
      <point x="273" y="31" type="curve" smooth="yes"/>
      <point x="160" y="31"/>
      <point x="85" y="70"/>
      <point x="60" y="100" type="curve"/>
      <point x="60" y="90" type="line"/>
      <point x="50" y="40" type="line"/>
      <point x="82" y="19"/>
      <point x="167" y="-10"/>
    </contour>
    <contour>
      <point x="305" y="243" type="curve" smooth="yes"/>
      <point x="159" y="243"/>
      <point x="94" y="307"/>
      <point x="94" y="399" type="curve" smooth="yes"/>
      <point x="94" y="495"/>
      <point x="164" y="567"/>
      <point x="300" y="567" type="curve" smooth="yes"/>
      <point x="442" y="567"/>
      <point x="514" y="489"/>
      <point x="514" y="403" type="curve" smooth="yes"/>
      <point x="514" y="310"/>
      <point x="432" y="243"/>
    </contour>
  </outline>
</glyph>
<glyph name="less" format="2">
  <advance width="400"/>
  <unicode hex="003C"/>
  <outline>
    <contour>
      <point x="370" y="110" type="line"/>
      <point x="30" y="280" type="line"/>
      <point x="30" y="320" type="line"/>
      <point x="370" y="490" type="line"/>
      <point x="370" y="440" type="line"/>
      <point x="76" y="300" type="line"/>
      <point x="370" y="160" type="line"/>
    </contour>
  </outline>
</glyph>
<glyph name="greater" format="2">
  <advance width="400"/>
  <unicode hex="003E"/>
  <outline>
    <contour>
      <point x="30" y="110" type="line"/>
      <point x="370" y="280" type="line"/>
      <point x="370" y="320" type="line"/>
      <point x="30" y="490" type="line"/>
      <point x="30" y="440" type="line"/>
      <point x="324" y="300" type="line"/>
      <point x="30" y="160" type="line"/>
    </contour>
  </outline>
</glyph>
<glyph name="question" format="2">
  <advance width="526"/>
  <unicode hex="003F"/>
  <outline>
    <contour>
      <point x="213" y="201" type="curve" smooth="yes"/>
      <point x="228" y="201"/>
      <point x="243" y="295"/>
      <point x="243" y="310" type="curve"/>
      <point x="371" y="328"/>
      <point x="446" y="389"/>
      <point x="446" y="473" type="curve" smooth="yes"/>
      <point x="446" y="541"/>
      <point x="389" y="609"/>
      <point x="253" y="609" type="curve" smooth="yes"/>
      <point x="157" y="609"/>
      <point x="98" y="592"/>
      <point x="80" y="579" type="curve"/>
      <point x="90" y="527" type="line"/>
      <point x="90" y="497" type="line"/>
      <point x="117" y="524"/>
      <point x="181" y="560"/>
      <point x="258" y="560" type="curve" smooth="yes"/>
      <point x="330" y="560"/>
      <point x="374" y="535"/>
      <point x="374" y="478" type="curve" smooth="yes"/>
      <point x="374" y="401"/>
      <point x="288" y="350"/>
      <point x="182" y="350" type="curve"/>
      <point x="182" y="247"/>
      <point x="200" y="201"/>
    </contour>
    <component base="period" xOffset="115"/>
  </outline>
</glyph>
<glyph name="B" format="2">
  <advance width="704"/>
  <unicode hex="0042"/>
  <outline>
    <contour>
      <point x="70" y="0" type="curve" smooth="yes"/>
      <point x="464" y="0" type="line" smooth="yes"/>
      <point x="622" y="0"/>
      <point x="674" y="62"/>
      <point x="674" y="166" type="curve" smooth="yes"/>
      <point x="674" y="240"/>
      <point x="628" y="303"/>
      <point x="547" y="317" type="curve"/>
      <point x="547" y="319" type="line"/>
      <point x="580" y="330"/>
      <point x="626" y="372"/>
      <point x="626" y="450" type="curve" smooth="yes"/>
      <point x="626" y="546"/>
      <point x="568" y="600"/>
      <point x="425" y="600" type="curve" smooth="yes"/>
      <point x="70" y="600" type="line"/>
      <point x="79" y="599"/>
      <point x="91" y="582"/>
      <point x="91" y="540" type="curve" smooth="yes"/>
      <point x="91" y="60" type="line" smooth="yes"/>
      <point x="91" y="17"/>
      <point x="79" y="0"/>
    </contour>
    <contour>
      <point x="184" y="41" type="line" smooth="yes"/>
      <point x="145" y="41"/>
      <point x="144" y="41"/>
      <point x="144" y="71" type="curve" smooth="yes"/>
      <point x="144" y="266" type="line" smooth="yes"/>
      <point x="144" y="297"/>
      <point x="145" y="297"/>
      <point x="185" y="297" type="curve" smooth="yes"/>
      <point x="445" y="297" type="line" smooth="yes"/>
      <point x="559" y="297"/>
      <point x="622" y="248"/>
      <point x="622" y="168" type="curve" smooth="yes"/>
      <point x="622" y="82"/>
      <point x="575" y="41"/>
      <point x="475" y="41" type="curve" smooth="yes"/>
    </contour>
    <contour>
      <point x="185" y="336" type="line" smooth="yes"/>
      <point x="145" y="336"/>
      <point x="144" y="336"/>
      <point x="144" y="366" type="curve" smooth="yes"/>
      <point x="144" y="531" type="line" smooth="yes"/>
      <point x="144" y="561"/>
      <point x="145" y="561"/>
      <point x="185" y="561" type="curve" smooth="yes"/>
      <point x="435" y="561" type="line" smooth="yes"/>
      <point x="529" y="561"/>
      <point x="574" y="519"/>
      <point x="574" y="447" type="curve" smooth="yes"/>
      <point x="574" y="369"/>
      <point x="524" y="336"/>
      <point x="444" y="336" type="curve" smooth="yes"/>
    </contour>
  </outline>
</glyph>
<glyph name="C" format="2">
  <advance width="676"/>
  <unicode hex="0043"/>
  <anchor x="395" y="0" name="bottom"/>
  <anchor x="375" y="600" name="top"/>
  <outline>
    <contour>
      <point x="383" y="-10" type="curve" smooth="yes"/>
      <point x="520" y="-10"/>
      <point x="608" y="19"/>
      <point x="636" y="40" type="curve"/>
      <point x="626" y="80" type="line"/>
      <point x="626" y="91" type="line"/>
      <point x="600" y="65"/>
      <point x="520" y="31"/>
      <point x="394" y="31" type="curve" smooth="yes"/>
      <point x="184" y="31"/>
      <point x="104" y="126"/>
      <point x="104" y="300" type="curve" smooth="yes"/>
      <point x="104" y="469"/>
      <point x="187" y="570"/>
      <point x="375" y="570" type="curve" smooth="yes"/>
      <point x="498" y="570"/>
      <point x="590" y="530"/>
      <point x="626" y="500" type="curve"/>
      <point x="616" y="550" type="line"/>
      <point x="616" y="560" type="line"/>
      <point x="578" y="582"/>
      <point x="485" y="610"/>
      <point x="373" y="610" type="curve" smooth="yes"/>
      <point x="135" y="610"/>
      <point x="50" y="485"/>
      <point x="50" y="300" type="curve" smooth="yes"/>
      <point x="50" y="85"/>
      <point x="158" y="-10"/>
    </contour>
  </outline>
</glyph>
<glyph name="D" format="2">
  <advance width="766"/>
  <unicode hex="0044"/>
  <anchor x="383" y="0" name="bottom"/>
  <anchor x="183" y="300" name="center"/>
  <anchor x="383" y="600" name="top"/>
  <outline>
    <contour>
      <point x="70" y="0" type="curve" smooth="yes"/>
      <point x="384" y="0" type="line" smooth="yes"/>
      <point x="677" y="0"/>
      <point x="716" y="164"/>
      <point x="716" y="299" type="curve" smooth="yes"/>
      <point x="716" y="445"/>
      <point x="679" y="600"/>
      <point x="384" y="600" type="curve" smooth="yes"/>
      <point x="70" y="600" type="line"/>
      <point x="79" y="599"/>
      <point x="91" y="582"/>
      <point x="91" y="540" type="curve" smooth="yes"/>
      <point x="91" y="60" type="line" smooth="yes"/>
      <point x="91" y="17"/>
      <point x="79" y="0"/>
    </contour>
    <contour>
      <point x="183" y="41" type="line" smooth="yes"/>
      <point x="144" y="41"/>
      <point x="143" y="41"/>
      <point x="143" y="71" type="curve" smooth="yes"/>
      <point x="143" y="532" type="line" smooth="yes"/>
      <point x="143" y="560"/>
      <point x="144" y="560"/>
      <point x="183" y="560" type="curve" smooth="yes"/>
      <point x="366" y="560" type="line" smooth="yes"/>
      <point x="580" y="560"/>
      <point x="662" y="487"/>
      <point x="662" y="310" type="curve" smooth="yes"/>
      <point x="662" y="292" type="line" smooth="yes"/>
      <point x="662" y="114"/>
      <point x="579" y="41"/>
      <point x="366" y="41" type="curve" smooth="yes"/>
    </contour>
  </outline>
</glyph>
<glyph name="E" format="2">
  <advance width="673"/>
  <unicode hex="0045"/>
  <anchor x="364" y="0" name="bottom"/>
  <anchor x="614" y="10" name="ogonek"/>
  <anchor x="364" y="600" name="top"/>
  <anchor x="100" y="600" name="topleft"/>
  <outline>
    <contour>
      <point x="70" y="0" type="curve" smooth="yes"/>
      <point x="633" y="0" type="line"/>
      <point x="633" y="11" type="line"/>
      <point x="653" y="60" type="line"/>
      <point x="638" y="51"/>
      <point x="590" y="40"/>
      <point x="513" y="40" type="curve" smooth="yes"/>
      <point x="183" y="40" type="line" smooth="yes"/>
      <point x="143" y="40"/>
      <point x="143" y="40"/>
      <point x="143" y="71" type="curve" smooth="yes"/>
      <point x="143" y="266" type="line" smooth="yes"/>
      <point x="143" y="296"/>
      <point x="144" y="296"/>
      <point x="183" y="296" type="curve" smooth="yes"/>
      <point x="507" y="296" type="line"/>
      <point x="507" y="325"/>
      <point x="518" y="342"/>
      <point x="527" y="346" type="curve"/>
      <point x="512" y="342"/>
      <point x="464" y="336"/>
      <point x="387" y="336" type="curve" smooth="yes"/>
      <point x="183" y="336" type="line" smooth="yes"/>
      <point x="144" y="336"/>
      <point x="143" y="336"/>
      <point x="143" y="366" type="curve" smooth="yes"/>
      <point x="143" y="530" type="line" smooth="yes"/>
      <point x="143" y="558"/>
      <point x="144" y="560"/>
      <point x="184" y="560" type="curve" smooth="yes"/>
      <point x="392" y="560" type="line" smooth="yes"/>
      <point x="510" y="560"/>
      <point x="598" y="551"/>
      <point x="632" y="544" type="curve"/>
      <point x="612" y="590" type="line"/>
      <point x="612" y="600" type="line"/>
      <point x="70" y="600" type="line"/>
      <point x="79" y="599"/>
      <point x="91" y="582"/>
      <point x="91" y="540" type="curve" smooth="yes"/>
      <point x="91" y="60" type="line" smooth="yes"/>
      <point x="91" y="17"/>
      <point x="79" y="0"/>
    </contour>
  </outline>
</glyph>
<glyph name="F" format="2">
  <advance width="653"/>
  <unicode hex="0046"/>
  <outline>
    <contour>
      <point x="70" y="0" type="curve" smooth="yes"/>
      <point x="164" y="0" type="line" smooth="yes"/>
      <point x="155" y="0"/>
      <point x="143" y="16"/>
      <point x="143" y="60" type="curve" smooth="yes"/>
      <point x="143" y="266" type="line" smooth="yes"/>
      <point x="143" y="296"/>
      <point x="144" y="296"/>
      <point x="183" y="296" type="curve" smooth="yes"/>
      <point x="508" y="296" type="line"/>
      <point x="508" y="325"/>
      <point x="519" y="342"/>
      <point x="528" y="346" type="curve"/>
      <point x="513" y="342"/>
      <point x="465" y="336"/>
      <point x="388" y="336" type="curve" smooth="yes"/>
      <point x="183" y="336" type="line" smooth="yes"/>
      <point x="144" y="336"/>
      <point x="143" y="336"/>
      <point x="143" y="366" type="curve" smooth="yes"/>
      <point x="143" y="530" type="line" smooth="yes"/>
      <point x="143" y="558"/>
      <point x="144" y="560"/>
      <point x="184" y="560" type="curve" smooth="yes"/>
      <point x="393" y="560" type="line" smooth="yes"/>
      <point x="511" y="560"/>
      <point x="599" y="551"/>
      <point x="633" y="544" type="curve"/>
      <point x="613" y="590" type="line"/>
      <point x="613" y="600" type="line"/>
      <point x="70" y="600" type="line"/>
      <point x="79" y="599"/>
      <point x="91" y="582"/>
      <point x="91" y="540" type="curve" smooth="yes"/>
      <point x="91" y="60" type="line" smooth="yes"/>
      <point x="91" y="17"/>
      <point x="79" y="0"/>
    </contour>
  </outline>
</glyph>
<glyph name="G" format="2">
  <advance width="726"/>
  <unicode hex="0047"/>
  <anchor x="379" y="0" name="bottom"/>
  <anchor x="379" y="600" name="top"/>
  <outline>
    <contour>
      <point x="363" y="-10" type="curve" smooth="yes"/>
      <point x="511" y="-10"/>
      <point x="584" y="43"/>
      <point x="604" y="74" type="curve"/>
      <point x="606" y="72" type="line"/>
      <point x="604" y="53" type="line"/>
      <point x="604" y="0" type="line"/>
      <point x="676" y="0" type="line" smooth="yes"/>
      <point x="667" y="0"/>
      <point x="656" y="17"/>
      <point x="656" y="60" type="curve" smooth="yes"/>
      <point x="656" y="236" type="line" smooth="yes"/>
      <point x="656" y="278"/>
      <point x="667" y="295"/>
      <point x="676" y="296" type="curve"/>
      <point x="382" y="296" type="line"/>
      <point x="382" y="276" type="line"/>
      <point x="372" y="237" type="line"/>
      <point x="384" y="246"/>
      <point x="429" y="258"/>
      <point x="504" y="258" type="curve" smooth="yes"/>
      <point x="574" y="258" type="line" smooth="yes"/>
      <point x="604" y="258"/>
      <point x="604" y="258"/>
      <point x="604" y="228" type="curve" smooth="yes"/>
      <point x="604" y="172" type="line" smooth="yes"/>
      <point x="604" y="72"/>
      <point x="496" y="31"/>
      <point x="364" y="31" type="curve" smooth="yes"/>
      <point x="215" y="31"/>
      <point x="104" y="116"/>
      <point x="104" y="298" type="curve" smooth="yes"/>
      <point x="104" y="485"/>
      <point x="210" y="570"/>
      <point x="395" y="570" type="curve" smooth="yes"/>
      <point x="518" y="570"/>
      <point x="611" y="536"/>
      <point x="646" y="510" type="curve"/>
      <point x="636" y="560" type="line"/>
      <point x="636" y="570" type="line"/>
      <point x="602" y="587"/>
      <point x="512" y="610"/>
      <point x="393" y="610" type="curve" smooth="yes"/>
      <point x="150" y="610"/>
      <point x="50" y="482"/>
      <point x="50" y="298" type="curve" smooth="yes"/>
      <point x="50" y="88"/>
      <point x="168" y="-10"/>
    </contour>
  </outline>
</glyph>
<glyph name="H" format="2">
  <advance width="726"/>
  <unicode hex="0048"/>
  <anchor x="366" y="0" name="bottom"/>
  <anchor x="366" y="460" name="center"/>
  <anchor x="366" y="600" name="top"/>
  <anchor x="31" y="600" name="topleft"/>
  <outline>
    <contour>
      <point x="70" y="0" type="curve" smooth="yes"/>
      <point x="164" y="0" type="line" smooth="yes"/>
      <point x="155" y="0"/>
      <point x="143" y="17"/>
      <point x="143" y="60" type="curve" smooth="yes"/>
      <point x="143" y="266" type="line" smooth="yes"/>
      <point x="143" y="295"/>
      <point x="144" y="296"/>
      <point x="184" y="296" type="curve" smooth="yes"/>
      <point x="542" y="296" type="line" smooth="yes"/>
      <point x="581" y="296"/>
      <point x="582" y="296"/>
      <point x="582" y="266" type="curve" smooth="yes"/>
      <point x="582" y="60" type="line" smooth="yes"/>
      <point x="582" y="17"/>
      <point x="570" y="0"/>
      <point x="561" y="0" type="curve" smooth="yes"/>
      <point x="656" y="0" type="line" smooth="yes"/>
      <point x="647" y="0"/>
      <point x="635" y="17"/>
      <point x="635" y="60" type="curve" smooth="yes"/>
      <point x="635" y="539" type="line" smooth="yes"/>
      <point x="635" y="583"/>
      <point x="647" y="600"/>
      <point x="656" y="600" type="curve" smooth="yes"/>
      <point x="561" y="600" type="line"/>
      <point x="570" y="599"/>
      <point x="582" y="582"/>
      <point x="582" y="540" type="curve" smooth="yes"/>
      <point x="582" y="365" type="line" smooth="yes"/>
      <point x="582" y="334"/>
      <point x="582" y="335"/>
      <point x="542" y="335" type="curve" smooth="yes"/>
      <point x="184" y="335" type="line" smooth="yes"/>
      <point x="144" y="335"/>
      <point x="143" y="336"/>
      <point x="143" y="365" type="curve" smooth="yes"/>
      <point x="143" y="539" type="line" smooth="yes"/>
      <point x="143" y="583"/>
      <point x="155" y="600"/>
      <point x="164" y="600" type="curve" smooth="yes"/>
      <point x="70" y="600" type="line"/>
      <point x="79" y="599"/>
      <point x="91" y="582"/>
      <point x="91" y="540" type="curve" smooth="yes"/>
      <point x="91" y="60" type="line" smooth="yes"/>
      <point x="91" y="17"/>
      <point x="79" y="0"/>
    </contour>
  </outline>
</glyph>
<glyph name="I" format="2">
  <advance width="234"/>
  <unicode hex="0049"/>
  <anchor x="126" y="0" name="bottom"/>
  <anchor x="204" y="7" name="ogonek"/>
  <anchor x="116" y="600" name="top"/>
  <anchor x="39" y="600" name="topleft"/>
  <outline>
    <contour>
      <point x="70" y="0" type="curve" smooth="yes"/>
      <point x="164" y="0" type="line" smooth="yes"/>
      <point x="155" y="0"/>
      <point x="143" y="17"/>
      <point x="143" y="60" type="curve" smooth="yes"/>
      <point x="143" y="539" type="line" smooth="yes"/>
      <point x="143" y="583"/>
      <point x="155" y="600"/>
      <point x="164" y="600" type="curve" smooth="yes"/>
      <point x="70" y="600" type="line"/>
      <point x="79" y="599"/>
      <point x="91" y="582"/>
      <point x="91" y="540" type="curve" smooth="yes"/>
      <point x="91" y="60" type="line" smooth="yes"/>
      <point x="91" y="17"/>
      <point x="79" y="0"/>
    </contour>
  </outline>
</glyph>
<glyph name="J" format="2">
  <advance width="529"/>
  <unicode hex="004A"/>
  <anchor x="220" y="0" name="bottom"/>
  <anchor x="410" y="600" name="top"/>
  <outline>
    <contour>
      <point x="223" y="-10" type="curve" smooth="yes"/>
      <point x="360" y="-10"/>
      <point x="448" y="34"/>
      <point x="448" y="210" type="curve" smooth="yes"/>
      <point x="448" y="539" type="line" smooth="yes"/>
      <point x="448" y="583"/>
      <point x="460" y="600"/>
      <point x="469" y="600" type="curve" smooth="yes"/>
      <point x="375" y="600" type="line"/>
      <point x="384" y="599"/>
      <point x="396" y="582"/>
      <point x="396" y="540" type="curve" smooth="yes"/>
      <point x="396" y="210" type="line" smooth="yes"/>
      <point x="396" y="85"/>
      <point x="347" y="30"/>
      <point x="225" y="30" type="curve" smooth="yes"/>
      <point x="118" y="30"/>
      <point x="51" y="70"/>
      <point x="30" y="100" type="curve"/>
      <point x="30" y="90" type="line"/>
      <point x="20" y="37" type="line"/>
      <point x="41" y="17"/>
      <point x="110" y="-10"/>
    </contour>
  </outline>
</glyph>
<glyph name="K" format="2">
  <advance width="747"/>
  <unicode hex="004B"/>
  <anchor x="328" y="0" name="bottom"/>
  <anchor x="308" y="600" name="top"/>
  <outline>
    <contour>
      <point x="70" y="0" type="curve" smooth="yes"/>
      <point x="164" y="0" type="line" smooth="yes"/>
      <point x="155" y="0"/>
      <point x="143" y="17"/>
      <point x="143" y="60" type="curve" smooth="yes"/>
      <point x="143" y="254" type="line" smooth="yes"/>
      <point x="143" y="286"/>
      <point x="143" y="287"/>
      <point x="184" y="287" type="curve" smooth="yes"/>
      <point x="254" y="287" type="line" smooth="yes"/>
      <point x="456" y="287"/>
      <point x="573" y="154"/>
      <point x="609" y="55" type="curve" smooth="yes"/>
      <point x="624" y="16"/>
      <point x="610" y="0"/>
      <point x="595" y="0" type="curve" smooth="yes"/>
      <point x="745" y="0" type="line" smooth="yes"/>
      <point x="732" y="0"/>
      <point x="704" y="20"/>
      <point x="674" y="70" type="curve" smooth="yes"/>
      <point x="629" y="145"/>
      <point x="583" y="212"/>
      <point x="512" y="258" type="curve" smooth="yes"/>
      <point x="454" y="296"/>
      <point x="404" y="313"/>
      <point x="368" y="320" type="curve"/>
      <point x="368" y="323" type="line"/>
      <point x="385" y="327"/>
      <point x="420" y="339"/>
      <point x="470" y="375" type="curve" smooth="yes"/>
      <point x="517" y="409"/>
      <point x="554" y="456"/>
      <point x="599" y="539" type="curve" smooth="yes"/>
      <point x="622" y="583"/>
      <point x="642" y="600"/>
      <point x="650" y="600" type="curve" smooth="yes"/>
      <point x="516" y="600" type="line"/>
      <point x="528" y="599"/>
      <point x="539" y="582"/>
      <point x="526" y="539" type="curve" smooth="yes"/>
      <point x="494" y="437"/>
      <point x="400" y="336"/>
      <point x="264" y="336" type="curve" smooth="yes"/>
      <point x="184" y="336" type="line" smooth="yes"/>
      <point x="145" y="336"/>
      <point x="143" y="336"/>
      <point x="143" y="366" type="curve" smooth="yes"/>
      <point x="143" y="539" type="line" smooth="yes"/>
      <point x="143" y="583"/>
      <point x="155" y="600"/>
      <point x="164" y="600" type="curve" smooth="yes"/>
      <point x="70" y="600" type="line"/>
      <point x="79" y="599"/>
      <point x="91" y="582"/>
      <point x="91" y="540" type="curve" smooth="yes"/>
      <point x="91" y="60" type="line" smooth="yes"/>
      <point x="91" y="17"/>
      <point x="79" y="0"/>
    </contour>
  </outline>
</glyph>
<glyph name="L" format="2">
  <advance width="626"/>
  <unicode hex="004C"/>
  <anchor x="334" y="0" name="bottom"/>
  <anchor x="134" y="300" name="center"/>
  <anchor x="304" y="600" name="top"/>
  <anchor x="627" y="600" name="topright"/>
  <outline>
    <contour>
      <point x="70" y="0" type="curve" smooth="yes"/>
      <point x="596" y="0" type="line"/>
      <point x="596" y="11" type="line"/>
      <point x="616" y="70" type="line"/>
      <point x="601" y="57"/>
      <point x="553" y="40"/>
      <point x="476" y="40" type="curve" smooth="yes"/>
      <point x="184" y="40" type="line" smooth="yes"/>
      <point x="144" y="40"/>
      <point x="143" y="41"/>
      <point x="143" y="71" type="curve" smooth="yes"/>
      <point x="143" y="539" type="line" smooth="yes"/>
      <point x="143" y="583"/>
      <point x="155" y="600"/>
      <point x="164" y="600" type="curve" smooth="yes"/>
      <point x="70" y="600" type="line"/>
      <point x="79" y="599"/>
      <point x="91" y="582"/>
      <point x="91" y="540" type="curve" smooth="yes"/>
      <point x="91" y="60" type="line" smooth="yes"/>
      <point x="91" y="17"/>
      <point x="79" y="0"/>
    </contour>
  </outline>
</glyph>
<glyph name="M" format="2">
  <advance width="925"/>
  <unicode hex="004D"/>
  <outline>
    <contour>
      <point x="70" y="0" type="curve" smooth="yes"/>
      <point x="165" y="0" type="line" smooth="yes"/>
      <point x="156" y="0"/>
      <point x="144" y="17"/>
      <point x="144" y="60" type="curve" smooth="yes"/>
      <point x="144" y="504" type="line"/>
      <point x="147" y="504" type="line"/>
      <point x="238" y="344"/>
      <point x="371" y="113"/>
      <point x="402" y="60" type="curve" smooth="yes"/>
      <point x="428" y="17"/>
      <point x="423" y="0"/>
      <point x="412" y="0" type="curve" smooth="yes"/>
      <point x="510" y="0" type="line" smooth="yes"/>
      <point x="499" y="0"/>
      <point x="494" y="16"/>
      <point x="520" y="60" type="curve" smooth="yes"/>
      <point x="557" y="121"/>
      <point x="690" y="349"/>
      <point x="780" y="504" type="curve"/>
      <point x="782" y="504" type="line"/>
      <point x="782" y="60" type="line" smooth="yes"/>
      <point x="782" y="17"/>
      <point x="771" y="0"/>
      <point x="762" y="0" type="curve" smooth="yes"/>
      <point x="855" y="0" type="line" smooth="yes"/>
      <point x="846" y="0"/>
      <point x="834" y="17"/>
      <point x="834" y="60" type="curve" smooth="yes"/>
      <point x="834" y="539" type="line" smooth="yes"/>
      <point x="834" y="583"/>
      <point x="846" y="600"/>
      <point x="855" y="600" type="curve" smooth="yes"/>
      <point x="762" y="600" type="line" smooth="yes"/>
      <point x="768" y="600"/>
      <point x="767" y="583"/>
      <point x="741" y="540" type="curve" smooth="yes"/>
      <point x="713" y="493"/>
      <point x="566" y="239"/>
      <point x="462" y="60" type="curve"/>
      <point x="461" y="60" type="line"/>
      <point x="357" y="239"/>
      <point x="209" y="493"/>
      <point x="184" y="538" type="curve" smooth="yes"/>
      <point x="161" y="580"/>
      <point x="158" y="598"/>
      <point x="163" y="600" type="curve"/>
      <point x="70" y="600" type="line"/>
      <point x="79" y="599"/>
      <point x="91" y="582"/>
      <point x="91" y="540" type="curve" smooth="yes"/>
      <point x="91" y="60" type="line" smooth="yes"/>
      <point x="91" y="17"/>
      <point x="79" y="0"/>
    </contour>
  </outline>
</glyph>
<glyph name="N" format="2">
  <advance width="744"/>
  <unicode hex="004E"/>
  <anchor x="385" y="0" name="bottom"/>
  <anchor x="385" y="600" name="top"/>
  <outline>
    <contour>
      <point x="70" y="0" type="curve" smooth="yes"/>
      <point x="165" y="0" type="line" smooth="yes"/>
      <point x="156" y="0"/>
      <point x="144" y="17"/>
      <point x="144" y="60" type="curve" smooth="yes"/>
      <point x="144" y="557" type="line"/>
      <point x="147" y="557" type="line"/>
      <point x="291" y="380"/>
      <point x="503" y="123"/>
      <point x="556" y="62" type="curve" smooth="yes"/>
      <point x="590" y="23"/>
      <point x="599" y="4"/>
      <point x="596" y="0" type="curve"/>
      <point x="674" y="0" type="line" smooth="yes"/>
      <point x="665" y="0"/>
      <point x="653" y="17"/>
      <point x="653" y="60" type="curve" smooth="yes"/>
      <point x="653" y="539" type="line" smooth="yes"/>
      <point x="653" y="583"/>
      <point x="665" y="600"/>
      <point x="674" y="600" type="curve" smooth="yes"/>
      <point x="580" y="600" type="line"/>
      <point x="589" y="599"/>
      <point x="601" y="582"/>
      <point x="601" y="540" type="curve" smooth="yes"/>
      <point x="601" y="85" type="line"/>
      <point x="599" y="85" type="line"/>
      <point x="452" y="263"/>
      <point x="247" y="510"/>
      <point x="222" y="538" type="curve" smooth="yes"/>
      <point x="183" y="582"/>
      <point x="173" y="599"/>
      <point x="176" y="600" type="curve"/>
      <point x="70" y="600" type="line"/>
      <point x="79" y="599"/>
      <point x="91" y="582"/>
      <point x="91" y="540" type="curve" smooth="yes"/>
      <point x="91" y="60" type="line" smooth="yes"/>
      <point x="91" y="17"/>
      <point x="79" y="0"/>
    </contour>
  </outline>
</glyph>
<glyph name="O" format="2">
  <advance width="776"/>
  <unicode hex="004F"/>
  <anchor x="388" y="0" name="bottom"/>
  <anchor x="388" y="300" name="center"/>
  <anchor x="482" y="2" name="ogonek"/>
  <anchor x="388" y="600" name="top"/>
  <anchor x="40" y="600" name="topleft"/>
  <anchor x="736" y="510" name="topright"/>
  <outline>
    <contour>
      <point x="375" y="-10" type="curve" smooth="yes"/>
      <point x="406" y="-10" type="line" smooth="yes"/>
      <point x="635" y="-10"/>
      <point x="726" y="94"/>
      <point x="726" y="303" type="curve" smooth="yes"/>
      <point x="726" y="504"/>
      <point x="636" y="610"/>
      <point x="406" y="610" type="curve" smooth="yes"/>
      <point x="375" y="610" type="line" smooth="yes"/>
      <point x="140" y="610"/>
      <point x="50" y="503"/>
      <point x="50" y="303" type="curve" smooth="yes"/>
      <point x="50" y="95"/>
      <point x="141" y="-10"/>
    </contour>
    <contour>
      <point x="385" y="31" type="line" smooth="yes"/>
      <point x="209" y="31"/>
      <point x="104" y="90"/>
      <point x="104" y="303" type="curve" smooth="yes"/>
      <point x="104" y="503"/>
      <point x="207" y="570"/>
      <point x="385" y="570" type="curve" smooth="yes"/>
      <point x="396" y="570" type="line" smooth="yes"/>
      <point x="570" y="570"/>
      <point x="672" y="506"/>
      <point x="672" y="303" type="curve" smooth="yes"/>
      <point x="672" y="87"/>
      <point x="572" y="31"/>
      <point x="396" y="31" type="curve" smooth="yes"/>
    </contour>
  </outline>
</glyph>
<glyph name="P" format="2">
  <advance width="658"/>
  <unicode hex="0050"/>
  <outline>
    <contour>
      <point x="71" y="0" type="curve" smooth="yes"/>
      <point x="164" y="0" type="line" smooth="yes"/>
      <point x="155" y="0"/>
      <point x="143" y="17"/>
      <point x="143" y="60" type="curve" smooth="yes"/>
      <point x="143" y="222" type="line"/>
      <point x="397" y="222" type="line" smooth="yes"/>
      <point x="558" y="222"/>
      <point x="618" y="286"/>
      <point x="618" y="410" type="curve" smooth="yes"/>
      <point x="618" y="533"/>
      <point x="566" y="600"/>
      <point x="397" y="600" type="curve" smooth="yes"/>
      <point x="70" y="600" type="line"/>
      <point x="79" y="599"/>
      <point x="91" y="582"/>
      <point x="91" y="540" type="curve" smooth="yes"/>
      <point x="91" y="60" type="line" smooth="yes"/>
      <point x="91" y="17"/>
      <point x="80" y="0"/>
    </contour>
    <contour>
      <point x="184" y="263" type="line" smooth="yes"/>
      <point x="143" y="263"/>
      <point x="143" y="264"/>
      <point x="143" y="291" type="curve" smooth="yes"/>
      <point x="143" y="533" type="line" smooth="yes"/>
      <point x="143" y="560"/>
      <point x="143" y="560"/>
      <point x="184" y="560" type="curve" smooth="yes"/>
      <point x="387" y="560" type="line" smooth="yes"/>
      <point x="518" y="560"/>
      <point x="565" y="512"/>
      <point x="565" y="410" type="curve" smooth="yes"/>
      <point x="565" y="313"/>
      <point x="521" y="263"/>
      <point x="387" y="263" type="curve" smooth="yes"/>
    </contour>
  </outline>
</glyph>
<glyph name="Q" format="2">
  <advance width="788"/>
  <unicode hex="0051"/>
  <outline>
    <contour>
      <point x="375" y="-10" type="curve" smooth="yes"/>
      <point x="406" y="-10" type="line" smooth="yes"/>
      <point x="635" y="-10"/>
      <point x="726" y="94"/>
      <point x="726" y="303" type="curve" smooth="yes"/>
      <point x="726" y="504"/>
      <point x="636" y="610"/>
      <point x="406" y="610" type="curve" smooth="yes"/>
      <point x="375" y="610" type="line" smooth="yes"/>
      <point x="140" y="610"/>
      <point x="50" y="503"/>
      <point x="50" y="303" type="curve" smooth="yes"/>
      <point x="50" y="95"/>
      <point x="141" y="-10"/>
    </contour>
    <contour>
      <point x="385" y="31" type="line" smooth="yes"/>
      <point x="209" y="31"/>
      <point x="104" y="90"/>
      <point x="104" y="303" type="curve" smooth="yes"/>
      <point x="104" y="503"/>
      <point x="207" y="570"/>
      <point x="385" y="570" type="curve" smooth="yes"/>
      <point x="396" y="570" type="line" smooth="yes"/>
      <point x="570" y="570"/>
      <point x="672" y="506"/>
      <point x="672" y="303" type="curve" smooth="yes"/>
      <point x="672" y="87"/>
      <point x="572" y="31"/>
      <point x="396" y="31" type="curve" smooth="yes"/>
    </contour>
    <contour>
      <point x="617" y="-182" type="curve" smooth="yes"/>
      <point x="728" y="-182"/>
      <point x="758" y="-82"/>
      <point x="758" y="-10" type="curve"/>
      <point x="697" y="-10" type="line"/>
      <point x="706" y="-16"/>
      <point x="717" y="-35"/>
      <point x="717" y="-61" type="curve" smooth="yes"/>
      <point x="717" y="-106"/>
      <point x="687" y="-142"/>
      <point x="638" y="-142" type="curve" smooth="yes"/>
      <point x="521" y="-142"/>
      <point x="505" y="20"/>
      <point x="352" y="20" type="curve" smooth="yes"/>
      <point x="277" y="20"/>
      <point x="242" y="-19"/>
      <point x="242" y="-70" type="curve"/>
      <point x="271" y="-70"/>
      <point x="294" y="-81"/>
      <point x="303" y="-90" type="curve"/>
      <point x="299" y="-80"/>
      <point x="293" y="-62"/>
      <point x="293" y="-49" type="curve" smooth="yes"/>
      <point x="293" y="-28"/>
      <point x="305" y="-10"/>
      <point x="342" y="-10" type="curve" smooth="yes"/>
      <point x="455" y="-10"/>
      <point x="483" y="-182"/>
    </contour>
  </outline>
</glyph>
<glyph name="R" format="2">
  <advance width="729"/>
  <unicode hex="0052"/>
  <anchor x="333" y="0" name="bottom"/>
  <anchor x="313" y="600" name="top"/>
  <outline>
    <contour>
      <point x="71" y="0" type="curve" smooth="yes"/>
      <point x="164" y="0" type="line" smooth="yes"/>
      <point x="155" y="0"/>
      <point x="143" y="17"/>
      <point x="143" y="60" type="curve" smooth="yes"/>
      <point x="143" y="212" type="line" smooth="yes"/>
      <point x="143" y="239"/>
      <point x="143" y="242"/>
      <point x="184" y="242" type="curve" smooth="yes"/>
      <point x="275" y="242" type="line" smooth="yes"/>
      <point x="444" y="242"/>
      <point x="526" y="166"/>
      <point x="588" y="55" type="curve" smooth="yes"/>
      <point x="611" y="15"/>
      <point x="605" y="0"/>
      <point x="594" y="0" type="curve" smooth="yes"/>
      <point x="714" y="0" type="line" smooth="yes"/>
      <point x="702" y="0"/>
      <point x="675" y="20"/>
      <point x="643" y="70" type="curve" smooth="yes"/>
      <point x="593" y="149"/>
      <point x="519" y="223"/>
      <point x="441" y="245" type="curve"/>
      <point x="441" y="249" type="line"/>
      <point x="533" y="260"/>
      <point x="617" y="308"/>
      <point x="617" y="421" type="curve" smooth="yes"/>
      <point x="617" y="538"/>
      <point x="562" y="600"/>
      <point x="377" y="600" type="curve" smooth="yes"/>
      <point x="70" y="600" type="line"/>
      <point x="79" y="599"/>
      <point x="91" y="582"/>
      <point x="91" y="540" type="curve" smooth="yes"/>
      <point x="91" y="60" type="line" smooth="yes"/>
      <point x="91" y="17"/>
      <point x="80" y="0"/>
    </contour>
    <contour>
      <point x="184" y="281" type="line" smooth="yes"/>
      <point x="143" y="281"/>
      <point x="143" y="281"/>
      <point x="143" y="308" type="curve" smooth="yes"/>
      <point x="143" y="534" type="line" smooth="yes"/>
      <point x="143" y="560"/>
      <point x="143" y="560"/>
      <point x="184" y="560" type="curve" smooth="yes"/>
      <point x="356" y="560" type="line" smooth="yes"/>
      <point x="528" y="560"/>
      <point x="564" y="506"/>
      <point x="564" y="421" type="curve" smooth="yes"/>
      <point x="564" y="328"/>
      <point x="496" y="281"/>
      <point x="366" y="281" type="curve" smooth="yes"/>
    </contour>
  </outline>
</glyph>
<glyph name="S" format="2">
  <advance width="665"/>
  <unicode hex="0053"/>
  <anchor x="348" y="0" name="bottom"/>
  <anchor x="328" y="600" name="top"/>
  <outline>
    <contour>
      <point x="323" y="-10" type="curve" smooth="yes"/>
      <point x="574" y="-10"/>
      <point x="625" y="68"/>
      <point x="625" y="157" type="curve" smooth="yes"/>
      <point x="625" y="260"/>
      <point x="571" y="304"/>
      <point x="353" y="329" type="curve" smooth="yes"/>
      <point x="166" y="351"/>
      <point x="101" y="381"/>
      <point x="101" y="462" type="curve" smooth="yes"/>
      <point x="101" y="525"/>
      <point x="157" y="570"/>
      <point x="317" y="570" type="curve" smooth="yes"/>
      <point x="460" y="570"/>
      <point x="552" y="536"/>
      <point x="582" y="510" type="curve"/>
      <point x="572" y="560" type="line"/>
      <point x="572" y="570" type="line"/>
      <point x="547" y="587"/>
      <point x="461" y="610"/>
      <point x="322" y="610" type="curve" smooth="yes"/>
      <point x="105" y="610"/>
      <point x="49" y="538"/>
      <point x="49" y="456" type="curve" smooth="yes"/>
      <point x="49" y="370"/>
      <point x="107" y="316"/>
      <point x="302" y="292" type="curve" smooth="yes"/>
      <point x="502" y="267"/>
      <point x="573" y="244"/>
      <point x="573" y="158" type="curve" smooth="yes"/>
      <point x="573" y="68"/>
      <point x="504" y="30"/>
      <point x="325" y="30" type="curve" smooth="yes"/>
      <point x="159" y="30"/>
      <point x="65" y="68"/>
      <point x="40" y="97" type="curve"/>
      <point x="50" y="40" type="line"/>
      <point x="50" y="30" type="line"/>
      <point x="84" y="13"/>
      <point x="181" y="-10"/>
    </contour>
  </outline>
</glyph>
<glyph name="T" format="2">
  <advance width="596"/>
  <unicode hex="0054"/>
  <anchor x="299" y="0" name="bottom"/>
  <anchor x="299" y="300" name="center"/>
  <anchor x="299" y="600" name="top"/>
  <outline>
    <contour>
      <point x="251" y="0" type="curve" smooth="yes"/>
      <point x="346" y="0" type="line" smooth="yes"/>
      <point x="337" y="0"/>
      <point x="325" y="17"/>
      <point x="325" y="60" type="curve" smooth="yes"/>
      <point x="325" y="530" type="line" smooth="yes"/>
      <point x="325" y="559"/>
      <point x="325" y="560"/>
      <point x="366" y="560" type="curve" smooth="yes"/>
      <point x="446" y="560" type="line" smooth="yes"/>
      <point x="523" y="560"/>
      <point x="571" y="551"/>
      <point x="586" y="544" type="curve"/>
      <point x="566" y="590" type="line"/>
      <point x="566" y="600" type="line"/>
      <point x="30" y="600" type="line"/>
      <point x="30" y="590" type="line"/>
      <point x="10" y="544" type="line"/>
      <point x="25" y="551"/>
      <point x="73" y="560"/>
      <point x="150" y="560" type="curve" smooth="yes"/>
      <point x="232" y="560" type="line" smooth="yes"/>
      <point x="272" y="560"/>
      <point x="272" y="559"/>
      <point x="272" y="530" type="curve" smooth="yes"/>
      <point x="272" y="60" type="line" smooth="yes"/>
      <point x="272" y="17"/>
      <point x="260" y="0"/>
    </contour>
  </outline>
</glyph>
<glyph name="U" format="2">
  <advance width="695"/>
  <unicode hex="0055"/>
  <anchor x="348" y="0" name="bottom"/>
  <anchor x="451" y="1" name="ogonek"/>
  <anchor x="347" y="600" name="top"/>
  <anchor x="685" y="600" name="topright"/>
  <outline>
    <contour>
      <point x="343" y="-10" type="curve" smooth="yes"/>
      <point x="353" y="-10" type="line" smooth="yes"/>
      <point x="552" y="-10"/>
      <point x="625" y="75"/>
      <point x="625" y="259" type="curve" smooth="yes"/>
      <point x="625" y="540" type="line" smooth="yes"/>
      <point x="625" y="582"/>
      <point x="636" y="599"/>
      <point x="645" y="600" type="curve"/>
      <point x="551" y="600" type="line" smooth="yes"/>
      <point x="560" y="600"/>
      <point x="571" y="583"/>
      <point x="571" y="541" type="curve" smooth="yes"/>
      <point x="571" y="261" type="line" smooth="yes"/>
      <point x="571" y="66"/>
      <point x="482" y="31"/>
      <point x="355" y="31" type="curve" smooth="yes"/>
      <point x="344" y="31" type="line" smooth="yes"/>
      <point x="209" y="31"/>
      <point x="124" y="68"/>
      <point x="124" y="261" type="curve" smooth="yes"/>
      <point x="124" y="541" type="line" smooth="yes"/>
      <point x="124" y="583"/>
      <point x="135" y="599"/>
      <point x="144" y="600" type="curve"/>
      <point x="50" y="600" type="line" smooth="yes"/>
      <point x="59" y="600"/>
      <point x="70" y="584"/>
      <point x="70" y="541" type="curve" smooth="yes"/>
      <point x="70" y="259" type="line" smooth="yes"/>
      <point x="70" y="75"/>
      <point x="140" y="-10"/>
    </contour>
  </outline>
</glyph>
<glyph name="V" format="2">
  <advance width="695"/>
  <unicode hex="0056"/>
  <outline>
    <contour>
      <point x="299" y="0" type="curve" smooth="yes"/>
      <point x="398" y="0" type="line" smooth="yes"/>
      <point x="391" y="0"/>
      <point x="386" y="17"/>
      <point x="398" y="61" type="curve" smooth="yes"/>
      <point x="414" y="121"/>
      <point x="609" y="483"/>
      <point x="638" y="541" type="curve" smooth="yes"/>
      <point x="659" y="583"/>
      <point x="677" y="600"/>
      <point x="685" y="600" type="curve" smooth="yes"/>
      <point x="579" y="600" type="line"/>
      <point x="590" y="598"/>
      <point x="597" y="581"/>
      <point x="579" y="540" type="curve" smooth="yes"/>
      <point x="560" y="497"/>
      <point x="437" y="247"/>
      <point x="350" y="70" type="curve"/>
      <point x="349" y="70" type="line"/>
      <point x="263" y="245"/>
      <point x="142" y="494"/>
      <point x="121" y="538" type="curve" smooth="yes"/>
      <point x="101" y="580"/>
      <point x="109" y="598"/>
      <point x="121" y="600" type="curve"/>
      <point x="10" y="600" type="line"/>
      <point x="18" y="599"/>
      <point x="38" y="581"/>
      <point x="61" y="538" type="curve" smooth="yes"/>
      <point x="94" y="477"/>
      <point x="284" y="104"/>
      <point x="299" y="61" type="curve" smooth="yes"/>
      <point x="315" y="17"/>
      <point x="308" y="0"/>
    </contour>
  </outline>
</glyph>
<glyph name="X" format="2">
  <advance width="680"/>
  <unicode hex="0058"/>
  <outline>
    <contour>
      <point x="10" y="0" type="curve"/>
      <point x="128" y="0" type="line" smooth="yes"/>
      <point x="114" y="0"/>
      <point x="110" y="16"/>
      <point x="149" y="60" type="curve" smooth="yes"/>
      <point x="195" y="112"/>
      <point x="329" y="258"/>
      <point x="340" y="273" type="curve"/>
      <point x="342" y="273" type="line"/>
      <point x="354" y="257"/>
      <point x="497" y="106"/>
      <point x="535" y="62" type="curve" smooth="yes"/>
      <point x="573" y="18"/>
      <point x="569" y="1"/>
      <point x="556" y="0" type="curve"/>
      <point x="670" y="0" type="line"/>
      <point x="661" y="2"/>
      <point x="635" y="20"/>
      <point x="598" y="62" type="curve" smooth="yes"/>
      <point x="562" y="104"/>
      <point x="453" y="223"/>
      <point x="381" y="301" type="curve"/>
      <point x="454" y="378"/>
      <point x="565" y="496"/>
      <point x="603" y="541" type="curve" smooth="yes"/>
      <point x="639" y="583"/>
      <point x="662" y="600"/>
      <point x="670" y="600" type="curve" smooth="yes"/>
      <point x="552" y="600" type="line"/>
      <point x="564" y="599"/>
      <point x="566" y="582"/>
      <point x="531" y="540" type="curve" smooth="yes"/>
      <point x="487" y="488"/>
      <point x="354" y="338"/>
      <point x="343" y="323" type="curve"/>
      <point x="341" y="323" type="line"/>
      <point x="329" y="339"/>
      <point x="195" y="493"/>
      <point x="156" y="538" type="curve" smooth="yes"/>
      <point x="118" y="582"/>
      <point x="122" y="599"/>
      <point x="135" y="600" type="curve"/>
      <point x="10" y="600" type="line"/>
      <point x="17" y="599"/>
      <point x="42" y="582"/>
      <point x="82" y="538" type="curve" smooth="yes"/>
      <point x="155" y="459"/>
      <point x="228" y="380"/>
      <point x="301" y="301" type="curve"/>
      <point x="228" y="223"/>
      <point x="116" y="103"/>
      <point x="77" y="59" type="curve" smooth="yes"/>
      <point x="39" y="17"/>
      <point x="16" y="1"/>
    </contour>
  </outline>
</glyph>
<glyph name="Y" format="2">
  <advance width="670"/>
  <unicode hex="0059"/>
  <anchor x="336" y="0" name="bottom"/>
  <anchor x="336" y="600" name="top"/>
  <anchor x="15" y="600" name="topleft"/>
  <outline>
    <contour>
      <point x="284" y="0" type="curve" smooth="yes"/>
      <point x="384" y="0" type="line" smooth="yes"/>
      <point x="375" y="0"/>
      <point x="364" y="16"/>
      <point x="364" y="60" type="curve" smooth="yes"/>
      <point x="364" y="287" type="line"/>
      <point x="442" y="370"/>
      <point x="560" y="496"/>
      <point x="598" y="541" type="curve" smooth="yes"/>
      <point x="633" y="582"/>
      <point x="657" y="599"/>
      <point x="665" y="600" type="curve"/>
      <point x="547" y="600" type="line" smooth="yes"/>
      <point x="559" y="600"/>
      <point x="562" y="583"/>
      <point x="527" y="540" type="curve" smooth="yes"/>
      <point x="490" y="494"/>
      <point x="397" y="389"/>
      <point x="337" y="322" type="curve"/>
      <point x="336" y="322" type="line"/>
      <point x="275" y="394"/>
      <point x="183" y="503"/>
      <point x="150" y="538" type="curve" smooth="yes"/>
      <point x="111" y="580"/>
      <point x="115" y="598"/>
      <point x="130" y="600" type="curve"/>
      <point x="5" y="600" type="line" smooth="yes"/>
      <point x="12" y="600"/>
      <point x="37" y="583"/>
      <point x="77" y="538" type="curve" smooth="yes"/>
      <point x="114" y="496"/>
      <point x="231" y="370"/>
      <point x="309" y="287" type="curve"/>
      <point x="309" y="60" type="line" smooth="yes"/>
      <point x="309" y="16"/>
      <point x="295" y="0"/>
    </contour>
  </outline>
</glyph>
<glyph name="Z" format="2">
  <advance width="676"/>
  <unicode hex="005A"/>
  <anchor x="343" y="0" name="bottom"/>
  <anchor x="343" y="600" name="top"/>
  <outline>
    <contour>
      <point x="10" y="0" type="curve"/>
      <point x="646" y="0" type="line"/>
      <point x="646" y="11" type="line"/>
      <point x="666" y="72" type="line"/>
      <point x="653" y="59"/>
      <point x="609" y="41"/>
      <point x="536" y="41" type="curve" smooth="yes"/>
      <point x="110" y="41" type="line"/>
      <point x="110" y="44" type="line"/>
      <point x="256" y="195"/>
      <point x="488" y="435"/>
      <point x="592" y="544" type="curve" smooth="yes"/>
      <point x="617" y="570"/>
      <point x="632" y="591"/>
      <point x="636" y="600" type="curve"/>
      <point x="40" y="600" type="line"/>
      <point x="40" y="518" type="line"/>
      <point x="45" y="535"/>
      <point x="83" y="558"/>
      <point x="170" y="558" type="curve" smooth="yes"/>
      <point x="527" y="558" type="line"/>
      <point x="527" y="556" type="line"/>
      <point x="372" y="393"/>
      <point x="135" y="144"/>
      <point x="50" y="58" type="curve" smooth="yes"/>
      <point x="22" y="30"/>
      <point x="10" y="8"/>
    </contour>
  </outline>
</glyph>
<glyph name="bracketleft" format="2">
  <advance width="190"/>
  <unicode hex="005B"/>
  <outline>
    <contour>
      <point x="150" y="-80" type="curve"/>
      <point x="30" y="-80" type="line" smooth="yes"/>
      <point x="34" y="-80"/>
      <point x="40" y="-63"/>
      <point x="40" y="-20" type="curve" smooth="yes"/>
      <point x="40" y="628" type="line" smooth="yes"/>
      <point x="40" y="672"/>
      <point x="34" y="689"/>
      <point x="30" y="689" type="curve" smooth="yes"/>
      <point x="150" y="689" type="line"/>
      <point x="150" y="673"/>
      <point x="156" y="657"/>
      <point x="160" y="649" type="curve"/>
      <point x="79" y="659" type="line"/>
      <point x="79" y="-50" type="line"/>
      <point x="160" y="-40" type="line"/>
      <point x="156" y="-48"/>
      <point x="150" y="-64"/>
    </contour>
  </outline>
</glyph>
<glyph name="backslash" format="2">
  <advance width="405"/>
  <unicode hex="005C"/>
  <outline>
    <contour>
      <point x="355" y="-60" type="line"/>
      <point x="315" y="-60" type="line"/>
      <point x="50" y="688" type="line"/>
      <point x="91" y="688" type="line"/>
    </contour>
  </outline>
</glyph>
<glyph name="bracketright" format="2">
  <advance width="190"/>
  <unicode hex="005D"/>
  <outline>
    <contour>
      <point x="40" y="-80" type="curve"/>
      <point x="160" y="-80" type="line" smooth="yes"/>
      <point x="156" y="-80"/>
      <point x="150" y="-63"/>
      <point x="150" y="-20" type="curve" smooth="yes"/>
      <point x="150" y="628" type="line" smooth="yes"/>
      <point x="150" y="672"/>
      <point x="156" y="689"/>
      <point x="160" y="689" type="curve" smooth="yes"/>
      <point x="40" y="689" type="line"/>
      <point x="40" y="673"/>
      <point x="34" y="657"/>
      <point x="30" y="649" type="curve"/>
      <point x="111" y="659" type="line"/>
      <point x="111" y="-50" type="line"/>
      <point x="30" y="-40" type="line"/>
      <point x="34" y="-48"/>
      <point x="40" y="-64"/>
    </contour>
  </outline>
</glyph>
<glyph name="asciicircum" format="2">
  <advance width="382"/>
  <unicode hex="005E"/>
  <outline>
    <contour>
      <point x="40" y="341" type="curve"/>
      <point x="90" y="341" type="line"/>
      <point x="194" y="519" type="line"/>
      <point x="292" y="341" type="line"/>
      <point x="342" y="341" type="line"/>
      <point x="293" y="427"/>
      <point x="225" y="545"/>
      <point x="217" y="560" type="curve" smooth="yes"/>
      <point x="210" y="574"/>
      <point x="211" y="580"/>
      <point x="214" y="581" type="curve"/>
      <point x="174" y="581" type="line" smooth="yes"/>
      <point x="177" y="581"/>
      <point x="177" y="575"/>
      <point x="170" y="560" type="curve" smooth="yes"/>
      <point x="164" y="548"/>
      <point x="92" y="428"/>
    </contour>
  </outline>
</glyph>
<glyph name="underscore" format="2">
  <advance width="520"/>
  <unicode hex="005F"/>
  <outline>
    <contour>
      <point x="20" y="-100" type="line"/>
      <point x="500" y="-100" type="line"/>
      <point x="500" y="-60" type="line"/>
      <point x="20" y="-60" type="line"/>
    </contour>
  </outline>
</glyph>
<glyph name="b" format="2">
  <advance width="614"/>
  <unicode hex="0062"/>
  <outline>
    <contour>
      <point x="326" y="-10" type="curve" smooth="yes"/>
      <point x="506" y="-10"/>
      <point x="574" y="86"/>
      <point x="574" y="233" type="curve" smooth="yes"/>
      <point x="574" y="372"/>
      <point x="511" y="478"/>
      <point x="326" y="478" type="curve" smooth="yes"/>
      <point x="200" y="478"/>
      <point x="143" y="421"/>
      <point x="118" y="389" type="curve"/>
      <point x="116" y="390" type="line"/>
      <point x="118" y="409" type="line"/>
      <point x="118" y="690" type="line"/>
      <point x="48" y="690" type="line"/>
      <point x="57" y="689"/>
      <point x="68" y="672"/>
      <point x="68" y="630" type="curve" smooth="yes"/>
      <point x="68" y="60" type="line" smooth="yes"/>
      <point x="68" y="17"/>
      <point x="57" y="0"/>
      <point x="48" y="0" type="curve" smooth="yes"/>
      <point x="118" y="0" type="line"/>
      <point x="118" y="57" type="line"/>
      <point x="116" y="76" type="line"/>
      <point x="118" y="77" type="line"/>
      <point x="154" y="26"/>
      <point x="219" y="-10"/>
    </contour>
    <contour>
      <point x="316" y="30" type="curve" smooth="yes"/>
      <point x="194" y="30"/>
      <point x="118" y="98"/>
      <point x="118" y="232" type="curve" smooth="yes"/>
      <point x="118" y="360"/>
      <point x="181" y="438"/>
      <point x="316" y="438" type="curve" smooth="yes"/>
      <point x="455" y="438"/>
      <point x="522" y="375"/>
      <point x="522" y="233" type="curve" smooth="yes"/>
      <point x="522" y="96"/>
      <point x="459" y="30"/>
    </contour>
  </outline>
</glyph>
<glyph name="c" format="2">
  <advance width="565"/>
  <unicode hex="0063"/>
  <anchor x="318" y="0" name="bottom"/>
  <anchor x="288" y="468" name="top"/>
  <outline>
    <contour>
      <point x="301" y="-10" type="curve" smooth="yes"/>
      <point x="413" y="-10"/>
      <point x="495" y="23"/>
      <point x="525" y="48" type="curve"/>
      <point x="515" y="86" type="line"/>
      <point x="515" y="96" type="line"/>
      <point x="489" y="68"/>
      <point x="417" y="30"/>
      <point x="315" y="30" type="curve" smooth="yes"/>
      <point x="181" y="30"/>
      <point x="91" y="95"/>
      <point x="91" y="232" type="curve" smooth="yes"/>
      <point x="91" y="372"/>
      <point x="168" y="437"/>
      <point x="298" y="437" type="curve" smooth="yes"/>
      <point x="413" y="437"/>
      <point x="490" y="405"/>
      <point x="515" y="381" type="curve"/>
      <point x="505" y="428" type="line"/>
      <point x="505" y="438" type="line"/>
      <point x="478" y="455"/>
      <point x="402" y="477"/>
      <point x="291" y="477" type="curve" smooth="yes"/>
      <point x="128" y="477"/>
      <point x="40" y="396"/>
      <point x="40" y="233" type="curve" smooth="yes"/>
      <point x="40" y="95"/>
      <point x="106" y="-10"/>
    </contour>
  </outline>
</glyph>
<glyph name="d" format="2">
  <advance width="616"/>
  <unicode hex="0064"/>
  <anchor x="328" y="0" name="bottom"/>
  <anchor x="458" y="564" name="center"/>
  <anchor x="268" y="468" name="top"/>
  <anchor x="585" y="468" name="topright"/>
  <outline>
    <contour>
      <point x="281" y="-10" type="curve" smooth="yes"/>
      <point x="420" y="-10"/>
      <point x="463" y="48"/>
      <point x="494" y="83" type="curve"/>
      <point x="497" y="82" type="line"/>
      <point x="494" y="63" type="line"/>
      <point x="494" y="0" type="line"/>
      <point x="566" y="0" type="line" smooth="yes"/>
      <point x="557" y="0"/>
      <point x="546" y="17"/>
      <point x="546" y="60" type="curve" smooth="yes"/>
      <point x="546" y="690" type="line"/>
      <point x="474" y="690" type="line"/>
      <point x="483" y="689"/>
      <point x="494" y="672"/>
      <point x="494" y="630" type="curve" smooth="yes"/>
      <point x="494" y="409" type="line"/>
      <point x="496" y="390" type="line"/>
      <point x="494" y="389" type="line"/>
      <point x="472" y="418"/>
      <point x="409" y="478"/>
      <point x="281" y="478" type="curve" smooth="yes"/>
      <point x="96" y="478"/>
      <point x="40" y="372"/>
      <point x="40" y="233" type="curve" smooth="yes"/>
      <point x="40" y="94"/>
      <point x="91" y="-10"/>
    </contour>
    <contour>
      <point x="288" y="30" type="curve" smooth="yes"/>
      <point x="153" y="30"/>
      <point x="91" y="98"/>
      <point x="91" y="232" type="curve" smooth="yes"/>
      <point x="91" y="376"/>
      <point x="157" y="438"/>
      <point x="288" y="438" type="curve" smooth="yes"/>
      <point x="430" y="438"/>
      <point x="494" y="351"/>
      <point x="494" y="233" type="curve" smooth="yes"/>
      <point x="494" y="122"/>
      <point x="431" y="30"/>
    </contour>
  </outline>
</glyph>
<glyph name="f" format="2">
  <advance width="383"/>
  <unicode hex="0066"/>
  <outline>
    <contour>
      <point x="70.206" y="0" type="curve" smooth="yes"/>
      <point x="162" y="0" type="line" smooth="yes"/>
      <point x="153" y="0"/>
      <point x="142" y="17"/>
      <point x="142" y="60" type="curve" smooth="yes"/>
      <point x="142.182" y="428.002" type="line"/>
      <point x="353" y="428.002" type="line"/>
      <point x="353" y="456"/>
      <point x="364" y="467"/>
      <point x="373" y="468.002" type="curve"/>
      <point x="163" y="468.002" type="line" smooth="yes"/>
      <point x="131.797" y="468.002"/>
      <point x="131.794" y="469.002"/>
      <point x="131.794" y="498.002" type="curve" smooth="yes"/>
      <point x="131.794" y="560.002" type="line" smooth="yes"/>
      <point x="131.794" y="639.669"/>
      <point x="163.548" y="679.002"/>
      <point x="243" y="679.002" type="curve" smooth="yes"/>
      <point x="321" y="679"/>
      <point x="386" y="662"/>
      <point x="413" y="650.002" type="curve"/>
      <point x="393" y="689.002" type="line"/>
      <point x="393" y="700.002" type="line"/>
      <point x="371" y="709"/>
      <point x="318" y="720"/>
      <point x="250.206" y="720.002" type="curve" smooth="yes"/>
      <point x="143.872" y="720.002"/>
      <point x="80" y="676.002"/>
      <point x="80" y="571.002" type="curve" smooth="yes"/>
      <point x="80" y="519.336"/>
      <point x="99" y="475"/>
      <point x="100" y="470" type="curve"/>
      <point x="99" y="468" type="line"/>
      <point x="0" y="468.002" type="line"/>
      <point x="0" y="428.002" type="line"/>
      <point x="90.206" y="428.002" type="line"/>
      <point x="90.206" y="60" type="line" smooth="yes"/>
      <point x="90" y="17"/>
      <point x="79" y="0"/>
    </contour>
  </outline>
</glyph>
<glyph name="g" format="2">
  <advance width="616"/>
  <unicode hex="0067"/>
  <anchor x="308" y="0" name="bottom"/>
  <anchor x="308" y="468" name="top"/>
  <outline>
    <contour>
      <point x="295" y="-244" type="curve" smooth="yes"/>
      <point x="471" y="-244"/>
      <point x="546" y="-160"/>
      <point x="546" y="-7" type="curve" smooth="yes"/>
      <point x="546" y="406" type="line" smooth="yes"/>
      <point x="546" y="450"/>
      <point x="557" y="467"/>
      <point x="566" y="468" type="curve"/>
      <point x="494" y="468" type="line"/>
      <point x="494" y="409" type="line"/>
      <point x="496" y="390" type="line"/>
      <point x="494" y="389" type="line"/>
      <point x="476" y="414"/>
      <point x="417" y="478"/>
      <point x="281" y="478" type="curve" smooth="yes"/>
      <point x="101" y="478"/>
      <point x="40" y="372"/>
      <point x="40" y="233" type="curve" smooth="yes"/>
      <point x="40" y="94"/>
      <point x="91" y="-10"/>
      <point x="281" y="-10" type="curve" smooth="yes"/>
      <point x="418" y="-10"/>
      <point x="471" y="50"/>
      <point x="494" y="86" type="curve"/>
      <point x="496" y="84" type="line"/>
      <point x="494" y="66" type="line"/>
      <point x="494" y="8" type="line" smooth="yes"/>
      <point x="494" y="-130"/>
      <point x="443" y="-204"/>
      <point x="291" y="-204" type="curve" smooth="yes"/>
      <point x="176" y="-204"/>
      <point x="92" y="-156"/>
      <point x="60" y="-120" type="curve"/>
      <point x="60" y="-129" type="line"/>
      <point x="50" y="-184" type="line"/>
      <point x="74" y="-201"/>
      <point x="141" y="-244"/>
    </contour>
    <contour>
      <point x="288" y="30" type="curve" smooth="yes"/>
      <point x="135" y="30"/>
      <point x="91" y="114"/>
      <point x="91" y="232" type="curve" smooth="yes"/>
      <point x="91" y="355"/>
      <point x="136" y="438"/>
      <point x="288" y="438" type="curve" smooth="yes"/>
      <point x="430" y="438"/>
      <point x="494" y="351"/>
      <point x="494" y="233" type="curve" smooth="yes"/>
      <point x="494" y="110"/>
      <point x="423" y="30"/>
    </contour>
  </outline>
</glyph>
<glyph name="h" format="2">
  <advance width="603"/>
  <unicode hex="0068"/>
  <anchor x="300" y="0" name="bottom"/>
  <anchor x="160" y="564" name="center"/>
  <anchor x="100" y="668" name="top"/>
  <outline>
    <contour>
      <point x="48" y="0" type="curve" smooth="yes"/>
      <point x="140" y="0" type="line" smooth="yes"/>
      <point x="131" y="0"/>
      <point x="120" y="17"/>
      <point x="120" y="60" type="curve" smooth="yes"/>
      <point x="120" y="227" type="line" smooth="yes"/>
      <point x="120" y="352"/>
      <point x="208" y="438"/>
      <point x="321" y="438" type="curve" smooth="yes"/>
      <point x="425" y="438"/>
      <point x="489" y="395"/>
      <point x="489" y="256" type="curve" smooth="yes"/>
      <point x="489" y="60" type="line" smooth="yes"/>
      <point x="489" y="17"/>
      <point x="478" y="0"/>
      <point x="469" y="0" type="curve" smooth="yes"/>
      <point x="561" y="0" type="line" smooth="yes"/>
      <point x="552" y="0"/>
      <point x="541" y="17"/>
      <point x="541" y="60" type="curve" smooth="yes"/>
      <point x="541" y="259" type="line" smooth="yes"/>
      <point x="541" y="412"/>
      <point x="466" y="478"/>
      <point x="339" y="478" type="curve" smooth="yes"/>
      <point x="216" y="478"/>
      <point x="148" y="418"/>
      <point x="120" y="371" type="curve"/>
      <point x="118" y="373" type="line"/>
      <point x="120" y="386" type="line"/>
      <point x="120" y="690" type="line"/>
      <point x="48" y="690" type="line"/>
      <point x="57" y="689"/>
      <point x="68" y="672"/>
      <point x="68" y="630" type="curve" smooth="yes"/>
      <point x="68" y="60" type="line" smooth="yes"/>
      <point x="68" y="17"/>
      <point x="57" y="0"/>
    </contour>
  </outline>
</glyph>
<glyph name="j" format="2">
  <advance width="182"/>
  <unicode hex="006A"/>
  <outline>
    <contour>
      <point x="-12" y="-244" type="curve" smooth="yes"/>
      <point x="73" y="-244"/>
      <point x="118" y="-189"/>
      <point x="118" y="-69" type="curve" smooth="yes"/>
      <point x="118" y="468" type="line"/>
      <point x="48" y="468" type="line"/>
      <point x="57" y="467"/>
      <point x="68" y="450"/>
      <point x="68" y="408" type="curve" smooth="yes"/>
      <point x="68" y="-75" type="line" smooth="yes"/>
      <point x="68" y="-163"/>
      <point x="43" y="-205"/>
      <point x="-10" y="-205" type="curve" smooth="yes"/>
      <point x="-49" y="-205"/>
      <point x="-80" y="-182"/>
      <point x="-92" y="-164" type="curve"/>
      <point x="-92" y="-174" type="line"/>
      <point x="-102" y="-224" type="line"/>
      <point x="-94" y="-233"/>
      <point x="-65" y="-244"/>
    </contour>
    <contour>
      <point x="92" y="579" type="curve" smooth="yes"/>
      <point x="121" y="579"/>
      <point x="137" y="597"/>
      <point x="137" y="619" type="curve" smooth="yes"/>
      <point x="137" y="641"/>
      <point x="121" y="659"/>
      <point x="92" y="659" type="curve" smooth="yes"/>
      <point x="63" y="659"/>
      <point x="48" y="641"/>
      <point x="48" y="619" type="curve" smooth="yes"/>
      <point x="48" y="597"/>
      <point x="64" y="579"/>
    </contour>
  </outline>
</glyph>
<glyph name="l" format="2">
  <advance width="192"/>
  <unicode hex="006C"/>
  <anchor x="101" y="0" name="bottom"/>
  <anchor x="97" y="364" name="center"/>
  <anchor x="101" y="668" name="top"/>
  <anchor x="212" y="468" name="topright"/>
  <outline>
    <contour>
      <point x="50" y="0" type="curve" smooth="yes"/>
      <point x="142" y="0" type="line" smooth="yes"/>
      <point x="133" y="0"/>
      <point x="122" y="17"/>
      <point x="122" y="60" type="curve" smooth="yes"/>
      <point x="122" y="710" type="line"/>
      <point x="115" y="701"/>
      <point x="90" y="690"/>
      <point x="50" y="690" type="curve"/>
      <point x="59" y="689"/>
      <point x="70" y="672"/>
      <point x="70" y="630" type="curve" smooth="yes"/>
      <point x="70" y="60" type="line" smooth="yes"/>
      <point x="70" y="17"/>
      <point x="59" y="0"/>
    </contour>
  </outline>
</glyph>
<glyph name="m" format="2">
  <advance width="933"/>
  <unicode hex="006D"/>
  <outline>
    <contour>
      <point x="48" y="0" type="curve" smooth="yes"/>
      <point x="140" y="0" type="line" smooth="yes"/>
      <point x="131" y="0"/>
      <point x="120" y="17"/>
      <point x="120" y="60" type="curve" smooth="yes"/>
      <point x="120" y="227" type="line" smooth="yes"/>
      <point x="120" y="357"/>
      <point x="212" y="438"/>
      <point x="311" y="438" type="curve" smooth="yes"/>
      <point x="407" y="438"/>
      <point x="449" y="387"/>
      <point x="449" y="256" type="curve" smooth="yes"/>
      <point x="449" y="60" type="line" smooth="yes"/>
      <point x="449" y="17"/>
      <point x="438" y="0"/>
      <point x="429" y="0" type="curve" smooth="yes"/>
      <point x="521" y="0" type="line" smooth="yes"/>
      <point x="512" y="0"/>
      <point x="501" y="17"/>
      <point x="501" y="60" type="curve" smooth="yes"/>
      <point x="501" y="259" type="line" smooth="yes"/>
      <point x="501" y="399"/>
      <point x="453" y="478"/>
      <point x="329" y="478" type="curve" smooth="yes"/>
      <point x="221" y="478"/>
      <point x="150" y="421"/>
      <point x="120" y="371" type="curve"/>
      <point x="118" y="373" type="line"/>
      <point x="120" y="386" type="line"/>
      <point x="120" y="478" type="line"/>
      <point x="114" y="469"/>
      <point x="90" y="458"/>
      <point x="48" y="458" type="curve"/>
      <point x="57" y="457"/>
      <point x="68" y="440"/>
      <point x="68" y="398" type="curve" smooth="yes"/>
      <point x="68" y="60" type="line" smooth="yes"/>
      <point x="68" y="17"/>
      <point x="57" y="0"/>
    </contour>
    <contour>
      <point x="799" y="0" type="curve" smooth="yes"/>
      <point x="891" y="0" type="line" smooth="yes"/>
      <point x="882" y="0"/>
      <point x="871" y="17"/>
      <point x="871" y="60" type="curve" smooth="yes"/>
      <point x="871" y="259" type="line" smooth="yes"/>
      <point x="871" y="410"/>
      <point x="804" y="478"/>
      <point x="669" y="478" type="curve" smooth="yes"/>
      <point x="524" y="478"/>
      <point x="470" y="385"/>
      <point x="460" y="308" type="curve"/>
      <point x="501" y="248" type="line"/>
      <point x="501" y="364"/>
      <point x="560" y="438"/>
      <point x="661" y="438" type="curve" smooth="yes"/>
      <point x="738" y="438"/>
      <point x="819" y="398"/>
      <point x="819" y="256" type="curve" smooth="yes"/>
      <point x="819" y="60" type="line" smooth="yes"/>
      <point x="819" y="17"/>
      <point x="808" y="0"/>
    </contour>
  </outline>
</glyph>
<glyph name="o" format="2">
  <advance width="596"/>
  <unicode hex="006F"/>
  <anchor x="298" y="0" name="bottom"/>
  <anchor x="298" y="234" name="center"/>
  <anchor x="393" y="10" name="ogonek"/>
  <anchor x="298" y="468" name="top"/>
  <anchor x="586" y="398" name="topright"/>
  <outline>
    <contour>
      <point x="298" y="-10" type="curve" smooth="yes"/>
      <point x="491" y="-10"/>
      <point x="556" y="94"/>
      <point x="556" y="233" type="curve" smooth="yes"/>
      <point x="556" y="372"/>
      <point x="496" y="478"/>
      <point x="298" y="478" type="curve" smooth="yes"/>
      <point x="100" y="478"/>
      <point x="40" y="372"/>
      <point x="40" y="233" type="curve" smooth="yes"/>
      <point x="40" y="94"/>
      <point x="97" y="-10"/>
    </contour>
    <contour>
      <point x="298" y="30" type="curve" smooth="yes"/>
      <point x="161" y="30"/>
      <point x="92" y="88"/>
      <point x="92" y="232" type="curve" smooth="yes"/>
      <point x="92" y="376"/>
      <point x="162" y="438"/>
      <point x="298" y="438" type="curve" smooth="yes"/>
      <point x="434" y="438"/>
      <point x="504" y="380"/>
      <point x="504" y="233" type="curve" smooth="yes"/>
      <point x="504" y="86"/>
      <point x="435" y="30"/>
    </contour>
  </outline>
</glyph>
<glyph name="p" format="2">
  <advance width="614"/>
  <unicode hex="0070"/>
  <outline>
    <contour>
      <point x="48" y="-222" type="curve" smooth="yes"/>
      <point x="139" y="-222" type="line" smooth="yes"/>
      <point x="130" y="-222"/>
      <point x="118" y="-205"/>
      <point x="118" y="-162" type="curve" smooth="yes"/>
      <point x="118" y="57" type="line"/>
      <point x="116" y="76" type="line"/>
      <point x="118" y="77" type="line"/>
      <point x="154" y="26"/>
      <point x="211" y="-10"/>
      <point x="326" y="-10" type="curve" smooth="yes"/>
      <point x="508" y="-10"/>
      <point x="574" y="94"/>
      <point x="574" y="233" type="curve" smooth="yes"/>
      <point x="574" y="372"/>
      <point x="508" y="478"/>
      <point x="326" y="478" type="curve" smooth="yes"/>
      <point x="204" y="478"/>
      <point x="155" y="433"/>
      <point x="118" y="389" type="curve"/>
      <point x="116" y="391" type="line"/>
      <point x="118" y="410" type="line"/>
      <point x="118" y="468" type="line"/>
      <point x="48" y="468" type="line"/>
      <point x="57" y="467"/>
      <point x="68" y="450"/>
      <point x="68" y="408" type="curve" smooth="yes"/>
      <point x="68" y="-162" type="line" smooth="yes"/>
      <point x="68" y="-205"/>
      <point x="57" y="-222"/>
    </contour>
    <contour>
      <point x="316" y="30" type="curve" smooth="yes"/>
      <point x="184" y="30"/>
      <point x="118" y="106"/>
      <point x="118" y="232" type="curve" smooth="yes"/>
      <point x="118" y="355"/>
      <point x="190" y="438"/>
      <point x="316" y="438" type="curve" smooth="yes"/>
      <point x="455" y="438"/>
      <point x="522" y="370"/>
      <point x="522" y="233" type="curve" smooth="yes"/>
      <point x="522" y="96"/>
      <point x="456" y="30"/>
    </contour>
  </outline>
</glyph>
<glyph name="q" format="2">
  <advance width="617"/>
  <unicode hex="0071"/>
  <outline>
    <contour>
      <point x="484" y="-244" type="curve"/>
      <point x="494" y="-235"/>
      <point x="523" y="-224"/>
      <point x="565" y="-224" type="curve" smooth="yes"/>
      <point x="557" y="-224"/>
      <point x="546" y="-207"/>
      <point x="546" y="-164" type="curve" smooth="yes"/>
      <point x="546" y="406" type="line" smooth="yes"/>
      <point x="546" y="450"/>
      <point x="558" y="467"/>
      <point x="567" y="468" type="curve"/>
      <point x="494" y="468" type="line"/>
      <point x="494" y="409" type="line"/>
      <point x="496" y="390" type="line"/>
      <point x="494" y="389" type="line"/>
      <point x="471" y="417"/>
      <point x="415" y="478"/>
      <point x="281" y="478" type="curve" smooth="yes"/>
      <point x="102" y="478"/>
      <point x="40" y="372"/>
      <point x="40" y="233" type="curve" smooth="yes"/>
      <point x="40" y="94"/>
      <point x="91" y="-10"/>
      <point x="281" y="-10" type="curve" smooth="yes"/>
      <point x="423" y="-10"/>
      <point x="477" y="58"/>
      <point x="494" y="83" type="curve"/>
      <point x="496" y="82" type="line"/>
      <point x="494" y="63" type="line"/>
      <point x="494" y="-164" type="line" smooth="yes"/>
      <point x="494" y="-205"/>
      <point x="488" y="-234"/>
    </contour>
    <contour>
      <point x="288" y="30" type="curve" smooth="yes"/>
      <point x="159" y="30"/>
      <point x="91" y="96"/>
      <point x="91" y="232" type="curve" smooth="yes"/>
      <point x="91" y="366"/>
      <point x="152" y="438"/>
      <point x="288" y="438" type="curve" smooth="yes"/>
      <point x="443" y="438"/>
      <point x="494" y="332"/>
      <point x="494" y="233" type="curve" smooth="yes"/>
      <point x="494" y="114"/>
      <point x="425" y="30"/>
    </contour>
  </outline>
</glyph>
<glyph name="r" format="2">
  <advance width="451"/>
  <unicode hex="0072"/>
  <anchor x="226" y="0" name="bottom"/>
  <anchor x="266" y="468" name="top"/>
  <outline>
    <contour>
      <point x="48" y="0" type="curve" smooth="yes"/>
      <point x="140" y="0" type="line" smooth="yes"/>
      <point x="131" y="0"/>
      <point x="120" y="17"/>
      <point x="120" y="60" type="curve" smooth="yes"/>
      <point x="120" y="260" type="line" smooth="yes"/>
      <point x="120" y="367"/>
      <point x="174" y="438"/>
      <point x="272" y="438" type="curve" smooth="yes"/>
      <point x="352" y="438"/>
      <point x="404" y="401"/>
      <point x="421" y="373" type="curve"/>
      <point x="421" y="383" type="line"/>
      <point x="431" y="437" type="line"/>
      <point x="409" y="455"/>
      <point x="352" y="478"/>
      <point x="280" y="478" type="curve" smooth="yes"/>
      <point x="181" y="478"/>
      <point x="141" y="426"/>
      <point x="120" y="388" type="curve"/>
      <point x="118" y="390" type="line"/>
      <point x="120" y="407" type="line"/>
      <point x="120" y="478" type="line"/>
      <point x="113" y="469"/>
      <point x="89" y="458"/>
      <point x="48" y="458" type="curve"/>
      <point x="57" y="457"/>
      <point x="68" y="440"/>
      <point x="68" y="398" type="curve" smooth="yes"/>
      <point x="68" y="60" type="line" smooth="yes"/>
      <point x="68" y="17"/>
      <point x="57" y="0"/>
    </contour>
  </outline>
</glyph>
<glyph name="s" format="2">
  <advance width="530"/>
  <unicode hex="0073"/>
  <anchor x="288" y="0" name="bottom"/>
  <anchor x="288" y="468" name="top"/>
  <outline>
    <contour>
      <point x="284" y="-10" type="curve" smooth="yes"/>
      <point x="442" y="-10"/>
      <point x="495" y="51"/>
      <point x="495" y="119" type="curve" smooth="yes"/>
      <point x="495" y="185"/>
      <point x="461" y="234"/>
      <point x="299" y="252" type="curve" smooth="yes"/>
      <point x="141" y="270"/>
      <point x="93" y="292"/>
      <point x="93" y="352" type="curve" smooth="yes"/>
      <point x="93" y="408"/>
      <point x="136" y="439"/>
      <point x="246" y="439" type="curve" smooth="yes"/>
      <point x="364" y="439"/>
      <point x="441" y="412"/>
      <point x="466" y="392" type="curve"/>
      <point x="456" y="438" type="line"/>
      <point x="456" y="448" type="line"/>
      <point x="426" y="461"/>
      <point x="348" y="478"/>
      <point x="243" y="478" type="curve" smooth="yes"/>
      <point x="84" y="478"/>
      <point x="41" y="415"/>
      <point x="41" y="351" type="curve" smooth="yes"/>
      <point x="41" y="258"/>
      <point x="126" y="231"/>
      <point x="259" y="216" type="curve" smooth="yes"/>
      <point x="417" y="199"/>
      <point x="444" y="168"/>
      <point x="444" y="120" type="curve" smooth="yes"/>
      <point x="444" y="67"/>
      <point x="401" y="29"/>
      <point x="280" y="29" type="curve" smooth="yes"/>
      <point x="146" y="29"/>
      <point x="64" y="56"/>
      <point x="40" y="76" type="curve"/>
      <point x="50" y="30" type="line"/>
      <point x="50" y="20" type="line"/>
      <point x="81" y="7"/>
      <point x="166" y="-10"/>
    </contour>
  </outline>
</glyph>
<glyph name="t" format="2">
  <advance width="393"/>
  <unicode hex="0074"/>
  <anchor x="217" y="0" name="bottom"/>
  <anchor x="193" y="284" name="center"/>
  <anchor x="154" y="558" name="top"/>
  <anchor x="373" y="468" name="topright"/>
  <outline>
    <contour>
      <point x="231" y="-10" type="curve" smooth="yes"/>
      <point x="314" y="-10"/>
      <point x="366" y="22"/>
      <point x="372" y="28" type="curve"/>
      <point x="362" y="65" type="line"/>
      <point x="362" y="76" type="line"/>
      <point x="341" y="60"/>
      <point x="294" y="31"/>
      <point x="232" y="31" type="curve" smooth="yes"/>
      <point x="184" y="31"/>
      <point x="162" y="55"/>
      <point x="162" y="115" type="curve" smooth="yes"/>
      <point x="162" y="428" type="line"/>
      <point x="363" y="428" type="line"/>
      <point x="363" y="456"/>
      <point x="374" y="467"/>
      <point x="383" y="468" type="curve"/>
      <point x="162" y="468" type="line"/>
      <point x="162" y="601" type="line"/>
      <point x="125" y="601" type="line"/>
      <point x="125" y="486"/>
      <point x="111" y="468"/>
      <point x="20" y="468" type="curve"/>
      <point x="20" y="428" type="line"/>
      <point x="110" y="428" type="line"/>
      <point x="110" y="116" type="line" smooth="yes"/>
      <point x="110" y="36"/>
      <point x="134" y="-10"/>
    </contour>
  </outline>
</glyph>
<glyph name="u" format="2">
  <advance width="604"/>
  <unicode hex="0075"/>
  <anchor x="295" y="0" name="bottom"/>
  <anchor x="598" y="12" name="ogonek"/>
  <anchor x="305" y="468" name="top"/>
  <anchor x="592" y="468" name="topright"/>
  <outline>
    <contour>
      <point x="270" y="-10" type="curve" smooth="yes"/>
      <point x="416" y="-10"/>
      <point x="471" y="71"/>
      <point x="490" y="102" type="curve"/>
      <point x="492" y="100" type="line"/>
      <point x="490" y="80" type="line"/>
      <point x="490" y="0" type="line"/>
      <point x="562" y="0" type="line" smooth="yes"/>
      <point x="553" y="0"/>
      <point x="542" y="17"/>
      <point x="542" y="60" type="curve" smooth="yes"/>
      <point x="542" y="468" type="line"/>
      <point x="470" y="468" type="line"/>
      <point x="479" y="467"/>
      <point x="490" y="450"/>
      <point x="490" y="408" type="curve" smooth="yes"/>
      <point x="490" y="256" type="line" smooth="yes"/>
      <point x="490" y="90"/>
      <point x="384" y="31"/>
      <point x="268" y="31" type="curve" smooth="yes"/>
      <point x="168" y="31"/>
      <point x="119" y="82"/>
      <point x="119" y="198" type="curve" smooth="yes"/>
      <point x="119" y="408" type="line" smooth="yes"/>
      <point x="119" y="451"/>
      <point x="132" y="468"/>
      <point x="141" y="468" type="curve" smooth="yes"/>
      <point x="48" y="468" type="line" smooth="yes"/>
      <point x="57" y="468"/>
      <point x="68" y="451"/>
      <point x="68" y="408" type="curve" smooth="yes"/>
      <point x="68" y="202" type="line" smooth="yes"/>
      <point x="68" y="46"/>
      <point x="140" y="-10"/>
    </contour>
  </outline>
</glyph>
<glyph name="v" format="2">
  <advance width="539"/>
  <unicode hex="0076"/>
  <outline>
    <contour>
      <point x="221" y="0" type="curve" smooth="yes"/>
      <point x="319" y="0" type="line" smooth="yes"/>
      <point x="312" y="0"/>
      <point x="307" y="16"/>
      <point x="319" y="60" type="curve" smooth="yes"/>
      <point x="335" y="120"/>
      <point x="458" y="351"/>
      <point x="487" y="409" type="curve" smooth="yes"/>
      <point x="508" y="451"/>
      <point x="526" y="468"/>
      <point x="534" y="468" type="curve" smooth="yes"/>
      <point x="428" y="468" type="line" smooth="yes"/>
      <point x="439" y="468"/>
      <point x="447" y="451"/>
      <point x="428" y="408" type="curve" smooth="yes"/>
      <point x="409" y="365"/>
      <point x="327" y="189"/>
      <point x="271" y="69" type="curve"/>
      <point x="270" y="69" type="line"/>
      <point x="215" y="188"/>
      <point x="136" y="361"/>
      <point x="116" y="406" type="curve" smooth="yes"/>
      <point x="96" y="451"/>
      <point x="104" y="468"/>
      <point x="116" y="468" type="curve" smooth="yes"/>
      <point x="5" y="468" type="line"/>
      <point x="13" y="467"/>
      <point x="33" y="449"/>
      <point x="56" y="406" type="curve" smooth="yes"/>
      <point x="89" y="345"/>
      <point x="205" y="103"/>
      <point x="221" y="60" type="curve" smooth="yes"/>
      <point x="237" y="16"/>
      <point x="230" y="0"/>
    </contour>
  </outline>
</glyph>
<glyph name="x" format="2">
  <advance width="555"/>
  <unicode hex="0078"/>
  <outline>
    <contour>
      <point x="10" y="0" type="curve" smooth="yes"/>
      <point x="116" y="0" type="line" smooth="yes"/>
      <point x="109" y="0"/>
      <point x="112" y="17"/>
      <point x="146" y="60" type="curve" smooth="yes"/>
      <point x="169" y="91"/>
      <point x="232" y="168"/>
      <point x="272" y="217" type="curve"/>
      <point x="274" y="217" type="line"/>
      <point x="320" y="167"/>
      <point x="390" y="90"/>
      <point x="413" y="62" type="curve" smooth="yes"/>
      <point x="450" y="17"/>
      <point x="452" y="0"/>
      <point x="443" y="0" type="curve" smooth="yes"/>
      <point x="545" y="0" type="line" smooth="yes"/>
      <point x="537" y="0"/>
      <point x="512" y="17"/>
      <point x="473" y="62" type="curve" smooth="yes"/>
      <point x="434" y="107"/>
      <point x="362" y="187"/>
      <point x="319" y="235" type="curve"/>
      <point x="362" y="283"/>
      <point x="432" y="363"/>
      <point x="468" y="409" type="curve" smooth="yes"/>
      <point x="502" y="451"/>
      <point x="532" y="468"/>
      <point x="545" y="468" type="curve" smooth="yes"/>
      <point x="440" y="468" type="line" smooth="yes"/>
      <point x="446" y="468"/>
      <point x="442" y="451"/>
      <point x="410" y="408" type="curve" smooth="yes"/>
      <point x="385" y="375"/>
      <point x="320" y="303"/>
      <point x="278" y="257" type="curve"/>
      <point x="276" y="257" type="line"/>
      <point x="231" y="307"/>
      <point x="187" y="356"/>
      <point x="142" y="406" type="curve" smooth="yes"/>
      <point x="104" y="450"/>
      <point x="103" y="467"/>
      <point x="112" y="468" type="curve"/>
      <point x="10" y="468" type="line"/>
      <point x="19" y="467"/>
      <point x="44" y="450"/>
      <point x="81" y="406" type="curve" smooth="yes"/>
      <point x="127" y="352"/>
      <point x="127" y="352"/>
      <point x="229" y="235" type="curve"/>
      <point x="182" y="176"/>
      <point x="135" y="118"/>
      <point x="88" y="59" type="curve" smooth="yes"/>
      <point x="54" y="17"/>
      <point x="24" y="0"/>
    </contour>
  </outline>
</glyph>
<glyph name="y" format="2">
  <advance width="532"/>
  <unicode hex="0079"/>
  <anchor x="414" y="0" name="bottom"/>
  <anchor x="254" y="468" name="top"/>
  <outline>
    <contour>
      <point x="45" y="-244" type="curve" smooth="yes"/>
      <point x="157" y="-244"/>
      <point x="215" y="-176"/>
      <point x="277" y="-41" type="curve" smooth="yes"/>
      <point x="326" y="66"/>
      <point x="451" y="350"/>
      <point x="480" y="408" type="curve" smooth="yes"/>
      <point x="501" y="450"/>
      <point x="519" y="467"/>
      <point x="527" y="468" type="curve"/>
      <point x="421" y="468" type="line"/>
      <point x="432" y="467"/>
      <point x="440" y="450"/>
      <point x="421" y="407" type="curve" smooth="yes"/>
      <point x="403" y="364"/>
      <point x="320" y="176"/>
      <point x="263" y="46" type="curve"/>
      <point x="262" y="46" type="line"/>
      <point x="204" y="171"/>
      <point x="118" y="355"/>
      <point x="98" y="405" type="curve" smooth="yes"/>
      <point x="80" y="450"/>
      <point x="87" y="468"/>
      <point x="98" y="468" type="curve" smooth="yes"/>
      <point x="-12" y="468" type="line"/>
      <point x="-4" y="466"/>
      <point x="16" y="448"/>
      <point x="39" y="405" type="curve" smooth="yes"/>
      <point x="72" y="344"/>
      <point x="212" y="23"/>
      <point x="235" y="-9" type="curve"/>
      <point x="232" y="-18"/>
      <point x="223" y="-38"/>
      <point x="210" y="-64" type="curve" smooth="yes"/>
      <point x="168" y="-144"/>
      <point x="129" y="-204"/>
      <point x="51" y="-204" type="curve" smooth="yes"/>
      <point x="-9" y="-204"/>
      <point x="-50" y="-170"/>
      <point x="-65" y="-144" type="curve"/>
      <point x="-65" y="-154" type="line"/>
      <point x="-85" y="-209" type="line"/>
      <point x="-70" y="-224"/>
      <point x="-24" y="-244"/>
    </contour>
  </outline>
</glyph>
<glyph name="z" format="2">
  <advance width="526"/>
  <unicode hex="007A"/>
  <anchor x="268" y="0" name="bottom"/>
  <anchor x="268" y="468" name="top"/>
  <outline>
    <contour>
      <point x="21" y="0" type="curve"/>
      <point x="496" y="0" type="line"/>
      <point x="496" y="11" type="line"/>
      <point x="506" y="60" type="line"/>
      <point x="498" y="51"/>
      <point x="458" y="39"/>
      <point x="376" y="39" type="curve" smooth="yes"/>
      <point x="108" y="39" type="line"/>
      <point x="108" y="42" type="line"/>
      <point x="216" y="159"/>
      <point x="385" y="340"/>
      <point x="452" y="412" type="curve" smooth="yes"/>
      <point x="476" y="438"/>
      <point x="491" y="459"/>
      <point x="496" y="468" type="curve"/>
      <point x="377" y="468"/>
      <point x="193" y="468"/>
      <point x="120" y="468" type="curve" smooth="yes"/>
      <point x="20" y="468" type="line"/>
      <point x="20" y="409" type="line"/>
      <point x="22" y="418"/>
      <point x="55" y="429"/>
      <point x="140" y="429" type="curve" smooth="yes"/>
      <point x="399" y="429" type="line"/>
      <point x="399" y="427" type="line"/>
      <point x="128" y="127"/>
      <point x="128" y="128"/>
      <point x="62" y="56" type="curve" smooth="yes"/>
      <point x="40" y="33"/>
      <point x="26" y="10"/>
    </contour>
  </outline>
</glyph>
<glyph name="braceleft" format="2">
  <advance width="251"/>
  <unicode hex="007B"/>
  <outline>
    <contour>
      <point x="211" y="-80" type="curve"/>
      <point x="182" y="-80" type="line" smooth="yes"/>
      <point x="125" y="-80"/>
      <point x="102" y="-40"/>
      <point x="102" y="20" type="curve" smooth="yes"/>
      <point x="102" y="219" type="line" smooth="yes"/>
      <point x="102" y="290"/>
      <point x="59" y="309"/>
      <point x="30" y="299" type="curve"/>
      <point x="30" y="319" type="line"/>
      <point x="60" y="309"/>
      <point x="102" y="333"/>
      <point x="102" y="409" type="curve" smooth="yes"/>
      <point x="102" y="588" type="line" smooth="yes"/>
      <point x="102" y="649"/>
      <point x="125" y="689"/>
      <point x="182" y="689" type="curve" smooth="yes"/>
      <point x="211" y="689" type="line"/>
      <point x="211" y="672"/>
      <point x="217" y="656"/>
      <point x="221" y="649" type="curve"/>
      <point x="214" y="653"/>
      <point x="198" y="659"/>
      <point x="181" y="659" type="curve" smooth="yes"/>
      <point x="158" y="659"/>
      <point x="141" y="649"/>
      <point x="141" y="589" type="curve" smooth="yes"/>
      <point x="141" y="429" type="line" smooth="yes"/>
      <point x="141" y="358"/>
      <point x="111" y="319"/>
      <point x="88" y="310" type="curve"/>
      <point x="88" y="308" type="line"/>
      <point x="111" y="300"/>
      <point x="141" y="265"/>
      <point x="141" y="199" type="curve" smooth="yes"/>
      <point x="141" y="20" type="line" smooth="yes"/>
      <point x="141" y="-39"/>
      <point x="157" y="-50"/>
      <point x="181" y="-50" type="curve" smooth="yes"/>
      <point x="199" y="-50"/>
      <point x="214" y="-44"/>
      <point x="221" y="-40" type="curve"/>
      <point x="217" y="-48"/>
      <point x="211" y="-64"/>
    </contour>
  </outline>
</glyph>
<glyph name="bar" format="2">
  <advance width="212"/>
  <unicode hex="007C"/>
  <outline>
    <contour>
      <point x="80" y="-170" type="line"/>
      <point x="130" y="-170" type="line"/>
      <point x="130" y="690" type="line"/>
      <point x="80" y="690" type="line"/>
    </contour>
  </outline>
</glyph>
<glyph name="braceright" format="2">
  <advance width="251"/>
  <unicode hex="007D"/>
  <outline>
    <contour>
      <point x="40" y="-80" type="curve"/>
      <point x="69" y="-80" type="line" smooth="yes"/>
      <point x="126" y="-80"/>
      <point x="149" y="-40"/>
      <point x="149" y="20" type="curve" smooth="yes"/>
      <point x="149" y="219" type="line" smooth="yes"/>
      <point x="149" y="290"/>
      <point x="192" y="309"/>
      <point x="221" y="299" type="curve"/>
      <point x="221" y="319" type="line"/>
      <point x="191" y="309"/>
      <point x="149" y="333"/>
      <point x="149" y="409" type="curve" smooth="yes"/>
      <point x="149" y="588" type="line" smooth="yes"/>
      <point x="149" y="649"/>
      <point x="126" y="689"/>
      <point x="69" y="689" type="curve" smooth="yes"/>
      <point x="40" y="689" type="line"/>
      <point x="40" y="672"/>
      <point x="34" y="656"/>
      <point x="30" y="649" type="curve"/>
      <point x="37" y="653"/>
      <point x="53" y="659"/>
      <point x="70" y="659" type="curve" smooth="yes"/>
      <point x="93" y="659"/>
      <point x="110" y="649"/>
      <point x="110" y="589" type="curve" smooth="yes"/>
      <point x="110" y="429" type="line" smooth="yes"/>
      <point x="110" y="358"/>
      <point x="140" y="319"/>
      <point x="163" y="310" type="curve"/>
      <point x="163" y="308" type="line"/>
      <point x="140" y="300"/>
      <point x="110" y="265"/>
      <point x="110" y="199" type="curve" smooth="yes"/>
      <point x="110" y="20" type="line" smooth="yes"/>
      <point x="110" y="-39"/>
      <point x="94" y="-50"/>
      <point x="70" y="-50" type="curve" smooth="yes"/>
      <point x="52" y="-50"/>
      <point x="37" y="-44"/>
      <point x="30" y="-40" type="curve"/>
      <point x="34" y="-48"/>
      <point x="40" y="-64"/>
    </contour>
  </outline>
</glyph>
<glyph name="exclamdown" format="2">
  <advance width="260"/>
  <unicode hex="00A1"/>
  <outline>
    <contour>
      <point x="130" y="-140" type="curve" smooth="yes"/>
      <point x="159" y="-140"/>
      <point x="170" y="-109"/>
      <point x="170" y="-70" type="curve" smooth="yes"/>
      <point x="170" y="-3"/>
      <point x="156" y="283"/>
      <point x="132" y="283" type="curve" smooth="yes"/>
      <point x="108" y="283"/>
      <point x="92" y="-5"/>
      <point x="92" y="-69" type="curve" smooth="yes"/>
      <point x="92" y="-109"/>
      <point x="103" y="-140"/>
    </contour>
    <component base="period" xOffset="30" yOffset="380"/>
  </outline>
</glyph>
<glyph name="cent" format="2">
  <advance width="565"/>
  <unicode hex="00A2"/>
  <outline>
    <contour>
      <point x="301" y="-10" type="curve" smooth="yes"/>
      <point x="413" y="-10"/>
      <point x="495" y="23"/>
      <point x="525" y="48" type="curve"/>
      <point x="515" y="76" type="line"/>
      <point x="515" y="106" type="line"/>
      <point x="490" y="73"/>
      <point x="419" y="30"/>
      <point x="315" y="30" type="curve" smooth="yes"/>
      <point x="159" y="30"/>
      <point x="91" y="95"/>
      <point x="91" y="232" type="curve" smooth="yes"/>
      <point x="91" y="372"/>
      <point x="166" y="437"/>
      <point x="298" y="437" type="curve" smooth="yes"/>
      <point x="405" y="437"/>
      <point x="485" y="411"/>
      <point x="515" y="392" type="curve"/>
      <point x="505" y="418" type="line"/>
      <point x="505" y="448" type="line"/>
      <point x="475" y="460"/>
      <point x="396" y="477"/>
      <point x="291" y="477" type="curve" smooth="yes"/>
      <point x="128" y="477"/>
      <point x="40" y="396"/>
      <point x="40" y="233" type="curve" smooth="yes"/>
      <point x="40" y="95"/>
      <point x="106" y="-10"/>
    </contour>
    <contour>
      <point x="282" y="-60" type="curve"/>
      <point x="361" y="-60" type="line"/>
      <point x="356" y="-55"/>
      <point x="350" y="-36"/>
      <point x="350" y="0" type="curve" smooth="yes"/>
      <point x="350" y="479" type="line" smooth="yes"/>
      <point x="350" y="516"/>
      <point x="362" y="536"/>
      <point x="371" y="540" type="curve"/>
      <point x="292" y="540" type="line"/>
      <point x="296" y="535"/>
      <point x="302" y="516"/>
      <point x="302" y="480" type="curve" smooth="yes"/>
      <point x="302" y="0" type="line" smooth="yes"/>
      <point x="302" y="-37"/>
      <point x="291" y="-56"/>
    </contour>
  </outline>
</glyph>
<glyph name="sterling" format="2">
  <advance width="586"/>
  <unicode hex="00A3"/>
  <outline>
    <contour>
      <point x="50" y="290" type="curve"/>
      <point x="59" y="294"/>
      <point x="97" y="300"/>
      <point x="170" y="300" type="curve" smooth="yes"/>
      <point x="396" y="300" type="line"/>
      <point x="396" y="313"/>
      <point x="407" y="336"/>
      <point x="416" y="350" type="curve"/>
      <point x="409" y="346"/>
      <point x="377" y="340"/>
      <point x="316" y="340" type="curve" smooth="yes"/>
      <point x="70" y="340" type="line"/>
      <point x="70" y="322"/>
      <point x="59" y="301"/>
    </contour>
    <contour>
      <point x="102" y="0" type="curve"/>
      <point x="526" y="0" type="line"/>
      <point x="526" y="31" type="line"/>
      <point x="536" y="71" type="line"/>
      <point x="526" y="58"/>
      <point x="486" y="41"/>
      <point x="416" y="41" type="curve" smooth="yes"/>
      <point x="188" y="41" type="line"/>
      <point x="188" y="44" type="line"/>
      <point x="198" y="57"/>
      <point x="212" y="106"/>
      <point x="212" y="190" type="curve" smooth="yes"/>
      <point x="212" y="390" type="line" smooth="yes"/>
      <point x="212" y="516"/>
      <point x="265" y="570"/>
      <point x="340" y="570" type="curve" smooth="yes"/>
      <point x="387" y="570"/>
      <point x="427" y="542"/>
      <point x="444" y="520" type="curve"/>
      <point x="444" y="540" type="line"/>
      <point x="454" y="570" type="line"/>
      <point x="438" y="587"/>
      <point x="396" y="610"/>
      <point x="340" y="610" type="curve" smooth="yes"/>
      <point x="234" y="610"/>
      <point x="158" y="539"/>
      <point x="158" y="390" type="curve" smooth="yes"/>
      <point x="158" y="150" type="line" smooth="yes"/>
      <point x="158" y="54"/>
      <point x="133" y="16"/>
    </contour>
  </outline>
</glyph>
<glyph name="currency" format="2">
  <advance width="533"/>
  <unicode hex="00A4"/>
  <outline>
    <contour>
      <point x="266" y="117" type="curve" smooth="yes"/>
      <point x="412" y="117"/>
      <point x="483" y="187"/>
      <point x="483" y="297" type="curve" smooth="yes"/>
      <point x="483" y="412"/>
      <point x="406" y="482"/>
      <point x="266" y="482" type="curve" smooth="yes"/>
      <point x="126" y="482"/>
      <point x="50" y="412"/>
      <point x="50" y="297" type="curve" smooth="yes"/>
      <point x="50" y="187"/>
      <point x="120" y="117"/>
    </contour>
    <contour>
      <point x="266" y="157" type="curve" smooth="yes"/>
      <point x="167" y="157"/>
      <point x="111" y="204"/>
      <point x="111" y="295" type="curve" smooth="yes"/>
      <point x="111" y="393"/>
      <point x="168" y="443"/>
      <point x="266" y="443" type="curve" smooth="yes"/>
      <point x="369" y="443"/>
      <point x="421" y="397"/>
      <point x="421" y="296" type="curve" smooth="yes"/>
      <point x="421" y="202"/>
      <point x="370" y="157"/>
    </contour>
    <contour>
      <point x="90" y="90" type="line"/>
      <point x="144" y="155" type="line"/>
      <point x="122" y="177" type="line"/>
      <point x="57" y="123" type="line"/>
    </contour>
    <contour>
      <point x="122" y="421" type="line"/>
      <point x="144" y="443" type="line"/>
      <point x="90" y="508" type="line"/>
      <point x="57" y="475" type="line"/>
    </contour>
    <contour>
      <point x="443" y="90" type="line"/>
      <point x="476" y="123" type="line"/>
      <point x="411" y="177" type="line"/>
      <point x="389" y="155" type="line"/>
    </contour>
    <contour>
      <point x="411" y="421" type="line"/>
      <point x="476" y="475" type="line"/>
      <point x="443" y="508" type="line"/>
      <point x="389" y="443" type="line"/>
    </contour>
  </outline>
</glyph>
<glyph name="yen" format="2">
  <advance width="641"/>
  <unicode hex="00A5"/>
  <outline>
    <contour>
      <point x="269" y="0" type="curve" smooth="yes"/>
      <point x="366" y="0" type="line" smooth="yes"/>
      <point x="357" y="0"/>
      <point x="346" y="16"/>
      <point x="346" y="60" type="curve" smooth="yes"/>
      <point x="346" y="280" type="line"/>
      <point x="402" y="364"/>
      <point x="489" y="494"/>
      <point x="524" y="541" type="curve" smooth="yes"/>
      <point x="554" y="581"/>
      <point x="580" y="598"/>
      <point x="591" y="600" type="curve"/>
      <point x="442" y="600" type="line" smooth="yes"/>
      <point x="460" y="600"/>
      <point x="475" y="583"/>
      <point x="452" y="540" type="curve" smooth="yes"/>
      <point x="425" y="487"/>
      <point x="361" y="379"/>
      <point x="321" y="312" type="curve"/>
      <point x="320" y="312" type="line"/>
      <point x="278" y="387"/>
      <point x="237" y="463"/>
      <point x="195" y="538" type="curve" smooth="yes"/>
      <point x="171" y="582"/>
      <point x="181" y="599"/>
      <point x="195" y="600" type="curve"/>
      <point x="50" y="600" type="line"/>
      <point x="63" y="598"/>
      <point x="92" y="580"/>
      <point x="122" y="538" type="curve" smooth="yes"/>
      <point x="155" y="493"/>
      <point x="239" y="364"/>
      <point x="294" y="280" type="curve"/>
      <point x="294" y="207"/>
      <point x="294" y="133"/>
      <point x="294" y="60" type="curve" smooth="yes"/>
      <point x="294" y="16"/>
      <point x="280" y="0"/>
    </contour>
    <contour>
      <point x="120" y="210" type="curve"/>
      <point x="129" y="214"/>
      <point x="167" y="220"/>
      <point x="240" y="220" type="curve" smooth="yes"/>
      <point x="506" y="220" type="line"/>
      <point x="506" y="240"/>
      <point x="517" y="261"/>
      <point x="526" y="270" type="curve"/>
      <point x="519" y="266"/>
      <point x="487" y="260"/>
      <point x="426" y="260" type="curve" smooth="yes"/>
      <point x="140" y="260" type="line"/>
      <point x="140" y="242"/>
      <point x="129" y="221"/>
    </contour>
    <contour>
      <point x="100" y="340" type="curve"/>
      <point x="109" y="344"/>
      <point x="147" y="350"/>
      <point x="220" y="350" type="curve" smooth="yes"/>
      <point x="256" y="350" type="line"/>
      <point x="256" y="390" type="line"/>
      <point x="120" y="390" type="line"/>
      <point x="120" y="386"/>
      <point x="109" y="359"/>
    </contour>
    <contour>
      <point x="380" y="350" type="line"/>
      <point x="506" y="350" type="line"/>
      <point x="506" y="370"/>
      <point x="517" y="391"/>
      <point x="526" y="400" type="curve"/>
      <point x="519" y="396"/>
      <point x="487" y="390"/>
      <point x="426" y="390" type="curve" smooth="yes"/>
      <point x="380" y="390" type="line"/>
    </contour>
  </outline>
</glyph>
<glyph name="section" format="2">
  <advance width="424"/>
  <unicode hex="00A7"/>
  <outline>
    <contour>
      <point x="199" y="-50" type="curve" smooth="yes"/>
      <point x="314" y="-50"/>
      <point x="356" y="14"/>
      <point x="356" y="77" type="curve" smooth="yes"/>
      <point x="356" y="110"/>
      <point x="344" y="132"/>
      <point x="327" y="152" type="curve"/>
      <point x="345" y="167"/>
      <point x="374" y="200"/>
      <point x="374" y="251" type="curve" smooth="yes"/>
      <point x="374" y="313"/>
      <point x="350" y="352"/>
      <point x="242" y="390" type="curve" smooth="yes"/>
      <point x="138" y="427"/>
      <point x="102" y="462"/>
      <point x="102" y="513" type="curve" smooth="yes"/>
      <point x="102" y="557"/>
      <point x="142" y="584"/>
      <point x="199" y="584" type="curve" smooth="yes"/>
      <point x="269" y="584"/>
      <point x="313" y="555"/>
      <point x="326" y="533" type="curve"/>
      <point x="326" y="562" type="line"/>
      <point x="336" y="591" type="line"/>
      <point x="318" y="605"/>
      <point x="270" y="623"/>
      <point x="209" y="623" type="curve" smooth="yes"/>
      <point x="103" y="623"/>
      <point x="60" y="575"/>
      <point x="60" y="506" type="curve" smooth="yes"/>
      <point x="60" y="454"/>
      <point x="99" y="417"/>
      <point x="146" y="391" type="curve"/>
      <point x="146" y="388" type="line"/>
      <point x="96" y="388"/>
      <point x="50" y="355"/>
      <point x="50" y="302" type="curve" smooth="yes"/>
      <point x="50" y="261"/>
      <point x="79" y="225"/>
      <point x="153" y="200" type="curve" smooth="yes"/>
      <point x="254" y="166"/>
      <point x="314" y="136"/>
      <point x="314" y="70" type="curve" smooth="yes"/>
      <point x="314" y="20"/>
      <point x="284" y="-11"/>
      <point x="209" y="-11" type="curve" smooth="yes"/>
      <point x="140" y="-11"/>
      <point x="95" y="22"/>
      <point x="80" y="47" type="curve"/>
      <point x="80" y="17" type="line"/>
      <point x="70" y="-19" type="line"/>
      <point x="85" y="-32"/>
      <point x="130" y="-50"/>
    </contour>
    <contour>
      <point x="309" y="165" type="curve"/>
      <point x="287" y="182"/>
      <point x="258" y="201"/>
      <point x="201" y="222" type="curve" smooth="yes"/>
      <point x="121" y="252"/>
      <point x="92" y="267"/>
      <point x="92" y="309" type="curve" smooth="yes"/>
      <point x="92" y="362"/>
      <point x="173" y="372"/>
      <point x="241" y="348" type="curve" smooth="yes"/>
      <point x="298" y="328"/>
      <point x="335" y="292"/>
      <point x="335" y="232" type="curve" smooth="yes"/>
      <point x="335" y="200"/>
      <point x="316" y="173"/>
    </contour>
  </outline>
</glyph>
<glyph name="copyright" format="2">
  <advance width="776"/>
  <unicode hex="00A9"/>
  <anchor x="404.218" y="168" name="bottom"/>
  <anchor x="387.688" y="425.868" name="top"/>
  <outline>
    <contour>
      <point x="394.851" y="162.49" type="curve" smooth="yes"/>
      <point x="457" y="162"/>
      <point x="502" y="181"/>
      <point x="518.275" y="194.448" type="curve"/>
      <point x="513" y="235" type="line"/>
      <point x="513" y="241" type="line"/>
      <point x="499" y="226"/>
      <point x="459" y="205"/>
      <point x="403" y="205" type="curve" smooth="yes"/>
      <point x="334" y="205"/>
      <point x="299" y="240"/>
      <point x="299" y="296" type="curve" smooth="yes"/>
      <point x="299" y="353"/>
      <point x="327" y="389"/>
      <point x="393" y="389" type="curve" smooth="yes"/>
      <point x="457" y="389"/>
      <point x="499" y="371"/>
      <point x="513" y="358" type="curve"/>
      <point x="507.255" y="403.828" type="line"/>
      <point x="507.255" y="409.338" type="line"/>
      <point x="493" y="419"/>
      <point x="450" y="431"/>
      <point x="389.341" y="430.827" type="curve" smooth="yes"/>
      <point x="299.528" y="430.827"/>
      <point x="251.04" y="386.196"/>
      <point x="251.04" y="296.383" type="curve" smooth="yes"/>
      <point x="251.04" y="220.345"/>
      <point x="287.406" y="162.49"/>
    </contour>
    <component base="circle" xOffset="20"/>
  </outline>
</glyph>
<glyph name="ordfeminine" format="2">
  <advance width="302"/>
  <unicode hex="00AA"/>
  <outline>
    <contour>
      <point x="129.0" y="325.0" type="curve" smooth="yes"/>
      <point x="215.0" y="325.0"/>
      <point x="239.0" y="356.0"/>
      <point x="247.5" y="365.5" type="curve"/>
      <point x="248.5" y="365.0" type="line"/>
      <point x="247.5" y="355.5" type="line"/>
      <point x="247.5" y="330.0" type="line"/>
      <point x="282.5" y="330.0" type="line"/>
      <point x="278.0" y="334.5"/>
      <point x="272.5" y="341.0"/>
      <point x="272.5" y="360.0" type="curve" smooth="yes"/>
      <point x="272.5" y="460.0" type="line" smooth="yes"/>
      <point x="272.5" y="534.0"/>
      <point x="238.5" y="569.0"/>
      <point x="152.0" y="569.0" type="curve" smooth="yes"/>
      <point x="81.5" y="569.0"/>
      <point x="45.0" y="551.5"/>
      <point x="40.0" y="549.0" type="curve"/>
      <point x="45.0" y="526.5" type="line"/>
      <point x="45.0" y="521.5" type="line"/>
      <point x="57.0" y="533.5"/>
      <point x="102.0" y="549.0"/>
      <point x="148.0" y="549.0" type="curve" smooth="yes"/>
      <point x="228.5" y="549.0"/>
      <point x="247.5" y="518.5"/>
      <point x="247.5" y="443.5" type="curve"/>
      <point x="239.5" y="451.5"/>
      <point x="211.5" y="473.0"/>
      <point x="143.0" y="473.0" type="curve" smooth="yes"/>
      <point x="61.5" y="473.0"/>
      <point x="25.0" y="446.0"/>
      <point x="25.0" y="398.0" type="curve" smooth="yes"/>
      <point x="25.0" y="349.0"/>
      <point x="56.0" y="325.0"/>
    </contour>
    <contour>
      <point x="135.5" y="345.5" type="curve" smooth="yes"/>
      <point x="75.5" y="345.5"/>
      <point x="50.5" y="361.5"/>
      <point x="50.5" y="398.0" type="curve" smooth="yes"/>
      <point x="50.5" y="435.0"/>
      <point x="82.5" y="453.0"/>
      <point x="146.0" y="453.0" type="curve" smooth="yes"/>
      <point x="217.0" y="453.0"/>
      <point x="247.5" y="431.5"/>
      <point x="247.5" y="403.5" type="curve" smooth="yes"/>
      <point x="247.5" y="370.0"/>
      <point x="197.0" y="345.5"/>
    </contour>
  </outline>
</glyph>
<glyph name="guillemetleft" format="2">
  <advance width="460"/>
  <unicode hex="00AB"/>
  <outline>
    <contour>
      <point x="240" y="130" type="line"/>
      <point x="200" y="130" type="line"/>
      <point x="70" y="300" type="line"/>
      <point x="200" y="470" type="line"/>
      <point x="240" y="470" type="line"/>
      <point x="110" y="300" type="line"/>
    </contour>
    <contour>
      <point x="390" y="130" type="line"/>
      <point x="350" y="130" type="line"/>
      <point x="220" y="300" type="line"/>
      <point x="350" y="470" type="line"/>
      <point x="390" y="470" type="line"/>
      <point x="260" y="300" type="line"/>
    </contour>
  </outline>
</glyph>
<glyph name="registered" format="2">
  <advance width="361"/>
  <unicode hex="00AE"/>
  <anchor x="178.72" y="470" name="bottom"/>
  <outline>
    <contour>
      <point x="115.997" y="470" type="curve" smooth="yes"/>
      <point x="148" y="470" type="line" smooth="yes"/>
      <point x="146" y="470"/>
      <point x="143" y="474"/>
      <point x="143" y="484" type="curve" smooth="yes"/>
      <point x="143" y="519" type="line" smooth="yes"/>
      <point x="143" y="525"/>
      <point x="143" y="526"/>
      <point x="153" y="526" type="curve" smooth="yes"/>
      <point x="165" y="526" type="line" smooth="yes"/>
      <point x="195" y="526"/>
      <point x="213" y="510"/>
      <point x="228" y="483" type="curve" smooth="yes"/>
      <point x="233" y="474"/>
      <point x="232" y="470"/>
      <point x="229" y="470" type="curve" smooth="yes"/>
      <point x="268" y="470" type="line" smooth="yes"/>
      <point x="266" y="470"/>
      <point x="261" y="475"/>
      <point x="252.934" y="486.758" type="curve" smooth="yes"/>
      <point x="240.964" y="505.671"/>
      <point x="229" y="523"/>
      <point x="209" y="529" type="curve"/>
      <point x="209" y="530" type="line"/>
      <point x="228" y="533"/>
      <point x="247" y="548"/>
      <point x="246.71" y="570.787" type="curve" smooth="yes"/>
      <point x="247" y="594"/>
      <point x="233.543" y="613.64"/>
      <point x="189.254" y="613.64" type="curve" smooth="yes"/>
      <point x="115.758" y="613.64" type="line"/>
      <point x="118" y="613"/>
      <point x="121" y="609"/>
      <point x="120.785" y="599.276" type="curve" smooth="yes"/>
      <point x="120.785" y="484.364" type="line" smooth="yes"/>
      <point x="121" y="474"/>
      <point x="118" y="470"/>
    </contour>
    <contour>
      <point x="153" y="545" type="line" smooth="yes"/>
      <point x="143" y="545"/>
      <point x="143" y="545"/>
      <point x="143" y="552" type="curve" smooth="yes"/>
      <point x="143" y="588" type="line" smooth="yes"/>
      <point x="143" y="594"/>
      <point x="143" y="594"/>
      <point x="153" y="594" type="curve" smooth="yes"/>
      <point x="184" y="594" type="line" smooth="yes"/>
      <point x="212" y="594"/>
      <point x="223" y="585"/>
      <point x="223" y="571" type="curve" smooth="yes"/>
      <point x="223" y="554"/>
      <point x="213" y="545"/>
      <point x="187" y="545" type="curve" smooth="yes"/>
    </contour>
    <contour>
      <point x="180.5392" y="405.556" type="curve" smooth="yes"/>
      <point x="271.6412" y="405.556"/>
      <point x="330.7464" y="452.218"/>
      <point x="330.7464" y="543.3199999999999" type="curve" smooth="yes"/>
      <point x="330.7464" y="633.5332000000001"/>
      <point x="271.6412" y="681.0840000000001"/>
      <point x="180.5392" y="681.0840000000001" type="curve" smooth="yes"/>
      <point x="89.4372" y="681.0840000000001"/>
      <point x="30.332" y="633.5332000000001"/>
      <point x="30.332" y="543.3199999999999" type="curve" smooth="yes"/>
      <point x="30.332" y="452.218"/>
      <point x="89.4372" y="405.556"/>
    </contour>
    <contour>
      <point x="180.5392" y="423.332" type="curve" smooth="yes"/>
      <point x="105.43560000000001" y="423.332"/>
      <point x="49.885600000000004" y="459.3284"/>
      <point x="49.885600000000004" y="543.3199999999999" type="curve" smooth="yes"/>
      <point x="49.885600000000004" y="625.9784"/>
      <point x="105.43560000000001" y="663.308"/>
      <point x="180.5392" y="663.308" type="curve" smooth="yes"/>
      <point x="255.64280000000002" y="663.308"/>
      <point x="311.19280000000003" y="625.9784"/>
      <point x="311.19280000000003" y="543.3199999999999" type="curve" smooth="yes"/>
      <point x="311.19280000000003" y="459.3284"/>
      <point x="255.64280000000002" y="423.332"/>
    </contour>
  </outline>
</glyph>
<glyph name="degree" format="2">
  <advance width="300"/>
  <unicode hex="00B0"/>
  <outline>
    <contour>
      <point x="150" y="480" type="curve" smooth="yes"/>
      <point x="216" y="480"/>
      <point x="270" y="534"/>
      <point x="270" y="600" type="curve" smooth="yes"/>
      <point x="270" y="666"/>
      <point x="216" y="720"/>
      <point x="150" y="720" type="curve" smooth="yes"/>
      <point x="84" y="720"/>
      <point x="30" y="666"/>
      <point x="30" y="600" type="curve" smooth="yes"/>
      <point x="30" y="534"/>
      <point x="84" y="480"/>
    </contour>
    <contour>
      <point x="150" y="525" type="curve" smooth="yes"/>
      <point x="109" y="525"/>
      <point x="75" y="559"/>
      <point x="75" y="600" type="curve" smooth="yes"/>
      <point x="75" y="641"/>
      <point x="109" y="675"/>
      <point x="150" y="675" type="curve" smooth="yes"/>
      <point x="191" y="675"/>
      <point x="225" y="641"/>
      <point x="225" y="600" type="curve" smooth="yes"/>
      <point x="225" y="559"/>
      <point x="191" y="525"/>
    </contour>
  </outline>
</glyph>
<glyph name="twosuperior" format="2">
  <advance width="318"/>
  <unicode hex="00B2"/>
  <outline>
    <contour>
      <point x="30.0" y="445.0" type="line"/>
      <point x="273.0" y="445.0" type="line"/>
      <point x="273.0" y="450.5" type="line"/>
      <point x="278.0" y="475.5" type="line"/>
      <point x="271.5" y="471.0"/>
      <point x="248.0" y="465.5"/>
      <point x="208.0" y="465.5" type="curve" smooth="yes"/>
      <point x="64.0" y="465.5" type="line"/>
      <point x="64.0" y="467.0" type="line"/>
      <point x="78.0" y="480.0"/>
      <point x="111.5" y="507.5"/>
      <point x="151.5" y="534.5" type="curve" smooth="yes"/>
      <point x="210.0" y="574.5"/>
      <point x="263.0" y="616.5"/>
      <point x="263.0" y="672.0" type="curve" smooth="yes"/>
      <point x="263.0" y="715.5"/>
      <point x="237.0" y="750.0"/>
      <point x="156.5" y="750.0" type="curve" smooth="yes"/>
      <point x="96.0" y="750.0"/>
      <point x="54.5" y="730.0"/>
      <point x="40.0" y="715.0" type="curve"/>
      <point x="45.0" y="688.5" type="line"/>
      <point x="45.0" y="683.5" type="line"/>
      <point x="62.5" y="703.5"/>
      <point x="105.0" y="730.0"/>
      <point x="157.5" y="730.0" type="curve" smooth="yes"/>
      <point x="215.0" y="730.0"/>
      <point x="236.0" y="707.5"/>
      <point x="236.0" y="674.5" type="curve" smooth="yes"/>
      <point x="236.0" y="610.0"/>
      <point x="147.0" y="567.0"/>
      <point x="92.5" y="517.5" type="curve" smooth="yes"/>
      <point x="54.5" y="483.0"/>
      <point x="34.5" y="459.0"/>
      <point x="30.0" y="450.5" type="curve"/>
    </contour>
  </outline>
</glyph>
<glyph name="threesuperior" format="2">
  <advance width="328"/>
  <unicode hex="00B3"/>
  <outline>
    <contour>
      <point x="167.0" y="440.0" type="curve" smooth="yes"/>
      <point x="254.0" y="440.0"/>
      <point x="288.0" y="477.0"/>
      <point x="288.0" y="527.5" type="curve" smooth="yes"/>
      <point x="288.0" y="568.0"/>
      <point x="262.0" y="590.5"/>
      <point x="214.0" y="601.0" type="curve"/>
      <point x="214.0" y="602.0" type="line"/>
      <point x="245.5" y="614.5"/>
      <point x="268.0" y="640.0"/>
      <point x="268.0" y="674.5" type="curve" smooth="yes"/>
      <point x="268.0" y="719.5"/>
      <point x="245.5" y="750.0"/>
      <point x="161.5" y="750.0" type="curve" smooth="yes"/>
      <point x="100.0" y="750.0"/>
      <point x="59.0" y="733.0"/>
      <point x="45.0" y="720.0" type="curve"/>
      <point x="50.0" y="693.5" type="line"/>
      <point x="50.0" y="688.5" type="line"/>
      <point x="65.5" y="706.5"/>
      <point x="107.0" y="730.0"/>
      <point x="162.5" y="730.0" type="curve" smooth="yes"/>
      <point x="223.5" y="730.0"/>
      <point x="241.0" y="706.5"/>
      <point x="241.0" y="670.5" type="curve" smooth="yes"/>
      <point x="241.0" y="629.5"/>
      <point x="208.5" y="610.0"/>
      <point x="157.5" y="610.0" type="curve" smooth="yes"/>
      <point x="120.0" y="610.0" type="line"/>
      <point x="120.0" y="587.5" type="line"/>
      <point x="157.5" y="587.5" type="line" smooth="yes"/>
      <point x="218.0" y="587.5"/>
      <point x="261.0" y="571.0"/>
      <point x="261.0" y="531.0" type="curve" smooth="yes"/>
      <point x="261.0" y="488.0"/>
      <point x="237.5" y="460.0"/>
      <point x="158.0" y="460.0" type="curve" smooth="yes"/>
      <point x="97.5" y="460.0"/>
      <point x="58.0" y="482.0"/>
      <point x="45.5" y="498.5" type="curve"/>
      <point x="45.5" y="493.5" type="line"/>
      <point x="40.0" y="465.0" type="line"/>
      <point x="54.5" y="454.5"/>
      <point x="99.0" y="440.0"/>
    </contour>
  </outline>
</glyph>
<glyph name="micro" format="2">
  <advance width="594"/>
  <unicode hex="00B5"/>
  <outline>
    <contour>
      <point x="96" y="-190" type="curve" smooth="yes"/>
      <point x="122" y="-190"/>
      <point x="126" y="-172"/>
      <point x="126" y="-130" type="curve" smooth="yes"/>
      <point x="126" y="-34"/>
      <point x="94" y="56"/>
      <point x="68" y="253" type="curve"/>
      <point x="68" y="-119" type="line" smooth="yes"/>
      <point x="68" y="-162"/>
      <point x="73" y="-190"/>
    </contour>
    <component base="u"/>
  </outline>
</glyph>
<glyph name="paragraph" format="2">
  <advance width="502"/>
  <unicode hex="00B6"/>
  <outline>
    <contour>
      <point x="186" y="-80" type="curve" smooth="yes"/>
      <point x="274" y="-80" type="line" smooth="yes"/>
      <point x="265" y="-80"/>
      <point x="253" y="-63"/>
      <point x="253" y="-20" type="curve" smooth="yes"/>
      <point x="253" y="560" type="line"/>
      <point x="384" y="560" type="line"/>
      <point x="384" y="-20" type="line" smooth="yes"/>
      <point x="384" y="-63"/>
      <point x="373" y="-80"/>
      <point x="364" y="-80" type="curve" smooth="yes"/>
      <point x="452" y="-80" type="line" smooth="yes"/>
      <point x="443" y="-80"/>
      <point x="431" y="-63"/>
      <point x="431" y="-20" type="curve" smooth="yes"/>
      <point x="431" y="539" type="line" smooth="yes"/>
      <point x="431" y="583"/>
      <point x="443" y="600"/>
      <point x="452" y="600" type="curve" smooth="yes"/>
      <point x="206" y="600" type="line" smooth="yes"/>
      <point x="99" y="600"/>
      <point x="50" y="562"/>
      <point x="50" y="463" type="curve" smooth="yes"/>
      <point x="50" y="455" type="line" smooth="yes"/>
      <point x="50" y="365"/>
      <point x="98" y="322"/>
      <point x="206" y="322" type="curve"/>
      <point x="206" y="-20" type="line" smooth="yes"/>
      <point x="206" y="-63"/>
      <point x="195" y="-80"/>
    </contour>
  </outline>
</glyph>
<glyph name="questiondown" format="2">
  <advance width="536"/>
  <unicode hex="00BF"/>
  <outline>
    <contour>
      <point x="263" y="-130" type="curve" smooth="yes"/>
      <point x="363" y="-130"/>
      <point x="432" y="-96"/>
      <point x="456" y="-70" type="curve"/>
      <point x="446" y="-27" type="line"/>
      <point x="446" y="3" type="line"/>
      <point x="418" y="-33"/>
      <point x="352" y="-81"/>
      <point x="278" y="-81" type="curve" smooth="yes"/>
      <point x="200" y="-81"/>
      <point x="152" y="-51"/>
      <point x="152" y="1" type="curve" smooth="yes"/>
      <point x="152" y="91"/>
      <point x="263" y="109"/>
      <point x="315" y="161" type="curve" smooth="yes"/>
      <point x="333" y="179"/>
      <point x="340" y="201"/>
      <point x="340" y="230" type="curve" smooth="yes"/>
      <point x="340" y="266"/>
      <point x="333" y="292"/>
      <point x="320" y="292" type="curve" smooth="yes"/>
      <point x="310" y="292"/>
      <point x="312" y="258"/>
      <point x="293" y="228" type="curve" smooth="yes"/>
      <point x="276" y="201"/>
      <point x="258" y="187"/>
      <point x="195" y="155" type="curve" smooth="yes"/>
      <point x="127" y="120"/>
      <point x="80" y="72"/>
      <point x="80" y="6" type="curve" smooth="yes"/>
      <point x="80" y="-62"/>
      <point x="129" y="-130"/>
    </contour>
    <component base="period" xOffset="200" yOffset="380"/>
  </outline>
</glyph>
<glyph name="AE" format="2">
  <advance width="1008"/>
  <unicode hex="00C6"/>
  <anchor x="513" y="0" name="bottom"/>
  <anchor x="513" y="600" name="top"/>
  <outline>
    <contour>
      <point x="5" y="0" type="curve"/>
      <point x="113" y="0" type="line" smooth="yes"/>
      <point x="104" y="0"/>
      <point x="96" y="16"/>
      <point x="107" y="61" type="curve" smooth="yes"/>
      <point x="113" y="85"/>
      <point x="128" y="122"/>
      <point x="134" y="137" type="curve" smooth="yes"/>
      <point x="146" y="165"/>
      <point x="147" y="166"/>
      <point x="186" y="166" type="curve" smooth="yes"/>
      <point x="434" y="166" type="line"/>
      <point x="434" y="206" type="line"/>
      <point x="207" y="206" type="line" smooth="yes"/>
      <point x="168" y="206"/>
      <point x="171" y="214"/>
      <point x="180" y="236" type="curve"/>
      <point x="181" y="237"/>
      <point x="263" y="421"/>
      <point x="324" y="560" type="curve"/>
      <point x="434" y="560" type="line"/>
      <point x="434" y="600" type="line"/>
      <point x="278" y="600" type="line" smooth="yes"/>
      <point x="285" y="600"/>
      <point x="288" y="583"/>
      <point x="268" y="540" type="curve" smooth="yes"/>
      <point x="240" y="478"/>
      <point x="75" y="119"/>
      <point x="45" y="61" type="curve" smooth="yes"/>
      <point x="23" y="19"/>
      <point x="9" y="1"/>
    </contour>
    <component base="E" xOffset="335"/>
  </outline>
</glyph>
<glyph name="multiply" format="2">
  <advance width="388"/>
  <unicode hex="00D7"/>
  <outline>
    <contour>
      <point x="60" y="134" type="line"/>
      <point x="32" y="162" type="line"/>
      <point x="336" y="466" type="line"/>
      <point x="364" y="438" type="line"/>
    </contour>
    <contour>
      <point x="336" y="134" type="line"/>
      <point x="32" y="438" type="line"/>
      <point x="60" y="466" type="line"/>
      <point x="364" y="162" type="line"/>
    </contour>
  </outline>
</glyph>
<glyph name="Thorn" format="2">
  <advance width="688"/>
  <unicode hex="00DE"/>
  <outline>
    <contour>
      <point x="71" y="0" type="curve" smooth="yes"/>
      <point x="164" y="0" type="line" smooth="yes"/>
      <point x="155" y="0"/>
      <point x="143" y="17"/>
      <point x="143" y="60" type="curve" smooth="yes"/>
      <point x="143" y="96" type="line"/>
      <point x="398" y="96" type="line" smooth="yes"/>
      <point x="604" y="96"/>
      <point x="638" y="168"/>
      <point x="638" y="300" type="curve" smooth="yes"/>
      <point x="638" y="421"/>
      <point x="580" y="485"/>
      <point x="398" y="485" type="curve" smooth="yes"/>
      <point x="143" y="485" type="line"/>
      <point x="143" y="600" type="line"/>
      <point x="70" y="600" type="line"/>
      <point x="79" y="599"/>
      <point x="91" y="582"/>
      <point x="91" y="540" type="curve" smooth="yes"/>
      <point x="91" y="60" type="line" smooth="yes"/>
      <point x="91" y="17"/>
      <point x="80" y="0"/>
    </contour>
    <contour>
      <point x="184" y="133" type="line" smooth="yes"/>
      <point x="143" y="133"/>
      <point x="143" y="134"/>
      <point x="143" y="161" type="curve" smooth="yes"/>
      <point x="143" y="418" type="line" smooth="yes"/>
      <point x="143" y="445"/>
      <point x="143" y="445"/>
      <point x="184" y="445" type="curve" smooth="yes"/>
      <point x="398" y="445" type="line" smooth="yes"/>
      <point x="527" y="445"/>
      <point x="585" y="413"/>
      <point x="585" y="300" type="curve" smooth="yes"/>
      <point x="585" y="188"/>
      <point x="553" y="133"/>
      <point x="398" y="133" type="curve" smooth="yes"/>
    </contour>
  </outline>
</glyph>
<glyph name="germandbls" format="2">
  <advance width="667"/>
  <unicode hex="00DF"/>
  <outline>
    <contour>
      <point x="83" y="-110" type="curve" smooth="yes"/>
      <point x="149" y="-110"/>
      <point x="193" y="-71"/>
      <point x="193" y="30" type="curve" smooth="yes"/>
      <point x="193" y="414" type="line" smooth="yes"/>
      <point x="193" y="564"/>
      <point x="252" y="631"/>
      <point x="347" y="631" type="curve" smooth="yes"/>
      <point x="426" y="631"/>
      <point x="465" y="567"/>
      <point x="465" y="502" type="curve" smooth="yes"/>
      <point x="465" y="488" type="line"/>
      <point x="424" y="466"/>
      <point x="384" y="429"/>
      <point x="384" y="369" type="curve" smooth="yes"/>
      <point x="384" y="328"/>
      <point x="408" y="294"/>
      <point x="464" y="257" type="curve" smooth="yes"/>
      <point x="521" y="219"/>
      <point x="565" y="192"/>
      <point x="565" y="130" type="curve" smooth="yes"/>
      <point x="565" y="70"/>
      <point x="521" y="31"/>
      <point x="449" y="31" type="curve" smooth="yes"/>
      <point x="360" y="31"/>
      <point x="293" y="77"/>
      <point x="267" y="112" type="curve"/>
      <point x="267" y="92" type="line"/>
      <point x="257" y="51" type="line"/>
      <point x="275" y="25"/>
      <point x="338" y="-10"/>
      <point x="447" y="-10" type="curve" smooth="yes"/>
      <point x="592" y="-10"/>
      <point x="627" y="68"/>
      <point x="627" y="138" type="curve" smooth="yes"/>
      <point x="627" y="217"/>
      <point x="572" y="254"/>
      <point x="487" y="302" type="curve" smooth="yes"/>
      <point x="442" y="328"/>
      <point x="432" y="359"/>
      <point x="432" y="381" type="curve" smooth="yes"/>
      <point x="432" y="417"/>
      <point x="463" y="457"/>
      <point x="523" y="468" type="curve"/>
      <point x="520" y="468"/>
      <point x="517" y="480"/>
      <point x="517" y="511" type="curve" smooth="yes"/>
      <point x="517" y="594"/>
      <point x="454" y="671"/>
      <point x="345" y="671" type="curve" smooth="yes"/>
      <point x="229" y="671"/>
      <point x="142" y="586"/>
      <point x="142" y="431" type="curve" smooth="yes"/>
      <point x="142" y="29" type="line" smooth="yes"/>
      <point x="142" y="-51"/>
      <point x="115" y="-70"/>
      <point x="65" y="-70" type="curve" smooth="yes"/>
      <point x="47" y="-70"/>
      <point x="29" y="-64"/>
      <point x="20" y="-59" type="curve"/>
      <point x="20" y="-100" type="line"/>
      <point x="28" y="-104"/>
      <point x="50" y="-110"/>
    </contour>
    <contour>
      <point x="70" y="418" type="line"/>
      <point x="190" y="418" type="line"/>
      <point x="190" y="468" type="line"/>
      <point x="70" y="468" type="line"/>
    </contour>
  </outline>
</glyph>
<glyph name="ae" format="2">
  <advance width="1015"/>
  <unicode hex="00E6"/>
  <anchor x="523" y="0" name="bottom"/>
  <anchor x="523" y="468" name="top"/>
  <outline>
    <contour>
      <point x="238" y="0" type="curve" smooth="yes"/>
      <point x="397" y="0"/>
      <point x="469" y="59"/>
      <point x="485" y="71" type="curve" smooth="yes"/>
      <point x="501" y="83"/>
      <point x="545" y="131"/>
      <point x="545" y="190" type="curve" smooth="yes"/>
      <point x="545" y="270" type="line" smooth="yes"/>
      <point x="545" y="418"/>
      <point x="475" y="488"/>
      <point x="304" y="488" type="curve" smooth="yes"/>
      <point x="189" y="488"/>
      <point x="103" y="465"/>
      <point x="70" y="448" type="curve"/>
      <point x="80" y="413" type="line"/>
      <point x="80" y="383" type="line"/>
      <point x="109" y="411"/>
      <point x="188" y="448"/>
      <point x="296" y="448" type="curve" smooth="yes"/>
      <point x="438" y="448"/>
      <point x="484" y="401"/>
      <point x="485" y="243" type="curve"/>
      <point x="457" y="271"/>
      <point x="396" y="296"/>
      <point x="276" y="296" type="curve" smooth="yes"/>
      <point x="100" y="296"/>
      <point x="40" y="231"/>
      <point x="40" y="146" type="curve" smooth="yes"/>
      <point x="40" y="64"/>
      <point x="97" y="0"/>
    </contour>
    <contour>
      <point x="271" y="41" type="curve" smooth="yes"/>
      <point x="164" y="41"/>
      <point x="101" y="75"/>
      <point x="101" y="146" type="curve" smooth="yes"/>
      <point x="101" y="220"/>
      <point x="163" y="256"/>
      <point x="282" y="256" type="curve" smooth="yes"/>
      <point x="416" y="256"/>
      <point x="485" y="218"/>
      <point x="485" y="157" type="curve" smooth="yes"/>
      <point x="485" y="88"/>
      <point x="397" y="41"/>
    </contour>
    <component base="e" xOffset="460"/>
  </outline>
</glyph>
<glyph name="thorn" format="2">
  <advance width="614"/>
  <unicode hex="00FE"/>
  <outline>
    <contour>
      <point x="48" y="-222" type="curve" smooth="yes"/>
      <point x="139" y="-222" type="line" smooth="yes"/>
      <point x="130" y="-222"/>
      <point x="118" y="-205"/>
      <point x="118" y="-162" type="curve" smooth="yes"/>
      <point x="118" y="57" type="line"/>
      <point x="116" y="76" type="line"/>
      <point x="118" y="77" type="line"/>
      <point x="154" y="26"/>
      <point x="211" y="-10"/>
      <point x="326" y="-10" type="curve" smooth="yes"/>
      <point x="508" y="-10"/>
      <point x="574" y="94"/>
      <point x="574" y="233" type="curve" smooth="yes"/>
      <point x="574" y="377"/>
      <point x="503" y="478"/>
      <point x="326" y="478" type="curve" smooth="yes"/>
      <point x="205" y="478"/>
      <point x="143" y="424"/>
      <point x="118" y="389" type="curve"/>
      <point x="116" y="391" type="line"/>
      <point x="118" y="410" type="line"/>
      <point x="118" y="689" type="line"/>
      <point x="48" y="689" type="line"/>
      <point x="57" y="688"/>
      <point x="68" y="671"/>
      <point x="68" y="629" type="curve" smooth="yes"/>
      <point x="68" y="-162" type="line" smooth="yes"/>
      <point x="68" y="-205"/>
      <point x="57" y="-222"/>
    </contour>
    <contour>
      <point x="316" y="30" type="curve" smooth="yes"/>
      <point x="184" y="30"/>
      <point x="118" y="106"/>
      <point x="118" y="232" type="curve" smooth="yes"/>
      <point x="118" y="366"/>
      <point x="190" y="438"/>
      <point x="316" y="438" type="curve" smooth="yes"/>
      <point x="455" y="438"/>
      <point x="522" y="370"/>
      <point x="522" y="233" type="curve" smooth="yes"/>
      <point x="522" y="96"/>
      <point x="456" y="30"/>
    </contour>
  </outline>
</glyph>
<glyph name="idotless" format="2">
  <advance width="200"/>
  <unicode hex="0131"/>
  <anchor x="99" y="0" name="bottom"/>
  <anchor x="188" y="7" name="ogonek"/>
  <anchor x="99" y="468" name="top"/>
  <outline>
    <contour>
      <point x="48" y="0" type="curve" smooth="yes"/>
      <point x="150" y="0" type="line" smooth="yes"/>
      <point x="141" y="0"/>
      <point x="130" y="17"/>
      <point x="130" y="60" type="curve" smooth="yes"/>
      <point x="130" y="468" type="line"/>
      <point x="48" y="468" type="line"/>
      <point x="57" y="467"/>
      <point x="68" y="450"/>
      <point x="68" y="408" type="curve" smooth="yes"/>
      <point x="68" y="60" type="line" smooth="yes"/>
      <point x="68" y="17"/>
      <point x="57" y="0"/>
    </contour>
  </outline>
</glyph>
<glyph name="Eng" format="2">
  <advance width="744"/>
  <unicode hex="014A"/>
  <outline>
    <contour>
      <point x="70" y="0" type="curve" smooth="yes"/>
      <point x="165" y="0" type="line" smooth="yes"/>
      <point x="156" y="0"/>
      <point x="144" y="17"/>
      <point x="144" y="60" type="curve" smooth="yes"/>
      <point x="144" y="557" type="line"/>
      <point x="147" y="557" type="line"/>
      <point x="286" y="389"/>
      <point x="483" y="147"/>
      <point x="564" y="53" type="curve" smooth="yes"/>
      <point x="596" y="16"/>
      <point x="604" y="1"/>
      <point x="604" y="-39" type="curve" smooth="yes"/>
      <point x="604" y="-95"/>
      <point x="570" y="-133"/>
      <point x="505" y="-133" type="curve"/>
      <point x="505" y="-173" type="line"/>
      <point x="526" y="-173" type="line" smooth="yes"/>
      <point x="603" y="-173"/>
      <point x="653" y="-118"/>
      <point x="653" y="-20" type="curve" smooth="yes"/>
      <point x="653" y="539" type="line" smooth="yes"/>
      <point x="653" y="583"/>
      <point x="665" y="600"/>
      <point x="674" y="600" type="curve" smooth="yes"/>
      <point x="580" y="600" type="line"/>
      <point x="589" y="599"/>
      <point x="601" y="582"/>
      <point x="601" y="540" type="curve" smooth="yes"/>
      <point x="601" y="85" type="line"/>
      <point x="599" y="85" type="line"/>
      <point x="473" y="236"/>
      <point x="348" y="387"/>
      <point x="222" y="538" type="curve" smooth="yes"/>
      <point x="183" y="582"/>
      <point x="173" y="599"/>
      <point x="176" y="600" type="curve"/>
      <point x="70" y="600" type="line"/>
      <point x="79" y="599"/>
      <point x="91" y="582"/>
      <point x="91" y="540" type="curve" smooth="yes"/>
      <point x="91" y="60" type="line" smooth="yes"/>
      <point x="91" y="17"/>
      <point x="79" y="0"/>
    </contour>
  </outline>
</glyph>
<glyph name="eng" format="2">
  <advance width="583"/>
  <unicode hex="014B"/>
  <outline>
    <contour>
      <point x="48" y="0" type="curve" smooth="yes"/>
      <point x="140" y="0" type="line" smooth="yes"/>
      <point x="131" y="0"/>
      <point x="120" y="17"/>
      <point x="120" y="60" type="curve" smooth="yes"/>
      <point x="120" y="227" type="line" smooth="yes"/>
      <point x="120" y="352"/>
      <point x="206" y="438"/>
      <point x="321" y="438" type="curve" smooth="yes"/>
      <point x="446" y="438"/>
      <point x="489" y="374"/>
      <point x="489" y="256" type="curve" smooth="yes"/>
      <point x="489" y="251"/>
      <point x="489" y="119"/>
      <point x="489" y="60" type="curve" smooth="yes"/>
      <point x="489" y="0" type="line"/>
      <point x="541" y="0" type="line"/>
      <point x="541" y="7"/>
      <point x="541" y="29"/>
      <point x="541" y="60" type="curve" smooth="yes"/>
      <point x="541" y="259" type="line" smooth="yes"/>
      <point x="541" y="410"/>
      <point x="474" y="478"/>
      <point x="339" y="478" type="curve" smooth="yes"/>
      <point x="222" y="478"/>
      <point x="147" y="425"/>
      <point x="120" y="371" type="curve"/>
      <point x="118" y="373" type="line"/>
      <point x="120" y="386" type="line"/>
      <point x="120" y="478" type="line"/>
      <point x="111" y="469"/>
      <point x="85" y="458"/>
      <point x="48" y="458" type="curve"/>
      <point x="57" y="457"/>
      <point x="68" y="440"/>
      <point x="68" y="398" type="curve" smooth="yes"/>
      <point x="68" y="60" type="line" smooth="yes"/>
      <point x="68" y="17"/>
      <point x="57" y="0"/>
    </contour>
    <contour>
      <point x="389" y="-173" type="line"/>
      <point x="400" y="-173" type="line" smooth="yes"/>
      <point x="503" y="-173"/>
      <point x="541" y="-109"/>
      <point x="541" y="0" type="curve" smooth="yes"/>
      <point x="541" y="60" type="line"/>
      <point x="489" y="60" type="line"/>
      <point x="489" y="-10" type="line" smooth="yes"/>
      <point x="489" y="-100"/>
      <point x="462" y="-133"/>
      <point x="389" y="-133" type="curve"/>
    </contour>
  </outline>
</glyph>
<glyph name="OE" format="2">
  <advance width="1123"/>
  <unicode hex="0152"/>
  <outline>
    <contour>
      <point x="373" y="-10" type="curve" smooth="yes"/>
      <point x="526" y="-10"/>
      <point x="579" y="19"/>
      <point x="576" y="40" type="curve"/>
      <point x="576" y="111" type="line" smooth="yes"/>
      <point x="576" y="77"/>
      <point x="530" y="31"/>
      <point x="404" y="31" type="curve" smooth="yes"/>
      <point x="170" y="31"/>
      <point x="104" y="126"/>
      <point x="104" y="300" type="curve" smooth="yes"/>
      <point x="104" y="461"/>
      <point x="171" y="570"/>
      <point x="375" y="570" type="curve" smooth="yes"/>
      <point x="512" y="570"/>
      <point x="570" y="530"/>
      <point x="576" y="500" type="curve"/>
      <point x="576" y="580" type="line"/>
      <point x="564" y="593"/>
      <point x="500" y="610"/>
      <point x="373" y="610" type="curve" smooth="yes"/>
      <point x="135" y="610"/>
      <point x="50" y="485"/>
      <point x="50" y="300" type="curve" smooth="yes"/>
      <point x="50" y="85"/>
      <point x="148" y="-10"/>
    </contour>
    <component base="E" xOffset="450"/>
  </outline>
</glyph>
<glyph name="Schwa" format="2">
  <advance width="618"/>
  <unicode hex="018F"/>
  <outline>
    <contour>
      <point x="304" y="-10" type="curve" smooth="yes"/>
      <point x="470" y="-10"/>
      <point x="576" y="98"/>
      <point x="576" y="304" type="curve" smooth="yes"/>
      <point x="576" y="486"/>
      <point x="494" y="608"/>
      <point x="284" y="608" type="curve" smooth="yes"/>
      <point x="171" y="608"/>
      <point x="95" y="585"/>
      <point x="70" y="568" type="curve"/>
      <point x="80" y="538" type="line"/>
      <point x="80" y="508" type="line"/>
      <point x="120" y="534"/>
      <point x="202" y="568"/>
      <point x="284" y="568" type="curve" smooth="yes"/>
      <point x="456" y="568"/>
      <point x="522" y="451"/>
      <point x="522" y="305" type="curve"/>
      <point x="40" y="305" type="line"/>
      <point x="40" y="233" type="line" smooth="yes"/>
      <point x="40" y="91"/>
      <point x="117" y="-10"/>
    </contour>
    <contour>
      <point x="304" y="30" type="curve" smooth="yes"/>
      <point x="184" y="30"/>
      <point x="94" y="94"/>
      <point x="94" y="223" type="curve" smooth="yes"/>
      <point x="94" y="265" type="line"/>
      <point x="522" y="265" type="line"/>
      <point x="522" y="108"/>
      <point x="431" y="30"/>
    </contour>
  </outline>
</glyph>
<glyph name="florin" format="2">
  <advance width="589"/>
  <unicode hex="0192"/>
  <outline>
    <contour>
      <point x="137" y="-90" type="curve" smooth="yes"/>
      <point x="263" y="-90"/>
      <point x="306" y="7"/>
      <point x="306" y="150" type="curve" smooth="yes"/>
      <point x="306" y="467" type="line" smooth="yes"/>
      <point x="306" y="598"/>
      <point x="337" y="679"/>
      <point x="427" y="679" type="curve" smooth="yes"/>
      <point x="501" y="679"/>
      <point x="552" y="645"/>
      <point x="569" y="619" type="curve"/>
      <point x="569" y="649" type="line"/>
      <point x="579" y="679" type="line"/>
      <point x="560" y="696"/>
      <point x="507" y="719"/>
      <point x="435" y="719" type="curve" smooth="yes"/>
      <point x="304" y="719"/>
      <point x="254" y="636"/>
      <point x="254" y="467" type="curve" smooth="yes"/>
      <point x="254" y="160" type="line" smooth="yes"/>
      <point x="254" y="2"/>
      <point x="209" y="-51"/>
      <point x="125" y="-51" type="curve" smooth="yes"/>
      <point x="72" y="-51"/>
      <point x="34" y="-16"/>
      <point x="20" y="11" type="curve"/>
      <point x="20" y="-19" type="line"/>
      <point x="10" y="-59" type="line"/>
      <point x="23" y="-72"/>
      <point x="66" y="-90"/>
    </contour>
    <contour>
      <point x="140" y="418" type="curve"/>
      <point x="149" y="422"/>
      <point x="187" y="428"/>
      <point x="260" y="428" type="curve" smooth="yes"/>
      <point x="436" y="428" type="line"/>
      <point x="436" y="441"/>
      <point x="447" y="464"/>
      <point x="456" y="478" type="curve"/>
      <point x="449" y="474"/>
      <point x="417" y="468"/>
      <point x="356" y="468" type="curve" smooth="yes"/>
      <point x="160" y="468" type="line"/>
      <point x="160" y="450"/>
      <point x="149" y="429"/>
    </contour>
  </outline>
</glyph>
<glyph name="Nhookleft" format="2">
  <advance width="662"/>
  <unicode hex="019D"/>
  <outline>
    <contour>
      <point x="-38" y="-182" type="curve" smooth="yes"/>
      <point x="49" y="-182"/>
      <point x="62" y="-121"/>
      <point x="62" y="-49" type="curve" smooth="yes"/>
      <point x="62" y="557" type="line"/>
      <point x="65" y="557" type="line"/>
      <point x="91" y="525"/>
      <point x="401" y="146"/>
      <point x="474" y="62" type="curve" smooth="yes"/>
      <point x="508" y="23"/>
      <point x="517" y="4"/>
      <point x="514" y="0" type="curve"/>
      <point x="592" y="0" type="line" smooth="yes"/>
      <point x="583" y="0"/>
      <point x="571" y="17"/>
      <point x="571" y="60" type="curve" smooth="yes"/>
      <point x="571" y="539" type="line" smooth="yes"/>
      <point x="571" y="583"/>
      <point x="583" y="600"/>
      <point x="592" y="600" type="curve" smooth="yes"/>
      <point x="498" y="600" type="line"/>
      <point x="507" y="599"/>
      <point x="519" y="582"/>
      <point x="519" y="540" type="curve" smooth="yes"/>
      <point x="519" y="85" type="line"/>
      <point x="517" y="85" type="line"/>
      <point x="442" y="174"/>
      <point x="174" y="500"/>
      <point x="140" y="538" type="curve" smooth="yes"/>
      <point x="101" y="582"/>
      <point x="91" y="599"/>
      <point x="94" y="600" type="curve"/>
      <point x="-12" y="600" type="line"/>
      <point x="-3" y="599"/>
      <point x="9" y="582"/>
      <point x="9" y="540" type="curve" smooth="yes"/>
      <point x="9" y="-48" type="line" smooth="yes"/>
      <point x="9" y="-102"/>
      <point x="-4" y="-132"/>
      <point x="-40" y="-132" type="curve" smooth="yes"/>
      <point x="-62" y="-132"/>
      <point x="-88" y="-121"/>
      <point x="-102" y="-112" type="curve"/>
      <point x="-92" y="-142" type="line"/>
      <point x="-92" y="-172" type="line"/>
      <point x="-84" y="-176"/>
      <point x="-73" y="-182"/>
    </contour>
  </outline>
</glyph>
<glyph name="jdotless" format="2">
  <advance width="173"/>
  <unicode hex="0237"/>
  <anchor x="84" y="0" name="bottom"/>
  <anchor x="94" y="468" name="top"/>
  <outline>
    <contour>
      <point x="-12" y="-244" type="curve" smooth="yes"/>
      <point x="71" y="-244"/>
      <point x="128" y="-192"/>
      <point x="128" y="-59" type="curve" smooth="yes"/>
      <point x="128" y="468" type="line"/>
      <point x="48" y="468" type="line"/>
      <point x="57" y="467"/>
      <point x="68" y="450"/>
      <point x="68" y="408" type="curve" smooth="yes"/>
      <point x="68" y="-95" type="line" smooth="yes"/>
      <point x="68" y="-173"/>
      <point x="41" y="-205"/>
      <point x="-10" y="-205" type="curve" smooth="yes"/>
      <point x="-49" y="-205"/>
      <point x="-80" y="-182"/>
      <point x="-92" y="-164" type="curve"/>
      <point x="-92" y="-194" type="line"/>
      <point x="-102" y="-224" type="line"/>
      <point x="-94" y="-233"/>
      <point x="-65" y="-244"/>
    </contour>
  </outline>
</glyph>
<glyph name="schwa" format="2">
  <advance width="588"/>
  <unicode hex="0259"/>
  <outline>
    <contour>
      <point x="293" y="-10" type="curve" smooth="yes"/>
      <point x="459" y="-10"/>
      <point x="546" y="89"/>
      <point x="546" y="234" type="curve" smooth="yes"/>
      <point x="546" y="371"/>
      <point x="483" y="478"/>
      <point x="284" y="478" type="curve" smooth="yes"/>
      <point x="169" y="478"/>
      <point x="94" y="455"/>
      <point x="70" y="438" type="curve"/>
      <point x="80" y="408" type="line"/>
      <point x="80" y="378" type="line"/>
      <point x="107" y="404"/>
      <point x="181" y="438"/>
      <point x="284" y="438" type="curve" smooth="yes"/>
      <point x="405" y="438"/>
      <point x="484" y="373"/>
      <point x="484" y="255" type="curve"/>
      <point x="40" y="255" type="line"/>
      <point x="40" y="213" type="line" smooth="yes"/>
      <point x="40" y="76"/>
      <point x="111" y="-10"/>
    </contour>
    <contour>
      <point x="293" y="30" type="curve" smooth="yes"/>
      <point x="159" y="30"/>
      <point x="102" y="102"/>
      <point x="102" y="203" type="curve" smooth="yes"/>
      <point x="102" y="215" type="line"/>
      <point x="484" y="215" type="line"/>
      <point x="484" y="84"/>
      <point x="408" y="30"/>
    </contour>
  </outline>
</glyph>
<glyph name="nhookleft" format="2">
  <advance width="554"/>
  <unicode hex="0272"/>
  <outline>
    <contour>
      <point x="19" y="0" type="line"/>
      <point x="71" y="0" type="line"/>
      <point x="71" y="60" type="line"/>
      <point x="71" y="227" type="line" smooth="yes"/>
      <point x="71" y="360"/>
      <point x="163" y="438"/>
      <point x="272" y="438" type="curve" smooth="yes"/>
      <point x="384" y="438"/>
      <point x="440" y="387"/>
      <point x="440" y="256" type="curve" smooth="yes"/>
      <point x="440" y="60" type="line" smooth="yes"/>
      <point x="440" y="17"/>
      <point x="429" y="0"/>
      <point x="420" y="0" type="curve" smooth="yes"/>
      <point x="512" y="0" type="line" smooth="yes"/>
      <point x="503" y="0"/>
      <point x="492" y="17"/>
      <point x="492" y="60" type="curve" smooth="yes"/>
      <point x="492" y="259" type="line" smooth="yes"/>
      <point x="492" y="410"/>
      <point x="422" y="478"/>
      <point x="290" y="478" type="curve" smooth="yes"/>
      <point x="167" y="478"/>
      <point x="101" y="421"/>
      <point x="71" y="371" type="curve"/>
      <point x="69" y="373" type="line"/>
      <point x="71" y="386" type="line"/>
      <point x="71" y="478" type="line"/>
      <point x="65" y="469"/>
      <point x="41" y="458"/>
      <point x="-1" y="458" type="curve"/>
      <point x="8" y="457"/>
      <point x="19" y="440"/>
      <point x="19" y="398" type="curve" smooth="yes"/>
      <point x="19" y="60" type="line"/>
    </contour>
    <contour>
      <point x="-27" y="-182" type="curve" smooth="yes"/>
      <point x="28" y="-182"/>
      <point x="71" y="-150"/>
      <point x="71" y="-60" type="curve" smooth="yes"/>
      <point x="71" y="1" type="line"/>
      <point x="19" y="1" type="line"/>
      <point x="19" y="-39" type="line" smooth="yes"/>
      <point x="19" y="-101"/>
      <point x="13" y="-133"/>
      <point x="-39" y="-133" type="curve" smooth="yes"/>
      <point x="-62" y="-133"/>
      <point x="-88" y="-122"/>
      <point x="-102" y="-113" type="curve"/>
      <point x="-91" y="-144" type="line"/>
      <point x="-91" y="-173" type="line"/>
      <point x="-81" y="-177"/>
      <point x="-57" y="-182"/>
    </contour>
  </outline>
</glyph>
<glyph name="primemod" format="2">
  <advance width="153"/>
  <unicode hex="02B9"/>
  <outline>
    <contour>
      <point x="57" y="510" type="curve" smooth="yes"/>
      <point x="73" y="510"/>
      <point x="103" y="695"/>
      <point x="103" y="732" type="curve" smooth="yes"/>
      <point x="103" y="746"/>
      <point x="104" y="760"/>
      <point x="83" y="760" type="curve" smooth="yes"/>
      <point x="74" y="760" type="line" smooth="yes"/>
      <point x="52" y="760"/>
      <point x="53" y="750"/>
      <point x="53" y="731" type="curve" smooth="yes"/>
      <point x="53" y="646"/>
      <point x="45" y="510"/>
    </contour>
  </outline>
</glyph>
<glyph name="apostrophemod" format="2">
  <advance width="230"/>
  <unicode hex="02BC"/>
  <outline>
    <contour>
      <point x="64" y="530" type="line"/>
      <point x="113" y="545"/>
      <point x="175" y="591"/>
      <point x="175" y="670" type="curve" smooth="yes"/>
      <point x="175" y="718"/>
      <point x="151" y="760"/>
      <point x="100" y="760" type="curve" smooth="yes"/>
      <point x="76" y="760"/>
      <point x="58" y="745"/>
      <point x="58" y="715" type="curve" smooth="yes"/>
      <point x="58" y="700" type="line"/>
      <point x="102" y="700"/>
      <point x="130" y="686"/>
      <point x="130" y="651" type="curve" smooth="yes"/>
      <point x="130" y="598"/>
      <point x="87" y="572"/>
      <point x="50" y="555" type="curve"/>
    </contour>
  </outline>
</glyph>
<glyph name="gravecomb" format="2">
  <unicode hex="0300"/>
  <anchor x="-232" y="468" name="_top"/>
  <anchor x="-242" y="756" name="top"/>
  <outline>
    <contour>
      <point x="-217" y="560" type="curve" smooth="yes"/>
      <point x="-205" y="560"/>
      <point x="-274" y="672"/>
      <point x="-308" y="720" type="curve" smooth="yes"/>
      <point x="-323" y="741"/>
      <point x="-334" y="750"/>
      <point x="-357" y="750" type="curve" smooth="yes"/>
      <point x="-367" y="750" type="line" smooth="yes"/>
      <point x="-383" y="750"/>
      <point x="-388" y="736"/>
      <point x="-367" y="710" type="curve" smooth="yes"/>
      <point x="-318" y="651"/>
      <point x="-240" y="560"/>
    </contour>
  </outline>
</glyph>
<glyph name="acutecomb" format="2">
  <unicode hex="0301"/>
  <anchor x="-296" y="478" name="_top"/>
  <anchor x="-292" y="755" name="top"/>
  <outline>
    <contour>
      <point x="-338" y="560" type="curve" smooth="yes"/>
      <point x="-319" y="560"/>
      <point x="-246" y="660"/>
      <point x="-204" y="719" type="curve" smooth="yes"/>
      <point x="-189" y="740"/>
      <point x="-189" y="750"/>
      <point x="-207" y="750" type="curve" smooth="yes"/>
      <point x="-218" y="750" type="line" smooth="yes"/>
      <point x="-241" y="750"/>
      <point x="-253" y="742"/>
      <point x="-267" y="720" type="curve" smooth="yes"/>
      <point x="-294" y="679"/>
      <point x="-349" y="560"/>
    </contour>
  </outline>
</glyph>
<glyph name="circumflexcomb" format="2">
  <unicode hex="0302"/>
  <anchor x="-255" y="468" name="_top"/>
  <anchor x="-256" y="646" name="top"/>
  <outline>
    <contour>
      <point x="-390" y="556" type="curve"/>
      <point x="-331" y="556" type="line"/>
      <point x="-256" y="634" type="line"/>
      <point x="-189" y="556" type="line"/>
      <point x="-130" y="556" type="line"/>
      <point x="-164" y="590"/>
      <point x="-212" y="640"/>
      <point x="-224" y="655" type="curve" smooth="yes"/>
      <point x="-233" y="667"/>
      <point x="-237" y="674"/>
      <point x="-237" y="676" type="curve"/>
      <point x="-276" y="676" type="line"/>
      <point x="-276" y="674"/>
      <point x="-279" y="667"/>
      <point x="-290" y="655" type="curve" smooth="yes"/>
      <point x="-312" y="632"/>
      <point x="-360" y="585"/>
    </contour>
  </outline>
</glyph>
<glyph name="tildecomb" format="2">
  <unicode hex="0303"/>
  <anchor x="-300" y="478" name="_top"/>
  <anchor x="-300" y="676" name="top"/>
  <outline>
    <contour>
      <point x="-480" y="556" type="curve"/>
      <point x="-429" y="556" type="line"/>
      <point x="-433" y="560"/>
      <point x="-439" y="572"/>
      <point x="-439" y="587" type="curve" smooth="yes"/>
      <point x="-439" y="616"/>
      <point x="-421" y="636"/>
      <point x="-390" y="636" type="curve" smooth="yes"/>
      <point x="-324" y="636"/>
      <point x="-309" y="556"/>
      <point x="-220" y="556" type="curve" smooth="yes"/>
      <point x="-150" y="556"/>
      <point x="-119" y="615"/>
      <point x="-119" y="676" type="curve"/>
      <point x="-170" y="676" type="line"/>
      <point x="-166" y="675"/>
      <point x="-160" y="668"/>
      <point x="-160" y="655" type="curve" smooth="yes"/>
      <point x="-160" y="621"/>
      <point x="-180" y="596"/>
      <point x="-209" y="596" type="curve" smooth="yes"/>
      <point x="-271" y="596"/>
      <point x="-289" y="676"/>
      <point x="-380" y="676" type="curve" smooth="yes"/>
      <point x="-452" y="676"/>
      <point x="-480" y="610"/>
    </contour>
  </outline>
</glyph>
<glyph name="macroncomb" format="2">
  <unicode hex="0304"/>
  <anchor x="-300" y="478" name="_top"/>
  <anchor x="-300" y="696" name="top"/>
  <outline>
    <contour>
      <point x="-478" y="560" type="curve"/>
      <point x="-469" y="564"/>
      <point x="-431" y="570"/>
      <point x="-358" y="570" type="curve" smooth="yes"/>
      <point x="-142" y="570" type="line"/>
      <point x="-142" y="590"/>
      <point x="-131" y="611"/>
      <point x="-122" y="620" type="curve"/>
      <point x="-129" y="616"/>
      <point x="-161" y="610"/>
      <point x="-222" y="610" type="curve" smooth="yes"/>
      <point x="-458" y="610" type="line"/>
      <point x="-458" y="592"/>
      <point x="-469" y="571"/>
    </contour>
  </outline>
</glyph>
<glyph name="brevecomb" format="2">
  <unicode hex="0306"/>
  <anchor x="-225" y="468" name="_top"/>
  <anchor x="-225" y="636" name="top"/>
  <outline>
    <contour>
      <point x="-225" y="551" type="curve" smooth="yes"/>
      <point x="-105" y="551"/>
      <point x="-70" y="604"/>
      <point x="-70" y="676" type="curve"/>
      <point x="-121" y="676" type="line" smooth="yes"/>
      <point x="-117" y="676"/>
      <point x="-111" y="670"/>
      <point x="-111" y="655" type="curve" smooth="yes"/>
      <point x="-111" y="627"/>
      <point x="-141" y="596"/>
      <point x="-225" y="596" type="curve" smooth="yes"/>
      <point x="-309" y="596"/>
      <point x="-341" y="625"/>
      <point x="-341" y="657" type="curve" smooth="yes"/>
      <point x="-341" y="671"/>
      <point x="-335" y="676"/>
      <point x="-331" y="676" type="curve" smooth="yes"/>
      <point x="-380" y="676" type="line"/>
      <point x="-380" y="611"/>
      <point x="-345" y="551"/>
    </contour>
  </outline>
</glyph>
<glyph name="hookabovecomb" format="2">
  <unicode hex="0309"/>
  <anchor x="-282" y="548" name="_top"/>
  <anchor x="-279" y="740" name="top"/>
  <outline>
    <contour>
      <point x="-300" y="600" type="line"/>
      <point x="-261" y="600" type="line"/>
      <point x="-261" y="653" type="line"/>
      <point x="-202" y="661"/>
      <point x="-160" y="697"/>
      <point x="-160" y="745" type="curve" smooth="yes"/>
      <point x="-160" y="793"/>
      <point x="-201" y="820"/>
      <point x="-266" y="820" type="curve" smooth="yes"/>
      <point x="-316" y="820"/>
      <point x="-360" y="803"/>
      <point x="-380" y="790" type="curve"/>
      <point x="-380" y="740" type="line"/>
      <point x="-362" y="757"/>
      <point x="-319" y="780"/>
      <point x="-266" y="780" type="curve" smooth="yes"/>
      <point x="-229" y="780"/>
      <point x="-216" y="767"/>
      <point x="-216" y="742" type="curve" smooth="yes"/>
      <point x="-216" y="709"/>
      <point x="-249" y="685"/>
      <point x="-300" y="675" type="curve"/>
    </contour>
  </outline>
</glyph>
<glyph name="ringcomb" format="2">
  <unicode hex="030A"/>
  <anchor x="-341" y="468" name="_top"/>
  <anchor x="-341" y="685" name="top"/>
  <outline>
    <contour>
      <point x="-341" y="520" type="curve" smooth="yes"/>
      <point x="-281" y="520"/>
      <point x="-232" y="569"/>
      <point x="-232" y="629" type="curve" smooth="yes"/>
      <point x="-232" y="689"/>
      <point x="-281" y="738"/>
      <point x="-341" y="738" type="curve" smooth="yes"/>
      <point x="-401" y="738"/>
      <point x="-450" y="689"/>
      <point x="-450" y="629" type="curve" smooth="yes"/>
      <point x="-450" y="569"/>
      <point x="-401" y="520"/>
    </contour>
    <contour>
      <point x="-341" y="566" type="curve" smooth="yes"/>
      <point x="-375" y="566"/>
      <point x="-404" y="595"/>
      <point x="-404" y="629" type="curve" smooth="yes"/>
      <point x="-404" y="663"/>
      <point x="-375" y="692"/>
      <point x="-341" y="692" type="curve" smooth="yes"/>
      <point x="-307" y="692"/>
      <point x="-278" y="663"/>
      <point x="-278" y="629" type="curve" smooth="yes"/>
      <point x="-278" y="595"/>
      <point x="-307" y="566"/>
    </contour>
  </outline>
</glyph>
<glyph name="caroncomb" format="2">
  <unicode hex="030C"/>
  <anchor x="-306" y="478" name="_top"/>
  <anchor x="-306" y="676" name="top"/>
  <outline>
    <contour>
      <point x="-440" y="676" type="curve"/>
      <point x="-381" y="676" type="line"/>
      <point x="-306" y="598" type="line"/>
      <point x="-239" y="676" type="line"/>
      <point x="-180" y="676" type="line"/>
      <point x="-214" y="642"/>
      <point x="-262" y="592"/>
      <point x="-274" y="577" type="curve" smooth="yes"/>
      <point x="-283" y="565"/>
      <point x="-287" y="558"/>
      <point x="-287" y="556" type="curve"/>
      <point x="-326" y="556" type="line"/>
      <point x="-326" y="558"/>
      <point x="-329" y="565"/>
      <point x="-340" y="577" type="curve" smooth="yes"/>
      <point x="-362" y="600"/>
      <point x="-410" y="647"/>
    </contour>
  </outline>
</glyph>
<glyph name="dblgravecomb" format="2">
  <unicode hex="030F"/>
  <anchor x="-292" y="468" name="_top"/>
  <anchor x="-292" y="756" name="top"/>
  <outline>
    <contour>
      <point x="-318" y="560" type="curve" smooth="yes"/>
      <point x="-337" y="560"/>
      <point x="-410" y="660"/>
      <point x="-452" y="719" type="curve" smooth="yes"/>
      <point x="-467" y="740"/>
      <point x="-467" y="750"/>
      <point x="-449" y="750" type="curve" smooth="yes"/>
      <point x="-438" y="750" type="line" smooth="yes"/>
      <point x="-415" y="750"/>
      <point x="-403" y="742"/>
      <point x="-389" y="720" type="curve" smooth="yes"/>
      <point x="-362" y="679"/>
      <point x="-307" y="560"/>
    </contour>
    <contour>
      <point x="-208" y="562" type="curve" smooth="yes"/>
      <point x="-227" y="562"/>
      <point x="-300" y="662"/>
      <point x="-342" y="721" type="curve" smooth="yes"/>
      <point x="-357" y="742"/>
      <point x="-357" y="752"/>
      <point x="-339" y="752" type="curve" smooth="yes"/>
      <point x="-328" y="752" type="line" smooth="yes"/>
      <point x="-305" y="752"/>
      <point x="-293" y="744"/>
      <point x="-279" y="722" type="curve" smooth="yes"/>
      <point x="-252" y="681"/>
      <point x="-197" y="562"/>
    </contour>
  </outline>
</glyph>
<glyph name="palatalhookcomb" format="2">
  <unicode hex="0321"/>
  <anchor x="-214" y="0" name="_bottom"/>
  <anchor x="-214" y="-173" name="bottom"/>
  <outline>
    <contour>
      <point x="-225" y="-173" type="curve" smooth="yes"/>
      <point x="-161" y="-173"/>
      <point x="-117" y="-129"/>
      <point x="-117" y="-60" type="curve" smooth="yes"/>
      <point x="-117" y="0" type="line"/>
      <point x="-158" y="0" type="line"/>
      <point x="-158" y="-39" type="line" smooth="yes"/>
      <point x="-158" y="-110"/>
      <point x="-186" y="-133"/>
      <point x="-227" y="-133" type="curve" smooth="yes"/>
      <point x="-253" y="-133"/>
      <point x="-278" y="-123"/>
      <point x="-297" y="-102" type="curve"/>
      <point x="-310" y="-123" type="line"/>
      <point x="-297" y="-149"/>
      <point x="-266" y="-173"/>
    </contour>
  </outline>
</glyph>
<glyph name="ogonekcomb" format="2">
  <unicode hex="0328"/>
  <anchor x="-164" y="10" name="_ogonek"/>
  <outline>
    <contour>
      <point x="-235" y="-170" type="curve" smooth="yes"/>
      <point x="-187" y="-170"/>
      <point x="-152" y="-142"/>
      <point x="-144" y="-130" type="curve"/>
      <point x="-144" y="-90" type="line"/>
      <point x="-157" y="-108"/>
      <point x="-191" y="-130"/>
      <point x="-235" y="-130" type="curve" smooth="yes"/>
      <point x="-273" y="-130"/>
      <point x="-290" y="-111"/>
      <point x="-290" y="-84" type="curve" smooth="yes"/>
      <point x="-290" y="-29"/>
      <point x="-218" y="-1"/>
      <point x="-204" y="3" type="curve"/>
      <point x="-264" y="3" type="line"/>
      <point x="-280" y="-4"/>
      <point x="-330" y="-35"/>
      <point x="-330" y="-87" type="curve" smooth="yes"/>
      <point x="-330" y="-138"/>
      <point x="-294" y="-170"/>
    </contour>
  </outline>
</glyph>
<glyph name="slashshortcomb" format="2">
  <unicode hex="0337"/>
  <anchor x="-318" y="149" name="_center"/>
  <outline>
    <contour>
      <point x="-510" y="-20" type="line"/>
      <point x="-124" y="268" type="line"/>
      <point x="-124" y="318" type="line"/>
      <point x="-510" y="30" type="line"/>
    </contour>
  </outline>
</glyph>
<glyph name="slashlongcomb" format="2">
  <unicode hex="0338"/>
  <anchor x="-323" y="300" name="_center"/>
  <outline>
    <contour>
      <point x="-590" y="-60" type="line"/>
      <point x="-537" y="-60" type="line"/>
      <point x="-53" y="660" type="line"/>
      <point x="-106" y="660" type="line"/>
    </contour>
  </outline>
</glyph>
<glyph name="Delta" format="2">
  <advance width="726"/>
  <unicode hex="0394"/>
  <outline>
    <contour>
      <point x="5" y="0" type="curve"/>
      <point x="724" y="0" type="line"/>
      <point x="719" y="1"/>
      <point x="705" y="19"/>
      <point x="685" y="61" type="curve" smooth="yes"/>
      <point x="654" y="125"/>
      <point x="442" y="570"/>
      <point x="413" y="630" type="curve" smooth="yes"/>
      <point x="393" y="672"/>
      <point x="389" y="689"/>
      <point x="392" y="690" type="curve"/>
      <point x="341" y="690" type="line"/>
      <point x="344" y="689"/>
      <point x="340" y="672"/>
      <point x="320" y="630" type="curve" smooth="yes"/>
      <point x="290" y="569"/>
      <point x="74" y="120"/>
      <point x="45" y="61" type="curve" smooth="yes"/>
      <point x="24" y="18"/>
      <point x="10" y="1"/>
    </contour>
    <contour>
      <point x="129" y="41" type="line" smooth="yes"/>
      <point x="98" y="41"/>
      <point x="93" y="51"/>
      <point x="102" y="71" type="curve" smooth="yes"/>
      <point x="127" y="126"/>
      <point x="267" y="416"/>
      <point x="365" y="620" type="curve"/>
      <point x="367" y="620" type="line"/>
      <point x="465" y="419"/>
      <point x="603" y="131"/>
      <point x="628" y="71" type="curve" smooth="yes"/>
      <point x="636" y="48"/>
      <point x="627" y="41"/>
      <point x="599" y="41" type="curve" smooth="yes"/>
    </contour>
  </outline>
</glyph>
<glyph name="Omega" format="2">
  <advance width="776"/>
  <unicode hex="03A9"/>
  <outline>
    <contour>
      <point x="79" y="0" type="line"/>
      <point x="357" y="0" type="line"/>
      <point x="357" y="120" type="line" smooth="yes"/>
      <point x="357" y="143"/>
      <point x="363" y="164"/>
      <point x="367" y="173" type="curve"/>
      <point x="169" y="173"/>
      <point x="104" y="286"/>
      <point x="104" y="403" type="curve" smooth="yes"/>
      <point x="104" y="555"/>
      <point x="199" y="660"/>
      <point x="391" y="660" type="curve" smooth="yes"/>
      <point x="578" y="660"/>
      <point x="672" y="558"/>
      <point x="672" y="403" type="curve" smooth="yes"/>
      <point x="672" y="283"/>
      <point x="605" y="173"/>
      <point x="412" y="173" type="curve" smooth="yes"/>
      <point x="416" y="173"/>
      <point x="422" y="165"/>
      <point x="422" y="141" type="curve" smooth="yes"/>
      <point x="422" y="0" type="line"/>
      <point x="706" y="0" type="line"/>
      <point x="706" y="31" type="line"/>
      <point x="726" y="80" type="line"/>
      <point x="705" y="62"/>
      <point x="656" y="39"/>
      <point x="596" y="39" type="curve" smooth="yes"/>
      <point x="465" y="39" type="line"/>
      <point x="465" y="143" type="line"/>
      <point x="600" y="143"/>
      <point x="726" y="232"/>
      <point x="726" y="403" type="curve" smooth="yes"/>
      <point x="726" y="582"/>
      <point x="620" y="700"/>
      <point x="391" y="700" type="curve" smooth="yes"/>
      <point x="161" y="700"/>
      <point x="50" y="581"/>
      <point x="50" y="403" type="curve" smooth="yes"/>
      <point x="50" y="233"/>
      <point x="182" y="143"/>
      <point x="312" y="143" type="curve"/>
      <point x="312" y="39" type="line"/>
      <point x="189" y="39" type="line" smooth="yes"/>
      <point x="129" y="39"/>
      <point x="80" y="62"/>
      <point x="59" y="80" type="curve"/>
      <point x="79" y="31" type="line"/>
    </contour>
  </outline>
</glyph>
<glyph name="pi" format="2">
  <advance width="600"/>
  <unicode hex="03C0"/>
  <outline>
    <contour>
      <point x="89" y="0" type="curve" smooth="yes"/>
      <point x="183" y="0" type="line" smooth="yes"/>
      <point x="174" y="0"/>
      <point x="162" y="17"/>
      <point x="162" y="60" type="curve" smooth="yes"/>
      <point x="162" y="525" type="line" smooth="yes"/>
      <point x="162" y="554"/>
      <point x="163" y="555"/>
      <point x="203" y="555" type="curve" smooth="yes"/>
      <point x="397" y="555" type="line" smooth="yes"/>
      <point x="436" y="555"/>
      <point x="437" y="555"/>
      <point x="437" y="525" type="curve" smooth="yes"/>
      <point x="437" y="60" type="line" smooth="yes"/>
      <point x="437" y="17"/>
      <point x="425" y="0"/>
      <point x="416" y="0" type="curve" smooth="yes"/>
      <point x="511" y="0" type="line" smooth="yes"/>
      <point x="502" y="0"/>
      <point x="490" y="17"/>
      <point x="490" y="60" type="curve" smooth="yes"/>
      <point x="490" y="518" type="line" smooth="yes"/>
      <point x="490" y="569"/>
      <point x="513" y="594"/>
      <point x="530" y="599" type="curve"/>
      <point x="70" y="599" type="line"/>
      <point x="87" y="594"/>
      <point x="110" y="569"/>
      <point x="110" y="519" type="curve" smooth="yes"/>
      <point x="110" y="60" type="line" smooth="yes"/>
      <point x="110" y="17"/>
      <point x="98" y="0"/>
    </contour>
  </outline>
</glyph>
<glyph name="Germandbls" format="2">
  <advance width="727"/>
  <unicode hex="1E9E"/>
  <outline>
    <contour>
      <point x="465" y="-10" type="curve" smooth="yes"/>
      <point x="597" y="-10"/>
      <point x="677" y="63"/>
      <point x="677" y="154" type="curve" smooth="yes"/>
      <point x="677" y="242"/>
      <point x="619" y="303"/>
      <point x="545" y="358" type="curve" smooth="yes"/>
      <point x="486" y="402"/>
      <point x="462" y="433"/>
      <point x="462" y="481" type="curve" smooth="yes"/>
      <point x="462" y="544"/>
      <point x="536" y="577"/>
      <point x="587" y="589" type="curve"/>
      <point x="587" y="631" type="line"/>
      <point x="554" y="648"/>
      <point x="474" y="671"/>
      <point x="375" y="671" type="curve" smooth="yes"/>
      <point x="213" y="671"/>
      <point x="91" y="610"/>
      <point x="91" y="404" type="curve" smooth="yes"/>
      <point x="91" y="60" type="line" smooth="yes"/>
      <point x="91" y="17"/>
      <point x="79" y="0"/>
      <point x="70" y="0" type="curve" smooth="yes"/>
      <point x="163" y="0" type="line" smooth="yes"/>
      <point x="154" y="0"/>
      <point x="143" y="17"/>
      <point x="143" y="60" type="curve" smooth="yes"/>
      <point x="143" y="397" type="line" smooth="yes"/>
      <point x="143" y="568"/>
      <point x="224" y="631"/>
      <point x="367" y="631" type="curve" smooth="yes"/>
      <point x="433" y="631"/>
      <point x="495" y="621"/>
      <point x="523" y="613" type="curve"/>
      <point x="523" y="610" type="line"/>
      <point x="469" y="591"/>
      <point x="414" y="545"/>
      <point x="414" y="476" type="curve" smooth="yes"/>
      <point x="414" y="415"/>
      <point x="443" y="375"/>
      <point x="502" y="326" type="curve" smooth="yes"/>
      <point x="554" y="283"/>
      <point x="623" y="232"/>
      <point x="623" y="156" type="curve" smooth="yes"/>
      <point x="623" y="79"/>
      <point x="553" y="31"/>
      <point x="467" y="31" type="curve" smooth="yes"/>
      <point x="361" y="31"/>
      <point x="285" y="71"/>
      <point x="257" y="101" type="curve"/>
      <point x="257" y="71" type="line"/>
      <point x="247" y="41" type="line"/>
      <point x="272" y="19"/>
      <point x="348" y="-10"/>
    </contour>
  </outline>
</glyph>
<glyph name="endash" format="2">
  <advance width="556"/>
  <unicode hex="2013"/>
  <outline>
    <contour>
      <point x="30" y="210" type="curve"/>
      <point x="39" y="214"/>
      <point x="77" y="220"/>
      <point x="150" y="220" type="curve" smooth="yes"/>
      <point x="506" y="220" type="line"/>
      <point x="506" y="248"/>
      <point x="517" y="265"/>
      <point x="526" y="270" type="curve"/>
      <point x="523" y="266"/>
      <point x="494" y="260"/>
      <point x="426" y="260" type="curve" smooth="yes"/>
      <point x="50" y="260" type="line"/>
      <point x="50" y="242"/>
      <point x="39" y="221"/>
    </contour>
  </outline>
</glyph>
<glyph name="emdash" format="2">
  <advance width="896"/>
  <unicode hex="2014"/>
  <outline>
    <contour>
      <point x="30" y="210" type="curve"/>
      <point x="39" y="214"/>
      <point x="77" y="220"/>
      <point x="150" y="220" type="curve" smooth="yes"/>
      <point x="846" y="220" type="line"/>
      <point x="846" y="248"/>
      <point x="857" y="265"/>
      <point x="866" y="270" type="curve"/>
      <point x="863" y="266"/>
      <point x="834" y="260"/>
      <point x="766" y="260" type="curve" smooth="yes"/>
      <point x="50" y="260" type="line"/>
      <point x="50" y="242"/>
      <point x="39" y="221"/>
    </contour>
  </outline>
</glyph>
<glyph name="quoteright" format="2">
  <advance width="230"/>
  <unicode hex="2019"/>
  <outline>
    <contour>
      <point x="64" y="490" type="line"/>
      <point x="112" y="497"/>
      <point x="180" y="546"/>
      <point x="180" y="630" type="curve" smooth="yes"/>
      <point x="180" y="678"/>
      <point x="151" y="720"/>
      <point x="100" y="720" type="curve" smooth="yes"/>
      <point x="76" y="720"/>
      <point x="58" y="705"/>
      <point x="58" y="675" type="curve" smooth="yes"/>
      <point x="58" y="660" type="line"/>
      <point x="102" y="660"/>
      <point x="130" y="648"/>
      <point x="130" y="611" type="curve" smooth="yes"/>
      <point x="130" y="558"/>
      <point x="86" y="524"/>
      <point x="50" y="515" type="curve"/>
    </contour>
  </outline>
</glyph>
<glyph name="quotedblleft" format="2">
  <advance width="410"/>
  <unicode hex="201C"/>
  <outline>
    <contour>
      <point x="346" y="700" type="line"/>
      <point x="298" y="693"/>
      <point x="230" y="644"/>
      <point x="230" y="560" type="curve" smooth="yes"/>
      <point x="230" y="512"/>
      <point x="259" y="470"/>
      <point x="310" y="470" type="curve" smooth="yes"/>
      <point x="334" y="470"/>
      <point x="352" y="485"/>
      <point x="352" y="515" type="curve" smooth="yes"/>
      <point x="352" y="530" type="line"/>
      <point x="308" y="530"/>
      <point x="280" y="542"/>
      <point x="280" y="579" type="curve" smooth="yes"/>
      <point x="280" y="632"/>
      <point x="324" y="666"/>
      <point x="360" y="675" type="curve"/>
    </contour>
    <contour>
      <point x="166" y="700" type="line"/>
      <point x="118" y="693"/>
      <point x="50" y="644"/>
      <point x="50" y="560" type="curve" smooth="yes"/>
      <point x="50" y="512"/>
      <point x="79" y="470"/>
      <point x="130" y="470" type="curve" smooth="yes"/>
      <point x="154" y="470"/>
      <point x="172" y="485"/>
      <point x="172" y="515" type="curve" smooth="yes"/>
      <point x="172" y="530" type="line"/>
      <point x="128" y="530"/>
      <point x="100" y="542"/>
      <point x="100" y="579" type="curve" smooth="yes"/>
      <point x="100" y="632"/>
      <point x="144" y="666"/>
      <point x="180" y="675" type="curve"/>
    </contour>
  </outline>
</glyph>
